<svg xmlns="http://www.w3.org/2000/svg" xmlns:xlink="http://www.w3.org/1999/xlink" version="1.1" viewBox="0 0 3325 2491" style="background: #ffffff"><defs><style>@import url(http://fonts.googleapis.com/css?family=Roboto);</style></defs><defs joint-selector="defs"></defs><g  joint-selector="layers" transform="matrix(1,0,0,1,0,0)"><g ></g><g ><g   id="j_197"  transform="translate(20,2453.5)"><g id="v-7472"><text  id="v-7473" font-size="22px" xml:space="preserve" y="0.8em" font-weight="normal" text-anchor="start" fill="#aaaaaa" pointer-events="none" display="block" font-family="Roboto"><tspan  dy="0" display="block">Wednesday, 5 June 2024 at 08:47 Central European Summer Time</tspan></text></g></g><g   id="j_196"  transform="translate(20,2408.5)"><g id="v-7470"><text  id="v-7471" font-size="36px" xml:space="preserve" y="0.8em" font-weight="normal" text-anchor="start" fill="#000000" pointer-events="none" display="block" font-family="Roboto"><tspan  dy="0" display="block">[Container] MLOps System</tspan></text></g></g><g   id="j_198"  transform="translate(55,670)" style=""><g  id="v-7477" style="opacity: 1;"><rect  x="0" y="160" width="400" height="240" rx="70" id="v-7479" stroke="#00474d" stroke-width="2" pointer-events="visiblePainted" fill="#004f56" style="fill: rgb(0, 79, 86); stroke: rgb(0, 71, 77);"></rect><circle  cx="200" cy="88.88888888888889" r="88.88888888888889" id="v-7478" stroke="#00474d" stroke-width="2" pointer-events="visiblePainted" fill="#004f56" style="fill: rgb(0, 79, 86); stroke: rgb(0, 71, 77);"></circle><line  x1="80" y1="266.6666666666667" x2="80" y2="400" id="v-7485" stroke="#00474d" stroke-width="2" style="stroke: rgb(0, 71, 77);"></line><line  x1="320" y1="266.6666666666667" x2="320" y2="400" id="v-7486" stroke="#00474d" stroke-width="2" style="stroke: rgb(0, 71, 77);"></line><text  id="v-7480" font-size="34" xml:space="preserve" y="0.8em" font-weight="bold" text-anchor="middle" pointer-events="visible" font-family="Roboto" fill="#ffffff" transform="matrix(1,0,0,1,200,198.10000610351562)" style="fill: rgb(255, 255, 255);"><tspan  dy="0">EOSC User</tspan></text><text  id="v-7481" font-size="17" xml:space="preserve" y="0.8em" text-anchor="middle" font-family="Roboto" fill="#ffffff" transform="matrix(1,0,0,1,200,240.60000610351562)" style="fill: rgb(255, 255, 255);"><tspan  dy="0">[Person]</tspan></text><text  id="v-7482" font-size="24" xml:space="preserve" y="0.8em" text-anchor="middle" font-family="Roboto" fill="#ffffff" transform="matrix(1,0,0,1,200,271.8999938964844)" style="fill: rgb(255, 255, 255);"><tspan  dy="0">EOSC user willing to use an AI</tspan><tspan dy="1.2em" x="0" >platform to develop an AI</tspan><tspan dy="1.2em" x="0" >application.</tspan></text><g  id="v-7483" font-weight="normal" text-anchor="middle" color="#ffffff" transform="matrix(1,0,0,1,197.5,371.8999938964844)" style="fill: rgb(255, 255, 255);" display="none"><g ></g><g ></g><g ></g><g ></g></g><image  id="v-7484"></image></g></g><g   id="j_199"  transform="translate(555,30)" style=""><g  id="v-7493" style="opacity: 1;"><rect  id="v-7494" rx="20" ry="20" stroke="#e68da0" stroke-width="2" pointer-events="visiblePainted" fill="#ff9db2" width="450" height="300" style="fill: rgb(255, 157, 178); stroke: rgb(230, 141, 160);"></rect><text  id="v-7495" font-size="34" xml:space="preserve" y="0.8em" font-weight="bold" text-anchor="middle" pointer-events="visible" font-family="Roboto" fill="#000000" transform="matrix(1,0,0,1,225,83.0999984741211)" style="fill: rgb(0, 0, 0);"><tspan  dy="0">AI4EOSC Platform</tspan></text><text  id="v-7496" font-size="17" xml:space="preserve" y="0.8em" text-anchor="middle" font-family="Roboto" fill="#000000" transform="matrix(1,0,0,1,225,125.5999984741211)" style="fill: rgb(0, 0, 0);"><tspan  dy="0">[Software System]</tspan></text><text  id="v-7497" font-size="24" xml:space="preserve" y="0.8em" text-anchor="middle" font-family="Roboto" fill="#000000" transform="matrix(1,0,0,1,225,156.89999389648438)" style="fill: rgb(0, 0, 0);"><tspan  dy="0">Allows EOSC users to develop, build</tspan><tspan dy="1.2em" x="0" >and share AI models.</tspan></text><g  id="v-7498" color="#000000" transform="matrix(1,0,0,1,210,226.89999389648438)" style="fill: rgb(0, 0, 0);" display="none"><g  transform="translate(5 0)"><svg xmlns="http://www.w3.org/2000/svg" width="20" height="20" fill="currentColor" viewBox="0 0 16 16"><path fill-rule="evenodd" d="M6.5 12a5.5 5.5 0 1 0 0-11 5.5 5.5 0 0 0 0 11zM13 6.5a6.5 6.5 0 1 1-13 0 6.5 6.5 0 0 1 13 0z"></path><path d="M10.344 11.742c.03.04.062.078.098.115l3.85 3.85a1 1 0 0 0 1.415-1.414l-3.85-3.85a1.007 1.007 0 0 0-.115-.1 6.538 6.538 0 0 1-1.398 1.4z"></path><path fill-rule="evenodd" d="M6.5 3a.5.5 0 0 1 .5.5V6h2.5a.5.5 0 0 1 0 1H7v2.5a.5.5 0 0 1-1 0V7H3.5a.5.5 0 0 1 0-1H6V3.5a.5.5 0 0 1 .5-.5z"></path></svg></g><g ></g><g ></g><g ></g></g><image  id="v-7499"></image></g></g><g   id="j_200"  transform="translate(1255,755)" style=""><g  id="v-7503" style="opacity: 1;"><rect  id="v-7504" rx="20" ry="20" stroke="#e68da0" stroke-width="2" pointer-events="visiblePainted" fill="#ff9db2" width="450" height="300" style="fill: rgb(255, 157, 178); stroke: rgb(230, 141, 160);"></rect><text  id="v-7505" font-size="34" xml:space="preserve" y="0.8em" font-weight="bold" text-anchor="middle" pointer-events="visible" font-family="Roboto" fill="#000000" transform="matrix(1,0,0,1,225,83.0999984741211)" style="fill: rgb(0, 0, 0);"><tspan  dy="0">AI as a Service</tspan></text><text  id="v-7506" font-size="17" xml:space="preserve" y="0.8em" text-anchor="middle" font-family="Roboto" fill="#000000" transform="matrix(1,0,0,1,225,125.5999984741211)" style="fill: rgb(0, 0, 0);"><tspan  dy="0">[Software System]</tspan></text><text  id="v-7507" font-size="24" xml:space="preserve" y="0.8em" text-anchor="middle" font-family="Roboto" fill="#000000" transform="matrix(1,0,0,1,225,156.89999389648438)" style="fill: rgb(0, 0, 0);"><tspan  dy="0">Allows users to deploy an AI</tspan><tspan dy="1.2em" x="0" >application as a service.</tspan></text><g  id="v-7508" color="#000000" transform="matrix(1,0,0,1,210,226.89999389648438)" style="fill: rgb(0, 0, 0);" display="none"><g  transform="translate(5 0)"><svg xmlns="http://www.w3.org/2000/svg" width="20" height="20" fill="currentColor" viewBox="0 0 16 16"><path fill-rule="evenodd" d="M6.5 12a5.5 5.5 0 1 0 0-11 5.5 5.5 0 0 0 0 11zM13 6.5a6.5 6.5 0 1 1-13 0 6.5 6.5 0 0 1 13 0z"></path><path d="M10.344 11.742c.03.04.062.078.098.115l3.85 3.85a1 1 0 0 0 1.415-1.414l-3.85-3.85a1.007 1.007 0 0 0-.115-.1 6.538 6.538 0 0 1-1.398 1.4z"></path><path fill-rule="evenodd" d="M6.5 3a.5.5 0 0 1 .5.5V6h2.5a.5.5 0 0 1 0 1H7v2.5a.5.5 0 0 1-1 0V7H3.5a.5.5 0 0 1 0-1H6V3.5a.5.5 0 0 1 .5-.5z"></path></svg></g><g ></g><g ></g><g ></g></g><image  id="v-7509"></image></g></g><g   id="j_202"  transform="translate(500,1630)" style=""><g id="v-7520"><rect  id="v-7521" width="2035" height="515" rx="0" ry="0" fill="#ffffff" stroke="#e68da0" stroke-width="1" stroke-dasharray="20,20" pointer-events="none"></rect><text  id="v-7522" font-size="24px" xml:space="preserve" y="476" font-weight="normal" fill="#e68da0" text-anchor="start" pointer-events="visible" font-family="Roboto" transform="matrix(1,0,0,1,15,0)"><tspan  dy="0">MLOps System</tspan></text><text  id="v-7523" font-size="17px" xml:space="preserve" y="500" font-weight="normal" fill="#e68da0" text-anchor="start" pointer-events="visible" font-family="Roboto" transform="matrix(1,0,0,1,15,0)"><tspan  dy="0">[Software System]</tspan></text><image  id="v-7524" pointer-events="visible"></image></g></g><g   id="j_201"  transform="translate(520,1650)" style=""><g  id="v-7513" style="opacity: 1;"><rect  id="v-7514" rx="20" ry="20" stroke="#007a83" stroke-width="2" pointer-events="visiblePainted" fill="#008792" width="450" height="300" style="fill: rgb(0, 135, 146); stroke: rgb(0, 122, 131);"></rect><text  id="v-7515" font-size="34" xml:space="preserve" y="0.8em" font-weight="bold" text-anchor="middle" pointer-events="visible" font-family="Roboto" fill="#ffffff" transform="matrix(1,0,0,1,225,83.0999984741211)" style="fill: rgb(255, 255, 255);"><tspan  dy="0">MLflow</tspan></text><text  id="v-7516" font-size="17" xml:space="preserve" y="0.8em" text-anchor="middle" font-family="Roboto" fill="#ffffff" transform="matrix(1,0,0,1,225,125.5999984741211)" style="fill: rgb(255, 255, 255);"><tspan  dy="0">[Container]</tspan></text><text  id="v-7517" font-size="24" xml:space="preserve" y="0.8em" text-anchor="middle" font-family="Roboto" fill="#ffffff" transform="matrix(1,0,0,1,225,156.89999389648438)" style="fill: rgb(255, 255, 255);"><tspan  dy="0">Tracks experiments and manages</tspan><tspan dy="1.2em" x="0" >model versions</tspan></text><g  id="v-7518" color="#ffffff" transform="matrix(1,0,0,1,222.5,226.89999389648438)" style="fill: rgb(255, 255, 255);" display="none"><g ></g><g ></g><g ></g><g ></g></g><image  id="v-7519"></image></g></g><g   id="j_204"  transform="translate(1230,1660)" style=""><g id="v-7535"><rect  id="v-7536" width="1285" height="394" rx="0" ry="0" fill="#ffffff" stroke="#444444" stroke-width="1" stroke-dasharray="5,5" pointer-events="none"></rect><text  id="v-7537" font-size="24px" xml:space="preserve" y="379" font-weight="normal" fill="#444444" text-anchor="start" pointer-events="visible" font-family="Roboto" transform="matrix(1,0,0,1,15,0)"><tspan  dy="0">Monitoring</tspan></text><text  id="v-7538" font-size="17px" xml:space="preserve" display="none" y="379" font-weight="normal" fill="#444444" text-anchor="start" pointer-events="visible" font-family="Roboto" transform="matrix(1,0,0,1,15,0)"><tspan style="fill-opacity: 0; stroke-opacity: 0;"  dy="0">-</tspan></text><image  id="v-7539" pointer-events="visible"></image></g></g><g   id="j_203"  transform="translate(1250,1680)" style=""><g  id="v-7528" style="opacity: 1;"><rect  id="v-7529" rx="20" ry="20" stroke="#007a83" stroke-width="2" pointer-events="visiblePainted" fill="#008792" width="450" height="300" style="fill: rgb(0, 135, 146); stroke: rgb(0, 122, 131);"></rect><text  id="v-7530" font-size="34" xml:space="preserve" y="0.8em" font-weight="bold" text-anchor="middle" pointer-events="visible" font-family="Roboto" fill="#ffffff" transform="matrix(1,0,0,1,225,98.0999984741211)" style="fill: rgb(255, 255, 255);"><tspan  dy="0">Frouros</tspan></text><text  id="v-7531" font-size="17" xml:space="preserve" y="0.8em" text-anchor="middle" font-family="Roboto" fill="#ffffff" transform="matrix(1,0,0,1,225,140.60000610351562)" style="fill: rgb(255, 255, 255);"><tspan  dy="0">[Container: python library]</tspan></text><text  id="v-7532" font-size="24" xml:space="preserve" y="0.8em" text-anchor="middle" font-family="Roboto" fill="#ffffff" transform="matrix(1,0,0,1,225,171.89999389648438)" style="fill: rgb(255, 255, 255);"><tspan  dy="0">Detects data and model drift</tspan></text><g  id="v-7533" color="#ffffff" transform="matrix(1,0,0,1,222.5,211.89999389648438)" style="fill: rgb(255, 255, 255);" display="none"><g ></g><g ></g><g ></g><g ></g></g><image  id="v-7534"></image></g></g><g   id="j_205"  transform="translate(2045,1680)" style=""><g  id="v-7543" style="opacity: 1;"><rect  id="v-7544" rx="20" ry="20" stroke="#007a83" stroke-width="2" pointer-events="visiblePainted" fill="#008792" width="450" height="300" style="fill: rgb(0, 135, 146); stroke: rgb(0, 122, 131);"></rect><text  id="v-7545" font-size="34" xml:space="preserve" y="0.8em" font-weight="bold" text-anchor="middle" pointer-events="visible" font-family="Roboto" fill="#ffffff" transform="matrix(1,0,0,1,225,83.0999984741211)" style="fill: rgb(255, 255, 255);"><tspan  dy="0">DriftWatch</tspan></text><text  id="v-7546" font-size="17" xml:space="preserve" y="0.8em" text-anchor="middle" font-family="Roboto" fill="#ffffff" transform="matrix(1,0,0,1,225,125.5999984741211)" style="fill: rgb(255, 255, 255);"><tspan  dy="0">[Container: python client]</tspan></text><text  id="v-7547" font-size="24" xml:space="preserve" y="0.8em" text-anchor="middle" font-family="Roboto" fill="#ffffff" transform="matrix(1,0,0,1,225,156.89999389648438)" style="fill: rgb(255, 255, 255);"><tspan  dy="0">Monitors drift; alert whenever a</tspan><tspan dy="1.2em" x="0" >drift is detected</tspan></text><g  id="v-7548" color="#ffffff" transform="matrix(1,0,0,1,222.5,226.89999389648438)" style="fill: rgb(255, 255, 255);" display="none"><g ></g><g ></g><g ></g><g ></g></g><image  id="v-7549"></image></g></g><g   id="j_206"  transform="translate(2405,700)" style=""><g  id="v-7553" style="opacity: 1;"><rect  x="0" y="160" width="400" height="240" rx="70" id="v-7555" stroke="#00474d" stroke-width="2" pointer-events="visiblePainted" fill="#004f56" style="fill: rgb(0, 79, 86); stroke: rgb(0, 71, 77);"></rect><circle  cx="200" cy="88.88888888888889" r="88.88888888888889" id="v-7554" stroke="#00474d" stroke-width="2" pointer-events="visiblePainted" fill="#004f56" style="fill: rgb(0, 79, 86); stroke: rgb(0, 71, 77);"></circle><line  x1="80" y1="266.6666666666667" x2="80" y2="400" id="v-7561" stroke="#00474d" stroke-width="2" style="stroke: rgb(0, 71, 77);"></line><line  x1="320" y1="266.6666666666667" x2="320" y2="400" id="v-7562" stroke="#00474d" stroke-width="2" style="stroke: rgb(0, 71, 77);"></line><text  id="v-7556" font-size="34" xml:space="preserve" y="0.8em" font-weight="bold" text-anchor="middle" pointer-events="visible" font-family="Roboto" fill="#ffffff" transform="matrix(1,0,0,1,200,213.10000610351562)" style="fill: rgb(255, 255, 255);"><tspan  dy="0">User</tspan></text><text  id="v-7557" font-size="17" xml:space="preserve" y="0.8em" text-anchor="middle" font-family="Roboto" fill="#ffffff" transform="matrix(1,0,0,1,200,255.60000610351562)" style="fill: rgb(255, 255, 255);"><tspan  dy="0">[Person]</tspan></text><text  id="v-7558" font-size="24" xml:space="preserve" y="0.8em" text-anchor="middle" font-family="Roboto" fill="#ffffff" transform="matrix(1,0,0,1,200,286.8999938964844)" style="fill: rgb(255, 255, 255);"><tspan  dy="0">An end-user, willing to exploit</tspan><tspan dy="1.2em" x="0" >existing production models.</tspan></text><g  id="v-7559" font-weight="normal" text-anchor="middle" color="#ffffff" transform="matrix(1,0,0,1,197.5,356.8999938964844)" style="fill: rgb(255, 255, 255);" display="none"><g ></g><g ></g><g ></g><g ></g></g><image  id="v-7560"></image></g></g><g   id="j_207" ><path  stroke="#707070" d="M 822 330 L 997 950 C 999 956.6666666666666 999 963.3333333333333 997 970 L 791 1650" id="v-7576" stroke-width="2" stroke-dasharray="30 30" fill="none" style="opacity: 1;"></path><path  fill="black" stroke="black" d="M 0 0 0 0" transform="matrix(0.27145686745643616,0.9624506235122681,-0.9624506235122681,0.27145686745643616,822.3099975585938,330)"></path><path  fill="#707070" stroke="#707070" d="M 20 0 L 0 10 L 20 20 z" id="v-7578" transform="matrix(0.29047632217407227,-0.9568821787834167,0.9568821787834167,0.29047632217407227,780.97119140625,1647.09521484375)" style="opacity: 1;"></path><path  d="M 822 330 L 997 950 C 999 956.6666666666666 999 963.3333333333333 997 970 L 791 1650" id="v-7577" fill="none" style="cursor: default;"></path><g ><g id="v-7570"  label-idx="0" cursor="move" transform="matrix(1,0,0,1,990.331298828125,992.01318359375)" style="cursor: default; opacity: 1;"><rect joint-selector="rect" id="v-7573" fill="#ffffff" rx="3" ry="3" pointer-events="none" width="180.39999389648438" height="87.60000228881836" transform="matrix(1,0,0,1,-88.9000015258789,-43.79999923706055)"></rect><text joint-selector="text" id="v-7572" font-size="24px" xml:space="preserve" y="0.8em" fill="#707070" text-anchor="middle" pointer-events="none" font-family="Roboto" font-weight="normal" transform="matrix(1,0,0,1,0,-39)"><tspan  dy="0">logs parametres,</tspan><tspan dy="1.2em" x="0" >metrics, models</tspan><tspan dy="1.2em" x="0" >to mlflow</tspan></text></g><g id="v-7571"  label-idx="1" cursor="move" transform="matrix(1,0,0,1,980.331298828125,1049.01318359375)" style="cursor: default; opacity: 1;"><rect joint-selector="rect" id="v-7575" fill="#ffffff" rx="3" ry="3"  width="0" height="0" transform="matrix(1,0,0,1,0,0)" display="none"></rect><text joint-selector="text" id="v-7574" fill="#000000" font-size="14" text-anchor="middle" pointer-events="none"></text></g></g><g  display="none"><g  transform="translate(1000, 960)" id="v-7567"><circle  idx="0" r="10"></circle><path  idx="0" d="M16,5.333c-7.732,0-14,4.701-14,10.5c0,1.982,0.741,3.833,2.016,5.414L2,25.667l5.613-1.441c2.339,1.317,5.237,2.107,8.387,2.107c7.732,0,14-4.701,14-10.5C30,10.034,23.732,5.333,16,5.333z" transform="translate(5, -33)"></path><path  idx="0" transform="scale(.8) translate(9.5, -37)" d="M24.778,21.419 19.276,15.917 24.777,10.415 21.949,7.585 16.447,13.087 10.945,7.585 8.117,10.415 13.618,15.917 8.116,21.419 10.946,24.248 16.447,18.746 21.948,24.248z"><title>Remove vertex.</title></path></g></g><g  id="v-7580" display="none"><g  id="v-7568"><path  end="source" d="M 26 0 L 0 13 L 26 26 z"></path></g><g  id="v-7569"><path  end="target" d="M 26 0 L 0 13 L 26 26 z"></path></g></g><g  id="v-7579" display="none"><g  id="v-7566" transform="translate(832.8657800822848, 368.49590657723786) "><g  event="remove"><circle r="11"></circle><path transform="scale(.8) translate(-16, -16)" d="M24.778,21.419 19.276,15.917 24.777,10.415 21.949,7.585 16.447,13.087 10.945,7.585 8.117,10.415 13.618,15.917 8.116,21.419 10.946,24.248 16.447,18.746 21.948,24.248z"></path><title>Remove link.</title></g><g  event="link:options"><circle r="11" transform="translate(25)"></circle><path fill="white" transform="scale(.55) translate(29, -16)" d="M31.229,17.736c0.064-0.571,0.104-1.148,0.104-1.736s-0.04-1.166-0.104-1.737l-4.377-1.557c-0.218-0.716-0.504-1.401-0.851-2.05l1.993-4.192c-0.725-0.91-1.549-1.734-2.458-2.459l-4.193,1.994c-0.647-0.347-1.334-0.632-2.049-0.849l-1.558-4.378C17.165,0.708,16.588,0.667,16,0.667s-1.166,0.041-1.737,0.105L12.707,5.15c-0.716,0.217-1.401,0.502-2.05,0.849L6.464,4.005C5.554,4.73,4.73,5.554,4.005,6.464l1.994,4.192c-0.347,0.648-0.632,1.334-0.849,2.05l-4.378,1.557C0.708,14.834,0.667,15.412,0.667,16s0.041,1.165,0.105,1.736l4.378,1.558c0.217,0.715,0.502,1.401,0.849,2.049l-1.994,4.193c0.725,0.909,1.549,1.733,2.459,2.458l4.192-1.993c0.648,0.347,1.334,0.633,2.05,0.851l1.557,4.377c0.571,0.064,1.148,0.104,1.737,0.104c0.588,0,1.165-0.04,1.736-0.104l1.558-4.377c0.715-0.218,1.399-0.504,2.049-0.851l4.193,1.993c0.909-0.725,1.733-1.549,2.458-2.458l-1.993-4.193c0.347-0.647,0.633-1.334,0.851-2.049L31.229,17.736zM16,20.871c-2.69,0-4.872-2.182-4.872-4.871c0-2.69,2.182-4.872,4.872-4.872c2.689,0,4.871,2.182,4.871,4.872C20.871,18.689,18.689,20.871,16,20.871z"></path><title>Link options.</title></g></g></g></g><g   id="j_208" ><path  stroke="#707070" d="M 714 1650 L 572 975 C 570.6666666666666 968.3333333333333 571 961.6666666666665 573 955 L 740 330" id="v-7594" stroke-width="2" stroke-dasharray="30 30" fill="none" style="opacity: 1;"></path><path  fill="black" stroke="black" d="M 0 0 0 0" transform="matrix(-0.20512041449546814,-0.9787367582321167,0.9787367582321167,-0.20512041449546814,713.5599975585938,1650)"></path><path  fill="#707070" stroke="#707070" d="M 20 0 L 0 10 L 20 20 z" id="v-7596" transform="matrix(-0.2584247887134552,0.9660313725471497,-0.9660313725471497,-0.2584247887134552,749.5303344726562,332.584228515625)" style="opacity: 1;"></path><path  d="M 714 1650 L 572 975 C 570.6666666666666 968.3333333333333 571 961.6666666666665 573 955 L 740 330" id="v-7595" fill="none" style="cursor: default;"></path><g ><g id="v-7588"  label-idx="0" cursor="move" transform="matrix(1,0,0,1,574.328369140625,986.0679931640625)" style="cursor: default; opacity: 1;"><rect joint-selector="rect" id="v-7591" fill="#ffffff" rx="3" ry="3" pointer-events="none" width="150.14999389648438" height="58.79999923706055" transform="matrix(1,0,0,1,-75.0999984741211,-29.399999618530273)"></rect><text joint-selector="text" id="v-7590" font-size="24px" xml:space="preserve" y="0.8em" fill="#707070" text-anchor="middle" pointer-events="none" font-family="Roboto" font-weight="normal" transform="matrix(1,0,0,1,0,-24.600000381469727)"><tspan  dy="0">detects new</tspan><tspan dy="1.2em" x="0" >model version</tspan></text></g><g id="v-7589"  label-idx="1" cursor="move" transform="matrix(1,0,0,1,564.328369140625,1028.0679931640625)" style="cursor: default; opacity: 1;"><rect joint-selector="rect" id="v-7593" fill="#ffffff" rx="3" ry="3"  width="0" height="0" transform="matrix(1,0,0,1,0,0)" display="none"></rect><text joint-selector="text" id="v-7592" fill="#000000" font-size="14" text-anchor="middle" pointer-events="none"></text></g></g><g  display="none"><g  transform="translate(570, 965)" id="v-7585"><circle  idx="0" r="10"></circle><path  idx="0" d="M16,5.333c-7.732,0-14,4.701-14,10.5c0,1.982,0.741,3.833,2.016,5.414L2,25.667l5.613-1.441c2.339,1.317,5.237,2.107,8.387,2.107c7.732,0,14-4.701,14-10.5C30,10.034,23.732,5.333,16,5.333z" transform="translate(5, -33)"></path><path  idx="0" transform="scale(.8) translate(9.5, -37)" d="M24.778,21.419 19.276,15.917 24.777,10.415 21.949,7.585 16.447,13.087 10.945,7.585 8.117,10.415 13.618,15.917 8.116,21.419 10.946,24.248 16.447,18.746 21.948,24.248z"><title>Remove vertex.</title></path></g></g><g  id="v-7598" display="none"><g  id="v-7586"><path  end="source" d="M 26 0 L 0 13 L 26 26 z"></path></g><g  id="v-7587"><path  end="target" d="M 26 0 L 0 13 L 26 26 z"></path></g></g><g  id="v-7597" display="none"><g  id="v-7584" transform="translate(705.7654259915224, 1610.8567784808288) "><g  event="remove"><circle r="11"></circle><path transform="scale(.8) translate(-16, -16)" d="M24.778,21.419 19.276,15.917 24.777,10.415 21.949,7.585 16.447,13.087 10.945,7.585 8.117,10.415 13.618,15.917 8.116,21.419 10.946,24.248 16.447,18.746 21.948,24.248z"></path><title>Remove link.</title></g><g  event="link:options"><circle r="11" transform="translate(25)"></circle><path fill="white" transform="scale(.55) translate(29, -16)" d="M31.229,17.736c0.064-0.571,0.104-1.148,0.104-1.736s-0.04-1.166-0.104-1.737l-4.377-1.557c-0.218-0.716-0.504-1.401-0.851-2.05l1.993-4.192c-0.725-0.91-1.549-1.734-2.458-2.459l-4.193,1.994c-0.647-0.347-1.334-0.632-2.049-0.849l-1.558-4.378C17.165,0.708,16.588,0.667,16,0.667s-1.166,0.041-1.737,0.105L12.707,5.15c-0.716,0.217-1.401,0.502-2.05,0.849L6.464,4.005C5.554,4.73,4.73,5.554,4.005,6.464l1.994,4.192c-0.347,0.648-0.632,1.334-0.849,2.05l-4.378,1.557C0.708,14.834,0.667,15.412,0.667,16s0.041,1.165,0.105,1.736l4.378,1.558c0.217,0.715,0.502,1.401,0.849,2.049l-1.994,4.193c0.725,0.909,1.549,1.733,2.459,2.458l4.192-1.993c0.648,0.347,1.334,0.633,2.05,0.851l1.557,4.377c0.571,0.064,1.148,0.104,1.737,0.104c0.588,0,1.165-0.04,1.736-0.104l1.558-4.377c0.715-0.218,1.399-0.504,2.049-0.851l4.193,1.993c0.909-0.725,1.733-1.549,2.458-2.458l-1.993-4.193c0.347-0.647,0.633-1.334,0.851-2.049L31.229,17.736zM16,20.871c-2.69,0-4.872-2.182-4.872-4.871c0-2.69,2.182-4.872,4.872-4.872c2.689,0,4.871,2.182,4.871,4.872C20.871,18.689,18.689,20.871,16,20.871z"></path><title>Link options.</title></g></g></g></g><g   id="j_209" ><path  stroke="#707070" d="M 748 1950 L 750 2090 C 750 2096.6666666666665 753.3333333333333 2100 760 2100 L 2260 2105 C 2266.6666666666665 2105 2270 2101.6666666666665 2270 2095 L 2270 1980" id="v-7613" stroke-width="2" stroke-dasharray="30 30" fill="none" style="opacity: 1;"></path><path  fill="black" stroke="black" d="M 0 0 0 0" transform="matrix(0.016664357855916023,0.9998611211776733,-0.9998611211776733,0.016664357855916023,747.5,1950)"></path><path  fill="#707070" stroke="#707070" d="M 20 0 L 0 10 L 20 20 z" id="v-7615" transform="matrix(6.123234262925839e-17,1,-1,6.123234262925839e-17,2280,1980)" style="opacity: 1;"></path><path  d="M 748 1950 L 750 2090 C 750 2096.6666666666665 753.3333333333333 2100 760 2100 L 2260 2105 C 2266.6666666666665 2105 2270 2101.6666666666665 2270 2095 L 2270 1980" id="v-7614" fill="none" style="cursor: default;"></path><g ><g id="v-7607"  label-idx="0" cursor="move" transform="matrix(1,0,0,1,1497.492919921875,2102.458251953125)" style="cursor: default; opacity: 1;"><rect joint-selector="rect" id="v-7610" fill="#ffffff" rx="3" ry="3" pointer-events="none" width="178.5" height="116.40000534057617" transform="matrix(1,0,0,1,-89.0999984741211,-58.20000076293945)"></rect><text joint-selector="text" id="v-7609" font-size="24px" xml:space="preserve" y="0.8em" fill="#707070" text-anchor="middle" pointer-events="none" font-family="Roboto" font-weight="normal" transform="matrix(1,0,0,1,0,-53.400001525878906)"><tspan  dy="0">tracks the model</tspan><tspan dy="1.2em" x="0" >performance of</tspan><tspan dy="1.2em" x="0" >the deployed</tspan><tspan dy="1.2em" x="0" >model</tspan></text></g><g id="v-7608"  label-idx="1" cursor="move" transform="matrix(1,0,0,1,1487.492919921875,2174.458251953125)" style="cursor: default; opacity: 1;"><rect joint-selector="rect" id="v-7612" fill="#ffffff" rx="3" ry="3"  width="0" height="0" transform="matrix(1,0,0,1,0,0)" display="none"></rect><text joint-selector="text" id="v-7611" fill="#000000" font-size="14" text-anchor="middle" pointer-events="none"></text></g></g><g  display="none"><g  transform="translate(750, 2100)" id="v-7603"><circle  idx="0" r="10"></circle><path  idx="0" d="M16,5.333c-7.732,0-14,4.701-14,10.5c0,1.982,0.741,3.833,2.016,5.414L2,25.667l5.613-1.441c2.339,1.317,5.237,2.107,8.387,2.107c7.732,0,14-4.701,14-10.5C30,10.034,23.732,5.333,16,5.333z" transform="translate(5, -33)"></path><path  idx="0" transform="scale(.8) translate(9.5, -37)" d="M24.778,21.419 19.276,15.917 24.777,10.415 21.949,7.585 16.447,13.087 10.945,7.585 8.117,10.415 13.618,15.917 8.116,21.419 10.946,24.248 16.447,18.746 21.948,24.248z"><title>Remove vertex.</title></path></g><g  transform="translate(2270, 2105)" id="v-7604"><circle  idx="1" r="10"></circle><path  idx="1" d="M16,5.333c-7.732,0-14,4.701-14,10.5c0,1.982,0.741,3.833,2.016,5.414L2,25.667l5.613-1.441c2.339,1.317,5.237,2.107,8.387,2.107c7.732,0,14-4.701,14-10.5C30,10.034,23.732,5.333,16,5.333z" transform="translate(5, -33)"></path><path  idx="1" transform="scale(.8) translate(9.5, -37)" d="M24.778,21.419 19.276,15.917 24.777,10.415 21.949,7.585 16.447,13.087 10.945,7.585 8.117,10.415 13.618,15.917 8.116,21.419 10.946,24.248 16.447,18.746 21.948,24.248z"><title>Remove vertex.</title></path></g></g><g  id="v-7617" display="none"><g  id="v-7605"><path  end="source" d="M 26 0 L 0 13 L 26 26 z"></path></g><g  id="v-7606"><path  end="target" d="M 26 0 L 0 13 L 26 26 z"></path></g></g><g  id="v-7616" display="none"><g  id="v-7602" transform="translate(748.571370271314, 1989.9959189919803) "><g  event="remove"><circle r="11"></circle><path transform="scale(.8) translate(-16, -16)" d="M24.778,21.419 19.276,15.917 24.777,10.415 21.949,7.585 16.447,13.087 10.945,7.585 8.117,10.415 13.618,15.917 8.116,21.419 10.946,24.248 16.447,18.746 21.948,24.248z"></path><title>Remove link.</title></g><g  event="link:options"><circle r="11" transform="translate(25)"></circle><path fill="white" transform="scale(.55) translate(29, -16)" d="M31.229,17.736c0.064-0.571,0.104-1.148,0.104-1.736s-0.04-1.166-0.104-1.737l-4.377-1.557c-0.218-0.716-0.504-1.401-0.851-2.05l1.993-4.192c-0.725-0.91-1.549-1.734-2.458-2.459l-4.193,1.994c-0.647-0.347-1.334-0.632-2.049-0.849l-1.558-4.378C17.165,0.708,16.588,0.667,16,0.667s-1.166,0.041-1.737,0.105L12.707,5.15c-0.716,0.217-1.401,0.502-2.05,0.849L6.464,4.005C5.554,4.73,4.73,5.554,4.005,6.464l1.994,4.192c-0.347,0.648-0.632,1.334-0.849,2.05l-4.378,1.557C0.708,14.834,0.667,15.412,0.667,16s0.041,1.165,0.105,1.736l4.378,1.558c0.217,0.715,0.502,1.401,0.849,2.049l-1.994,4.193c0.725,0.909,1.549,1.733,2.459,2.458l4.192-1.993c0.648,0.347,1.334,0.633,2.05,0.851l1.557,4.377c0.571,0.064,1.148,0.104,1.737,0.104c0.588,0,1.165-0.04,1.736-0.104l1.558-4.377c0.715-0.218,1.399-0.504,2.049-0.851l4.193,1.993c0.909-0.725,1.733-1.549,2.458-2.458l-1.993-4.193c0.347-0.647,0.633-1.334,0.851-2.049L31.229,17.736zM16,20.871c-2.69,0-4.872-2.182-4.872-4.871c0-2.69,2.182-4.872,4.872-4.872c2.689,0,4.871,2.182,4.871,4.872C20.871,18.689,18.689,20.871,16,20.871z"></path><title>Link options.</title></g></g></g></g><g   id="j_210" ><path  stroke="#707070" d="M 1005 182 L 1285 185 C 1291.6666666666665 185 1295 188.33333333333331 1295 195 L 1295 270 C 1295 276.66666666666663 1298.3333333333333 280 1305 280 L 2270 280 C 2276.6666666666665 280 2280 283.3333333333333 2280 290 L 2271 1680" id="v-7633" stroke-width="2" stroke-dasharray="30 30" fill="none" style="opacity: 1;"></path><path  fill="black" stroke="black" d="M 0 0 0 0" transform="matrix(0.9999527335166931,0.009723678231239319,-0.009723678231239319,0.9999527335166931,1005,182.17999267578125)"></path><path  fill="#707070" stroke="#707070" d="M 20 0 L 0 10 L 20 20 z" id="v-7635" transform="matrix(0.00645013153553009,-0.9999791979789734,0.9999791979789734,0.00645013153553009,2260.97021484375,1679.935546875)" style="opacity: 1;"></path><path  d="M 1005 182 L 1285 185 C 1291.6666666666665 185 1295 188.33333333333331 1295 195 L 1295 270 C 1295 276.66666666666663 1298.3333333333333 280 1305 280 L 2270 280 C 2276.6666666666665 280 2280 283.3333333333333 2280 290 L 2271 1680" id="v-7634" fill="none" style="cursor: default;"></path><g ><g id="v-7627"  label-idx="0" cursor="move" transform="matrix(1,0,0,1,2279.930908203125,300.6603698730469)" style="cursor: default; opacity: 1;"><rect joint-selector="rect" id="v-7630" fill="#ffffff" rx="3" ry="3" pointer-events="none" width="139.54998779296875" height="87.60000228881836" transform="matrix(1,0,0,1,-68.5999984741211,-43.79999923706055)"></rect><text joint-selector="text" id="v-7629" font-size="24px" xml:space="preserve" y="0.8em" fill="#707070" text-anchor="middle" pointer-events="none" font-family="Roboto" font-weight="normal" transform="matrix(1,0,0,1,0,-39)"><tspan  dy="0">retrieves and</tspan><tspan dy="1.2em" x="0" >displays drift</tspan><tspan dy="1.2em" x="0" >notifications</tspan></text></g><g id="v-7628"  label-idx="1" cursor="move" transform="matrix(1,0,0,1,2269.930908203125,357.6603698730469)" style="cursor: default; opacity: 1;"><rect joint-selector="rect" id="v-7632" fill="#ffffff" rx="3" ry="3"  width="0" height="0" transform="matrix(1,0,0,1,0,0)" display="none"></rect><text joint-selector="text" id="v-7631" fill="#000000" font-size="14" text-anchor="middle" pointer-events="none"></text></g></g><g  display="none"><g  transform="translate(1295, 185)" id="v-7622"><circle  idx="0" r="10"></circle><path  idx="0" d="M16,5.333c-7.732,0-14,4.701-14,10.5c0,1.982,0.741,3.833,2.016,5.414L2,25.667l5.613-1.441c2.339,1.317,5.237,2.107,8.387,2.107c7.732,0,14-4.701,14-10.5C30,10.034,23.732,5.333,16,5.333z" transform="translate(5, -33)"></path><path  idx="0" transform="scale(.8) translate(9.5, -37)" d="M24.778,21.419 19.276,15.917 24.777,10.415 21.949,7.585 16.447,13.087 10.945,7.585 8.117,10.415 13.618,15.917 8.116,21.419 10.946,24.248 16.447,18.746 21.948,24.248z"><title>Remove vertex.</title></path></g><g  transform="translate(1295, 280)" id="v-7623"><circle  idx="1" r="10"></circle><path  idx="1" d="M16,5.333c-7.732,0-14,4.701-14,10.5c0,1.982,0.741,3.833,2.016,5.414L2,25.667l5.613-1.441c2.339,1.317,5.237,2.107,8.387,2.107c7.732,0,14-4.701,14-10.5C30,10.034,23.732,5.333,16,5.333z" transform="translate(5, -33)"></path><path  idx="1" transform="scale(.8) translate(9.5, -37)" d="M24.778,21.419 19.276,15.917 24.777,10.415 21.949,7.585 16.447,13.087 10.945,7.585 8.117,10.415 13.618,15.917 8.116,21.419 10.946,24.248 16.447,18.746 21.948,24.248z"><title>Remove vertex.</title></path></g><g  transform="translate(2280, 280)" id="v-7624"><circle  idx="2" r="10"></circle><path  idx="2" d="M16,5.333c-7.732,0-14,4.701-14,10.5c0,1.982,0.741,3.833,2.016,5.414L2,25.667l5.613-1.441c2.339,1.317,5.237,2.107,8.387,2.107c7.732,0,14-4.701,14-10.5C30,10.034,23.732,5.333,16,5.333z" transform="translate(5, -33)"></path><path  idx="2" transform="scale(.8) translate(9.5, -37)" d="M24.778,21.419 19.276,15.917 24.777,10.415 21.949,7.585 16.447,13.087 10.945,7.585 8.117,10.415 13.618,15.917 8.116,21.419 10.946,24.248 16.447,18.746 21.948,24.248z"><title>Remove vertex.</title></path></g></g><g  id="v-7637" display="none"><g  id="v-7625"><path  end="source" d="M 26 0 L 0 13 L 26 26 z"></path></g><g  id="v-7626"><path  end="target" d="M 26 0 L 0 13 L 26 26 z"></path></g></g><g  id="v-7636" display="none"><g  id="v-7621" transform="translate(1044.9977042792852, 182.42854683156378) "><g  event="remove"><circle r="11"></circle><path transform="scale(.8) translate(-16, -16)" d="M24.778,21.419 19.276,15.917 24.777,10.415 21.949,7.585 16.447,13.087 10.945,7.585 8.117,10.415 13.618,15.917 8.116,21.419 10.946,24.248 16.447,18.746 21.948,24.248z"></path><title>Remove link.</title></g><g  event="link:options"><circle r="11" transform="translate(25)"></circle><path fill="white" transform="scale(.55) translate(29, -16)" d="M31.229,17.736c0.064-0.571,0.104-1.148,0.104-1.736s-0.04-1.166-0.104-1.737l-4.377-1.557c-0.218-0.716-0.504-1.401-0.851-2.05l1.993-4.192c-0.725-0.91-1.549-1.734-2.458-2.459l-4.193,1.994c-0.647-0.347-1.334-0.632-2.049-0.849l-1.558-4.378C17.165,0.708,16.588,0.667,16,0.667s-1.166,0.041-1.737,0.105L12.707,5.15c-0.716,0.217-1.401,0.502-2.05,0.849L6.464,4.005C5.554,4.73,4.73,5.554,4.005,6.464l1.994,4.192c-0.347,0.648-0.632,1.334-0.849,2.05l-4.378,1.557C0.708,14.834,0.667,15.412,0.667,16s0.041,1.165,0.105,1.736l4.378,1.558c0.217,0.715,0.502,1.401,0.849,2.049l-1.994,4.193c0.725,0.909,1.549,1.733,2.459,2.458l4.192-1.993c0.648,0.347,1.334,0.633,2.05,0.851l1.557,4.377c0.571,0.064,1.148,0.104,1.737,0.104c0.588,0,1.165-0.04,1.736-0.104l1.558-4.377c0.715-0.218,1.399-0.504,2.049-0.851l4.193,1.993c0.909-0.725,1.733-1.549,2.458-2.458l-1.993-4.193c0.347-0.647,0.633-1.334,0.851-2.049L31.229,17.736zM16,20.871c-2.69,0-4.872-2.182-4.872-4.871c0-2.69,2.182-4.872,4.872-4.872c2.689,0,4.871,2.182,4.871,4.872C20.871,18.689,18.689,20.871,16,20.871z"></path><title>Link options.</title></g></g></g></g><g   id="j_211" ><path  stroke="#707070" d="M 868 1650 L 1357 1055" id="v-7650" stroke-width="2" stroke-dasharray="30 30" fill="none" style="opacity: 1;"></path><path  fill="black" stroke="black" d="M 0 0 0 0" transform="matrix(0.6346542835235596,-0.7727961540222168,0.7727961540222168,0.6346542835235596,868.1799926757812,1650)"></path><path  fill="#707070" stroke="#707070" d="M 20 0 L 0 10 L 20 20 z" id="v-7652" transform="matrix(-0.6346541047096252,0.7727963328361511,-0.7727963328361511,-0.6346541047096252,1364.5479736328125,1061.346435546875)" style="opacity: 1;"></path><path  d="M 868 1650 L 1357 1055" id="v-7651" fill="none" style="cursor: default;"></path><g ><g id="v-7644"  label-idx="0" cursor="move" transform="matrix(1,0,0,1,1112.5,1352.5)" style="cursor: default; opacity: 1;"><rect joint-selector="rect" id="v-7647" fill="#ffffff" rx="3" ry="3" pointer-events="none" width="163.39999389648438" height="87.60000228881836" transform="matrix(1,0,0,1,-81.5,-43.79999923706055)"></rect><text joint-selector="text" id="v-7646" font-size="24px" xml:space="preserve" y="0.8em" fill="#707070" text-anchor="middle" pointer-events="none" font-family="Roboto" font-weight="normal" transform="matrix(1,0,0,1,0,-39)"><tspan  dy="0">Serve 'best'</tspan><tspan dy="1.2em" x="0" >selected model</tspan><tspan dy="1.2em" x="0" >via OSCAR</tspan></text></g><g id="v-7645"  label-idx="1" cursor="move" transform="matrix(1,0,0,1,1102.5,1409.5)" style="cursor: default; opacity: 1;"><rect joint-selector="rect" id="v-7649" fill="#ffffff" rx="3" ry="3"  width="0" height="0" transform="matrix(1,0,0,1,0,0)" display="none"></rect><text joint-selector="text" id="v-7648" fill="#000000" font-size="14" text-anchor="middle" pointer-events="none"></text></g></g><g  display="none"></g><g  id="v-7654" display="none"><g  id="v-7642"><path  end="source" d="M 26 0 L 0 13 L 26 26 z"></path></g><g  id="v-7643"><path  end="target" d="M 26 0 L 0 13 L 26 26 z"></path></g></g><g  id="v-7653" display="none"><g  id="v-7641" transform="translate(893.3973291490616, 1619.0973193380537) "><g  event="remove"><circle r="11"></circle><path transform="scale(.8) translate(-16, -16)" d="M24.778,21.419 19.276,15.917 24.777,10.415 21.949,7.585 16.447,13.087 10.945,7.585 8.117,10.415 13.618,15.917 8.116,21.419 10.946,24.248 16.447,18.746 21.948,24.248z"></path><title>Remove link.</title></g><g  event="link:options"><circle r="11" transform="translate(25)"></circle><path fill="white" transform="scale(.55) translate(29, -16)" d="M31.229,17.736c0.064-0.571,0.104-1.148,0.104-1.736s-0.04-1.166-0.104-1.737l-4.377-1.557c-0.218-0.716-0.504-1.401-0.851-2.05l1.993-4.192c-0.725-0.91-1.549-1.734-2.458-2.459l-4.193,1.994c-0.647-0.347-1.334-0.632-2.049-0.849l-1.558-4.378C17.165,0.708,16.588,0.667,16,0.667s-1.166,0.041-1.737,0.105L12.707,5.15c-0.716,0.217-1.401,0.502-2.05,0.849L6.464,4.005C5.554,4.73,4.73,5.554,4.005,6.464l1.994,4.192c-0.347,0.648-0.632,1.334-0.849,2.05l-4.378,1.557C0.708,14.834,0.667,15.412,0.667,16s0.041,1.165,0.105,1.736l4.378,1.558c0.217,0.715,0.502,1.401,0.849,2.049l-1.994,4.193c0.725,0.909,1.549,1.733,2.459,2.458l4.192-1.993c0.648,0.347,1.334,0.633,2.05,0.851l1.557,4.377c0.571,0.064,1.148,0.104,1.737,0.104c0.588,0,1.165-0.04,1.736-0.104l1.558-4.377c0.715-0.218,1.399-0.504,2.049-0.851l4.193,1.993c0.909-0.725,1.733-1.549,2.458-2.458l-1.993-4.193c0.347-0.647,0.633-1.334,0.851-2.049L31.229,17.736zM16,20.871c-2.69,0-4.872-2.182-4.872-4.871c0-2.69,2.182-4.872,4.872-4.872c2.689,0,4.871,2.182,4.871,4.872C20.871,18.689,18.689,20.871,16,20.871z"></path><title>Link options.</title></g></g></g></g><g   id="j_212" ><path  stroke="#707070" d="M 970 1809 L 1250 1821" id="v-7667" stroke-width="2" stroke-dasharray="30 30" fill="none" style="opacity: 1;"></path><path  fill="black" stroke="black" d="M 0 0 0 0" transform="matrix(0.9991576075553894,0.041036833077669144,-0.041036833077669144,0.9991576075553894,970,1809.25)"></path><path  fill="#707070" stroke="#707070" d="M 20 0 L 0 10 L 20 20 z" id="v-7669" transform="matrix(-0.9991576075553894,-0.04103684052824974,0.04103684052824974,-0.9991576075553894,1249.589599609375,1830.7415771484375)" style="opacity: 1;"></path><path  d="M 970 1809 L 1250 1821" id="v-7668" fill="none" style="cursor: default;"></path><g ><g id="v-7661"  label-idx="0" cursor="move" transform="matrix(1,0,0,1,1110,1815)" style="cursor: default; opacity: 1;"><rect joint-selector="rect" id="v-7664" fill="#ffffff" rx="3" ry="3" pointer-events="none" width="177.79998779296875" height="87.60000228881836" transform="matrix(1,0,0,1,-87.69999694824219,-43.79999923706055)"></rect><text joint-selector="text" id="v-7663" font-size="24px" xml:space="preserve" y="0.8em" fill="#707070" text-anchor="middle" pointer-events="none" font-family="Roboto" font-weight="normal" transform="matrix(1,0,0,1,0,-39)"><tspan  dy="0">Provide model</tspan><tspan dy="1.2em" x="0" >versions for drift</tspan><tspan dy="1.2em" x="0" >analysis</tspan></text></g><g id="v-7662"  label-idx="1" cursor="move" transform="matrix(1,0,0,1,1100,1872)" style="cursor: default; opacity: 1;"><rect joint-selector="rect" id="v-7666" fill="#ffffff" rx="3" ry="3"  width="0" height="0" transform="matrix(1,0,0,1,0,0)" display="none"></rect><text joint-selector="text" id="v-7665" fill="#000000" font-size="14" text-anchor="middle" pointer-events="none"></text></g></g><g  display="none"></g><g  id="v-7671" display="none"><g  id="v-7659"><path  end="source" d="M 26 0 L 0 13 L 26 26 z"></path></g><g  id="v-7660"><path  end="target" d="M 26 0 L 0 13 L 26 26 z"></path></g></g><g  id="v-7670" display="none"><g  id="v-7658" transform="translate(1009.9633158327067, 1810.7127135356875) "><g  event="remove"><circle r="11"></circle><path transform="scale(.8) translate(-16, -16)" d="M24.778,21.419 19.276,15.917 24.777,10.415 21.949,7.585 16.447,13.087 10.945,7.585 8.117,10.415 13.618,15.917 8.116,21.419 10.946,24.248 16.447,18.746 21.948,24.248z"></path><title>Remove link.</title></g><g  event="link:options"><circle r="11" transform="translate(25)"></circle><path fill="white" transform="scale(.55) translate(29, -16)" d="M31.229,17.736c0.064-0.571,0.104-1.148,0.104-1.736s-0.04-1.166-0.104-1.737l-4.377-1.557c-0.218-0.716-0.504-1.401-0.851-2.05l1.993-4.192c-0.725-0.91-1.549-1.734-2.458-2.459l-4.193,1.994c-0.647-0.347-1.334-0.632-2.049-0.849l-1.558-4.378C17.165,0.708,16.588,0.667,16,0.667s-1.166,0.041-1.737,0.105L12.707,5.15c-0.716,0.217-1.401,0.502-2.05,0.849L6.464,4.005C5.554,4.73,4.73,5.554,4.005,6.464l1.994,4.192c-0.347,0.648-0.632,1.334-0.849,2.05l-4.378,1.557C0.708,14.834,0.667,15.412,0.667,16s0.041,1.165,0.105,1.736l4.378,1.558c0.217,0.715,0.502,1.401,0.849,2.049l-1.994,4.193c0.725,0.909,1.549,1.733,2.459,2.458l4.192-1.993c0.648,0.347,1.334,0.633,2.05,0.851l1.557,4.377c0.571,0.064,1.148,0.104,1.737,0.104c0.588,0,1.165-0.04,1.736-0.104l1.558-4.377c0.715-0.218,1.399-0.504,2.049-0.851l4.193,1.993c0.909-0.725,1.733-1.549,2.458-2.458l-1.993-4.193c0.347-0.647,0.633-1.334,0.851-2.049L31.229,17.736zM16,20.871c-2.69,0-4.872-2.182-4.872-4.871c0-2.69,2.182-4.872,4.872-4.872c2.689,0,4.871,2.182,4.871,4.872C20.871,18.689,18.689,20.871,16,20.871z"></path><title>Link options.</title></g></g></g></g><g   id="j_213" ><path  stroke="#707070" d="M 1479 1055 L 1476 1680" id="v-7684" stroke-width="2" stroke-dasharray="30 30" fill="none" style="opacity: 1;"></path><path  fill="black" stroke="black" d="M 0 0 0 0" transform="matrix(-0.005407921504229307,0.99998539686203,-0.99998539686203,-0.005407921504229307,1479.18994140625,1055)"></path><path  fill="#707070" stroke="#707070" d="M 20 0 L 0 10 L 20 20 z" id="v-7686" transform="matrix(0.005407788325101137,-0.99998539686203,0.99998539686203,0.005407788325101137,1465.8101806640625,1679.9459228515625)" style="opacity: 1;"></path><path  d="M 1479 1055 L 1476 1680" id="v-7685" fill="none" style="cursor: default;"></path><g ><g id="v-7678"  label-idx="0" cursor="move" transform="matrix(1,0,0,1,1477.5,1367.5)" style="cursor: default; opacity: 1;"><rect joint-selector="rect" id="v-7681" fill="#ffffff" rx="3" ry="3" pointer-events="none" width="120.79999542236328" height="87.60000228881836" transform="matrix(1,0,0,1,-60.400001525878906,-43.79999923706055)"></rect><text joint-selector="text" id="v-7680" font-size="24px" xml:space="preserve" y="0.8em" fill="#707070" text-anchor="middle" pointer-events="none" font-family="Roboto" font-weight="normal" transform="matrix(1,0,0,1,0,-39)"><tspan  dy="0">Sends data</tspan><tspan dy="1.2em" x="0" >distribution</tspan><tspan dy="1.2em" x="0" >updates to</tspan></text></g><g id="v-7679"  label-idx="1" cursor="move" transform="matrix(1,0,0,1,1467.5,1424.5)" style="cursor: default; opacity: 1;"><rect joint-selector="rect" id="v-7683" fill="#ffffff" rx="3" ry="3"  width="0" height="0" transform="matrix(1,0,0,1,0,0)" display="none"></rect><text joint-selector="text" id="v-7682" fill="#000000" font-size="14" text-anchor="middle" pointer-events="none"></text></g></g><g  display="none"></g><g  id="v-7688" display="none"><g  id="v-7676"><path  end="source" d="M 26 0 L 0 13 L 26 26 z"></path></g><g  id="v-7677"><path  end="target" d="M 26 0 L 0 13 L 26 26 z"></path></g></g><g  id="v-7687" display="none"><g  id="v-7675" transform="translate(1478.8080022118017, 1094.9995392079625) "><g  event="remove"><circle r="11"></circle><path transform="scale(.8) translate(-16, -16)" d="M24.778,21.419 19.276,15.917 24.777,10.415 21.949,7.585 16.447,13.087 10.945,7.585 8.117,10.415 13.618,15.917 8.116,21.419 10.946,24.248 16.447,18.746 21.948,24.248z"></path><title>Remove link.</title></g><g  event="link:options"><circle r="11" transform="translate(25)"></circle><path fill="white" transform="scale(.55) translate(29, -16)" d="M31.229,17.736c0.064-0.571,0.104-1.148,0.104-1.736s-0.04-1.166-0.104-1.737l-4.377-1.557c-0.218-0.716-0.504-1.401-0.851-2.05l1.993-4.192c-0.725-0.91-1.549-1.734-2.458-2.459l-4.193,1.994c-0.647-0.347-1.334-0.632-2.049-0.849l-1.558-4.378C17.165,0.708,16.588,0.667,16,0.667s-1.166,0.041-1.737,0.105L12.707,5.15c-0.716,0.217-1.401,0.502-2.05,0.849L6.464,4.005C5.554,4.73,4.73,5.554,4.005,6.464l1.994,4.192c-0.347,0.648-0.632,1.334-0.849,2.05l-4.378,1.557C0.708,14.834,0.667,15.412,0.667,16s0.041,1.165,0.105,1.736l4.378,1.558c0.217,0.715,0.502,1.401,0.849,2.049l-1.994,4.193c0.725,0.909,1.549,1.733,2.459,2.458l4.192-1.993c0.648,0.347,1.334,0.633,2.05,0.851l1.557,4.377c0.571,0.064,1.148,0.104,1.737,0.104c0.588,0,1.165-0.04,1.736-0.104l1.558-4.377c0.715-0.218,1.399-0.504,2.049-0.851l4.193,1.993c0.909-0.725,1.733-1.549,2.458-2.458l-1.993-4.193c0.347-0.647,0.633-1.334,0.851-2.049L31.229,17.736zM16,20.871c-2.69,0-4.872-2.182-4.872-4.871c0-2.69,2.182-4.872,4.872-4.872c2.689,0,4.871,2.182,4.871,4.872C20.871,18.689,18.689,20.871,16,20.871z"></path><title>Link options.</title></g></g></g></g><g   id="j_214" ><path  stroke="#707070" d="M 2495 1830 L 2840 1830 C 2846.6666666666665 1830 2850 1826.6666666666665 2850 1820 L 2845 195 C 2845 188.33333333333331 2841.6666666666665 185 2835 185 L 1005 181" id="v-7703" stroke-width="2" stroke-dasharray="30 30" fill="none" style="opacity: 1;"></path><path  fill="black" stroke="black" d="M 0 0 0 0" transform="matrix(1,0,0,1,2495,1830)"></path><path  fill="#707070" stroke="#707070" d="M 20 0 L 0 10 L 20 20 z" id="v-7705" transform="matrix(0.999997079372406,0.002423906000331044,-0.002423906000331044,0.999997079372406,1005.0242919921875,170.54002380371094)" style="opacity: 1;"></path><path  d="M 2495 1830 L 2840 1830 C 2846.6666666666665 1830 2850 1826.6666666666665 2850 1820 L 2845 195 C 2845 188.33333333333331 2841.6666666666665 185 2835 185 L 1005 181" id="v-7704" fill="none" style="cursor: default;"></path><g ><g id="v-7697"  label-idx="0" cursor="move" transform="matrix(1,0,0,1,2845.21533203125,265.0013427734375)" style="cursor: default; opacity: 1;"><rect joint-selector="rect" id="v-7700" fill="#ffffff" rx="3" ry="3" pointer-events="none" width="171.99998474121094" height="87.60000228881836" transform="matrix(1,0,0,1,-86,-43.79999923706055)"></rect><text joint-selector="text" id="v-7699" font-size="24px" xml:space="preserve" y="0.8em" fill="#707070" text-anchor="middle" pointer-events="none" font-family="Roboto" font-weight="normal" transform="matrix(1,0,0,1,0,-39)"><tspan  dy="0">Triggers actions</tspan><tspan dy="1.2em" x="0" >upon detecting</tspan><tspan dy="1.2em" x="0" >drift</tspan></text></g><g id="v-7698"  label-idx="1" cursor="move" transform="matrix(1,0,0,1,2835.21533203125,322.0013427734375)" style="cursor: default; opacity: 1;"><rect joint-selector="rect" id="v-7702" fill="#ffffff" rx="3" ry="3"  width="0" height="0" transform="matrix(1,0,0,1,0,0)" display="none"></rect><text joint-selector="text" id="v-7701" fill="#000000" font-size="14" text-anchor="middle" pointer-events="none"></text></g></g><g  display="none"><g  transform="translate(2850, 1830)" id="v-7693"><circle  idx="0" r="10"></circle><path  idx="0" d="M16,5.333c-7.732,0-14,4.701-14,10.5c0,1.982,0.741,3.833,2.016,5.414L2,25.667l5.613-1.441c2.339,1.317,5.237,2.107,8.387,2.107c7.732,0,14-4.701,14-10.5C30,10.034,23.732,5.333,16,5.333z" transform="translate(5, -33)"></path><path  idx="0" transform="scale(.8) translate(9.5, -37)" d="M24.778,21.419 19.276,15.917 24.777,10.415 21.949,7.585 16.447,13.087 10.945,7.585 8.117,10.415 13.618,15.917 8.116,21.419 10.946,24.248 16.447,18.746 21.948,24.248z"><title>Remove vertex.</title></path></g><g  transform="translate(2845, 185)" id="v-7694"><circle  idx="1" r="10"></circle><path  idx="1" d="M16,5.333c-7.732,0-14,4.701-14,10.5c0,1.982,0.741,3.833,2.016,5.414L2,25.667l5.613-1.441c2.339,1.317,5.237,2.107,8.387,2.107c7.732,0,14-4.701,14-10.5C30,10.034,23.732,5.333,16,5.333z" transform="translate(5, -33)"></path><path  idx="1" transform="scale(.8) translate(9.5, -37)" d="M24.778,21.419 19.276,15.917 24.777,10.415 21.949,7.585 16.447,13.087 10.945,7.585 8.117,10.415 13.618,15.917 8.116,21.419 10.946,24.248 16.447,18.746 21.948,24.248z"><title>Remove vertex.</title></path></g></g><g  id="v-7707" display="none"><g  id="v-7695"><path  end="source" d="M 26 0 L 0 13 L 26 26 z"></path></g><g  id="v-7696"><path  end="target" d="M 26 0 L 0 13 L 26 26 z"></path></g></g><g  id="v-7706" display="none"><g  id="v-7692" transform="translate(2535, 1830) "><g  event="remove"><circle r="11"></circle><path transform="scale(.8) translate(-16, -16)" d="M24.778,21.419 19.276,15.917 24.777,10.415 21.949,7.585 16.447,13.087 10.945,7.585 8.117,10.415 13.618,15.917 8.116,21.419 10.946,24.248 16.447,18.746 21.948,24.248z"></path><title>Remove link.</title></g><g  event="link:options"><circle r="11" transform="translate(25)"></circle><path fill="white" transform="scale(.55) translate(29, -16)" d="M31.229,17.736c0.064-0.571,0.104-1.148,0.104-1.736s-0.04-1.166-0.104-1.737l-4.377-1.557c-0.218-0.716-0.504-1.401-0.851-2.05l1.993-4.192c-0.725-0.91-1.549-1.734-2.458-2.459l-4.193,1.994c-0.647-0.347-1.334-0.632-2.049-0.849l-1.558-4.378C17.165,0.708,16.588,0.667,16,0.667s-1.166,0.041-1.737,0.105L12.707,5.15c-0.716,0.217-1.401,0.502-2.05,0.849L6.464,4.005C5.554,4.73,4.73,5.554,4.005,6.464l1.994,4.192c-0.347,0.648-0.632,1.334-0.849,2.05l-4.378,1.557C0.708,14.834,0.667,15.412,0.667,16s0.041,1.165,0.105,1.736l4.378,1.558c0.217,0.715,0.502,1.401,0.849,2.049l-1.994,4.193c0.725,0.909,1.549,1.733,2.459,2.458l4.192-1.993c0.648,0.347,1.334,0.633,2.05,0.851l1.557,4.377c0.571,0.064,1.148,0.104,1.737,0.104c0.588,0,1.165-0.04,1.736-0.104l1.558-4.377c0.715-0.218,1.399-0.504,2.049-0.851l4.193,1.993c0.909-0.725,1.733-1.549,2.458-2.458l-1.993-4.193c0.347-0.647,0.633-1.334,0.851-2.049L31.229,17.736zM16,20.871c-2.69,0-4.872-2.182-4.872-4.871c0-2.69,2.182-4.872,4.872-4.872c2.689,0,4.871,2.182,4.871,4.872C20.871,18.689,18.689,20.871,16,20.871z"></path><title>Link options.</title></g></g></g></g><g   id="j_215" ><path  stroke="#707070" d="M 1700 1830 L 2045 1830" id="v-7720" stroke-width="2" stroke-dasharray="30 30" fill="none" style="opacity: 1;"></path><path  fill="black" stroke="black" d="M 0 0 0 0" transform="matrix(1,0,0,1,1700,1830)"></path><path  fill="#707070" stroke="#707070" d="M 20 0 L 0 10 L 20 20 z" id="v-7722" transform="matrix(-1,1.2246468525851679e-16,-1.2246468525851679e-16,-1,2045,1840)" style="opacity: 1;"></path><path  d="M 1700 1830 L 2045 1830" id="v-7721" fill="none" style="cursor: default;"></path><g ><g id="v-7714"  label-idx="0" cursor="move" transform="matrix(1,0,0,1,1872.5,1830)" style="cursor: default; opacity: 1;"><rect joint-selector="rect" id="v-7717" fill="#ffffff" rx="3" ry="3" pointer-events="none" width="151.6999969482422" height="58.79999923706055" transform="matrix(1,0,0,1,-75.80000305175781,-29.399999618530273)"></rect><text joint-selector="text" id="v-7716" font-size="24px" xml:space="preserve" y="0.8em" fill="#707070" text-anchor="middle" pointer-events="none" font-family="Roboto" font-weight="normal" transform="matrix(1,0,0,1,0,-24.600000381469727)"><tspan  dy="0">push detected</tspan><tspan dy="1.2em" x="0" >drifts</tspan></text></g><g id="v-7715"  label-idx="1" cursor="move" transform="matrix(1,0,0,1,1862.5,1872)" style="cursor: default; opacity: 1;"><rect joint-selector="rect" id="v-7719" fill="#ffffff" rx="3" ry="3"  width="0" height="0" transform="matrix(1,0,0,1,0,0)" display="none"></rect><text joint-selector="text" id="v-7718" fill="#000000" font-size="14" text-anchor="middle" pointer-events="none"></text></g></g><g  display="none"></g><g  id="v-7724" display="none"><g  id="v-7712"><path  end="source" d="M 26 0 L 0 13 L 26 26 z"></path></g><g  id="v-7713"><path  end="target" d="M 26 0 L 0 13 L 26 26 z"></path></g></g><g  id="v-7723" display="none"><g  id="v-7711" transform="translate(1740, 1830) "><g  event="remove"><circle r="11"></circle><path transform="scale(.8) translate(-16, -16)" d="M24.778,21.419 19.276,15.917 24.777,10.415 21.949,7.585 16.447,13.087 10.945,7.585 8.117,10.415 13.618,15.917 8.116,21.419 10.946,24.248 16.447,18.746 21.948,24.248z"></path><title>Remove link.</title></g><g  event="link:options"><circle r="11" transform="translate(25)"></circle><path fill="white" transform="scale(.55) translate(29, -16)" d="M31.229,17.736c0.064-0.571,0.104-1.148,0.104-1.736s-0.04-1.166-0.104-1.737l-4.377-1.557c-0.218-0.716-0.504-1.401-0.851-2.05l1.993-4.192c-0.725-0.91-1.549-1.734-2.458-2.459l-4.193,1.994c-0.647-0.347-1.334-0.632-2.049-0.849l-1.558-4.378C17.165,0.708,16.588,0.667,16,0.667s-1.166,0.041-1.737,0.105L12.707,5.15c-0.716,0.217-1.401,0.502-2.05,0.849L6.464,4.005C5.554,4.73,4.73,5.554,4.005,6.464l1.994,4.192c-0.347,0.648-0.632,1.334-0.849,2.05l-4.378,1.557C0.708,14.834,0.667,15.412,0.667,16s0.041,1.165,0.105,1.736l4.378,1.558c0.217,0.715,0.502,1.401,0.849,2.049l-1.994,4.193c0.725,0.909,1.549,1.733,2.459,2.458l4.192-1.993c0.648,0.347,1.334,0.633,2.05,0.851l1.557,4.377c0.571,0.064,1.148,0.104,1.737,0.104c0.588,0,1.165-0.04,1.736-0.104l1.558-4.377c0.715-0.218,1.399-0.504,2.049-0.851l4.193,1.993c0.909-0.725,1.733-1.549,2.458-2.458l-1.993-4.193c0.347-0.647,0.633-1.334,0.851-2.049L31.229,17.736zM16,20.871c-2.69,0-4.872-2.182-4.872-4.871c0-2.69,2.182-4.872,4.872-4.872c2.689,0,4.871,2.182,4.871,4.872C20.871,18.689,18.689,20.871,16,20.871z"></path><title>Link options.</title></g></g></g></g><g   id="j_216" ><path  stroke="#707070" d="M 258 670 L 265 185 C 265 178.33333333333331 268.3333333333333 175 275 175 L 555 178" id="v-7738" stroke-width="2" stroke-dasharray="30 30" fill="none" style="opacity: 1;"></path><path  fill="black" stroke="black" d="M 0 0 0 0" transform="matrix(0.014382172375917435,-0.9998965859413147,0.9998965859413147,0.014382172375917435,257.8800048828125,670)"></path><path  fill="#707070" stroke="#707070" d="M 20 0 L 0 10 L 20 20 z" id="v-7740" transform="matrix(-0.9999527335166931,-0.009723580442368984,0.009723580442368984,-0.9999527335166931,554.9027709960938,187.81951904296875)" style="opacity: 1;"></path><path  d="M 258 670 L 265 185 C 265 178.33333333333331 268.3333333333333 175 275 175 L 555 178" id="v-7739" fill="none" style="cursor: default;"></path><g ><g id="v-7732"  label-idx="0" cursor="move" transform="matrix(1,0,0,1,263.63763427734375,279.39208984375)" style="cursor: default; opacity: 1;"><rect joint-selector="rect" id="v-7735" fill="#ffffff" rx="3" ry="3" pointer-events="none" width="167" height="87.60000228881836" transform="matrix(1,0,0,1,-82.19999694824219,-43.79999923706055)"></rect><text joint-selector="text" id="v-7734" font-size="24px" xml:space="preserve" y="0.8em" fill="#707070" text-anchor="middle" pointer-events="none" font-family="Roboto" font-weight="normal" transform="matrix(1,0,0,1,0,-39)"><tspan  dy="0">Reuse, develop,</tspan><tspan dy="1.2em" x="0" >publish new AI</tspan><tspan dy="1.2em" x="0" >models</tspan></text></g><g id="v-7733"  label-idx="1" cursor="move" transform="matrix(1,0,0,1,253.63763427734375,336.39208984375)" style="cursor: default; opacity: 1;"><rect joint-selector="rect" id="v-7737" fill="#ffffff" rx="3" ry="3"  width="0" height="0" transform="matrix(1,0,0,1,0,0)" display="none"></rect><text joint-selector="text" id="v-7736" fill="#000000" font-size="14" text-anchor="middle" pointer-events="none"></text></g></g><g  display="none"><g  transform="translate(265, 175)" id="v-7729"><circle  idx="0" r="10"></circle><path  idx="0" d="M16,5.333c-7.732,0-14,4.701-14,10.5c0,1.982,0.741,3.833,2.016,5.414L2,25.667l5.613-1.441c2.339,1.317,5.237,2.107,8.387,2.107c7.732,0,14-4.701,14-10.5C30,10.034,23.732,5.333,16,5.333z" transform="translate(5, -33)"></path><path  idx="0" transform="scale(.8) translate(9.5, -37)" d="M24.778,21.419 19.276,15.917 24.777,10.415 21.949,7.585 16.447,13.087 10.945,7.585 8.117,10.415 13.618,15.917 8.116,21.419 10.946,24.248 16.447,18.746 21.948,24.248z"><title>Remove vertex.</title></path></g></g><g  id="v-7742" display="none"><g  id="v-7730"><path  end="source" d="M 26 0 L 0 13 L 26 26 z"></path></g><g  id="v-7731"><path  end="target" d="M 26 0 L 0 13 L 26 26 z"></path></g></g><g  id="v-7741" display="none"><g  id="v-7728" transform="translate(258.57725946595616, 630.0041655730379) "><g  event="remove"><circle r="11"></circle><path transform="scale(.8) translate(-16, -16)" d="M24.778,21.419 19.276,15.917 24.777,10.415 21.949,7.585 16.447,13.087 10.945,7.585 8.117,10.415 13.618,15.917 8.116,21.419 10.946,24.248 16.447,18.746 21.948,24.248z"></path><title>Remove link.</title></g><g  event="link:options"><circle r="11" transform="translate(25)"></circle><path fill="white" transform="scale(.55) translate(29, -16)" d="M31.229,17.736c0.064-0.571,0.104-1.148,0.104-1.736s-0.04-1.166-0.104-1.737l-4.377-1.557c-0.218-0.716-0.504-1.401-0.851-2.05l1.993-4.192c-0.725-0.91-1.549-1.734-2.458-2.459l-4.193,1.994c-0.647-0.347-1.334-0.632-2.049-0.849l-1.558-4.378C17.165,0.708,16.588,0.667,16,0.667s-1.166,0.041-1.737,0.105L12.707,5.15c-0.716,0.217-1.401,0.502-2.05,0.849L6.464,4.005C5.554,4.73,4.73,5.554,4.005,6.464l1.994,4.192c-0.347,0.648-0.632,1.334-0.849,2.05l-4.378,1.557C0.708,14.834,0.667,15.412,0.667,16s0.041,1.165,0.105,1.736l4.378,1.558c0.217,0.715,0.502,1.401,0.849,2.049l-1.994,4.193c0.725,0.909,1.549,1.733,2.459,2.458l4.192-1.993c0.648,0.347,1.334,0.633,2.05,0.851l1.557,4.377c0.571,0.064,1.148,0.104,1.737,0.104c0.588,0,1.165-0.04,1.736-0.104l1.558-4.377c0.715-0.218,1.399-0.504,2.049-0.851l4.193,1.993c0.909-0.725,1.733-1.549,2.458-2.458l-1.993-4.193c0.347-0.647,0.633-1.334,0.851-2.049L31.229,17.736zM16,20.871c-2.69,0-4.872-2.182-4.872-4.871c0-2.69,2.182-4.872,4.872-4.872c2.689,0,4.871,2.182,4.871,4.872C20.871,18.689,18.689,20.871,16,20.871z"></path><title>Link options.</title></g></g></g></g><g   id="j_217" ><path  stroke="#707070" d="M 2405 901 L 1895 905 C 1888.333333333333 904.9999999999999 1881.6666666666665 904.9999999999999 1875 905 L 1705 905" id="v-7756" stroke-width="2" stroke-dasharray="30 30" fill="none" style="opacity: 1;"></path><path  fill="black" stroke="black" d="M 0 0 0 0" transform="matrix(-0.9999759197235107,0.006942272651940584,-0.006942272651940584,-0.9999759197235107,2405,901.3900146484375)"></path><path  fill="#707070" stroke="#707070" d="M 20 0 L 0 10 L 20 20 z" id="v-7758" transform="matrix(1,0,0,1,1705,895)" style="opacity: 1;"></path><path  d="M 2405 901 L 1895 905 C 1888.333333333333 904.9999999999999 1881.6666666666665 904.9999999999999 1875 905 L 1705 905" id="v-7757" fill="none" style="cursor: default;"></path><g ><g id="v-7750"  label-idx="0" cursor="move" transform="matrix(1,0,0,1,2055.0029296875,903.7450561523438)" style="cursor: default; opacity: 1;"><rect joint-selector="rect" id="v-7753" fill="#ffffff" rx="3" ry="3" pointer-events="none" width="155.4499969482422" height="58.79999923706055" transform="matrix(1,0,0,1,-77.69999694824219,-29.399999618530273)"></rect><text joint-selector="text" id="v-7752" font-size="24px" xml:space="preserve" y="0.8em" fill="#707070" text-anchor="middle" pointer-events="none" font-family="Roboto" font-weight="normal" transform="matrix(1,0,0,1,0,-24.600000381469727)"><tspan  dy="0">Uses deployed</tspan><tspan dy="1.2em" x="0" >models from</tspan></text></g><g id="v-7751"  label-idx="1" cursor="move" transform="matrix(1,0,0,1,2045.0029296875,945.7450561523438)" style="cursor: default; opacity: 1;"><rect joint-selector="rect" id="v-7755" fill="#ffffff" rx="3" ry="3"  width="0" height="0" transform="matrix(1,0,0,1,0,0)" display="none"></rect><text joint-selector="text" id="v-7754" fill="#000000" font-size="14" text-anchor="middle" pointer-events="none"></text></g></g><g  display="none"><g  transform="translate(1885, 905)" id="v-7747"><circle  idx="0" r="10"></circle><path  idx="0" d="M16,5.333c-7.732,0-14,4.701-14,10.5c0,1.982,0.741,3.833,2.016,5.414L2,25.667l5.613-1.441c2.339,1.317,5.237,2.107,8.387,2.107c7.732,0,14-4.701,14-10.5C30,10.034,23.732,5.333,16,5.333z" transform="translate(5, -33)"></path><path  idx="0" transform="scale(.8) translate(9.5, -37)" d="M24.778,21.419 19.276,15.917 24.777,10.415 21.949,7.585 16.447,13.087 10.945,7.585 8.117,10.415 13.618,15.917 8.116,21.419 10.946,24.248 16.447,18.746 21.948,24.248z"><title>Remove vertex.</title></path></g></g><g  id="v-7760" display="none"><g  id="v-7748"><path  end="source" d="M 26 0 L 0 13 L 26 26 z"></path></g><g  id="v-7749"><path  end="target" d="M 26 0 L 0 13 L 26 26 z"></path></g></g><g  id="v-7759" display="none"><g  id="v-7746" transform="translate(2365.001230239282, 901.3137158412605) "><g  event="remove"><circle r="11"></circle><path transform="scale(.8) translate(-16, -16)" d="M24.778,21.419 19.276,15.917 24.777,10.415 21.949,7.585 16.447,13.087 10.945,7.585 8.117,10.415 13.618,15.917 8.116,21.419 10.946,24.248 16.447,18.746 21.948,24.248z"></path><title>Remove link.</title></g><g  event="link:options"><circle r="11" transform="translate(25)"></circle><path fill="white" transform="scale(.55) translate(29, -16)" d="M31.229,17.736c0.064-0.571,0.104-1.148,0.104-1.736s-0.04-1.166-0.104-1.737l-4.377-1.557c-0.218-0.716-0.504-1.401-0.851-2.05l1.993-4.192c-0.725-0.91-1.549-1.734-2.458-2.459l-4.193,1.994c-0.647-0.347-1.334-0.632-2.049-0.849l-1.558-4.378C17.165,0.708,16.588,0.667,16,0.667s-1.166,0.041-1.737,0.105L12.707,5.15c-0.716,0.217-1.401,0.502-2.05,0.849L6.464,4.005C5.554,4.73,4.73,5.554,4.005,6.464l1.994,4.192c-0.347,0.648-0.632,1.334-0.849,2.05l-4.378,1.557C0.708,14.834,0.667,15.412,0.667,16s0.041,1.165,0.105,1.736l4.378,1.558c0.217,0.715,0.502,1.401,0.849,2.049l-1.994,4.193c0.725,0.909,1.549,1.733,2.459,2.458l4.192-1.993c0.648,0.347,1.334,0.633,2.05,0.851l1.557,4.377c0.571,0.064,1.148,0.104,1.737,0.104c0.588,0,1.165-0.04,1.736-0.104l1.558-4.377c0.715-0.218,1.399-0.504,2.049-0.851l4.193,1.993c0.909-0.725,1.733-1.549,2.458-2.458l-1.993-4.193c0.347-0.647,0.633-1.334,0.851-2.049L31.229,17.736zM16,20.871c-2.69,0-4.872-2.182-4.872-4.871c0-2.69,2.182-4.872,4.872-4.872c2.689,0,4.871,2.182,4.871,4.872C20.871,18.689,18.689,20.871,16,20.871z"></path><title>Link options.</title></g></g></g></g><g   id="j_218" ><path  stroke="#707070" d="M 255 1070 L 255 1785 C 255 1791.6666666666665 258.3333333333333 1794.9999999999998 265 1795 L 520 1798" id="v-7774" stroke-width="2" stroke-dasharray="30 30" fill="none" style="opacity: 1;"></path><path  fill="black" stroke="black" d="M 0 0 0 0" transform="matrix(6.123234262925839e-17,1,-1,6.123234262925839e-17,255,1070)"></path><path  fill="#707070" stroke="#707070" d="M 20 0 L 0 10 L 20 20 z" id="v-7776" transform="matrix(-0.9999480843544006,-0.010188278742134571,0.010188278742134571,-0.9999480843544006,519.8981323242188,1807.699462890625)" style="opacity: 1;"></path><path  d="M 255 1070 L 255 1785 C 255 1791.6666666666665 258.3333333333333 1794.9999999999998 265 1795 L 520 1798" id="v-7775" fill="none" style="cursor: default;"></path><g ><g id="v-7768"  label-idx="0" cursor="move" transform="matrix(1,0,0,1,255,1563.1241455078125)" style="cursor: default; opacity: 1;"><rect joint-selector="rect" id="v-7771" fill="#ffffff" rx="3" ry="3" pointer-events="none" width="160.6999969482422" height="58.79999923706055" transform="matrix(1,0,0,1,-80.30000305175781,-29.399999618530273)"></rect><text joint-selector="text" id="v-7770" font-size="24px" xml:space="preserve" y="0.8em" fill="#707070" text-anchor="middle" pointer-events="none" font-family="Roboto" font-weight="normal" transform="matrix(1,0,0,1,0,-24.600000381469727)"><tspan  dy="0">creates a new</tspan><tspan dy="1.2em" x="0" >experiment-run</tspan></text></g><g id="v-7769"  label-idx="1" cursor="move" transform="matrix(1,0,0,1,245,1605.1241455078125)" style="cursor: default; opacity: 1;"><rect joint-selector="rect" id="v-7773" fill="#ffffff" rx="3" ry="3"  width="0" height="0" transform="matrix(1,0,0,1,0,0)" display="none"></rect><text joint-selector="text" id="v-7772" fill="#000000" font-size="14" text-anchor="middle" pointer-events="none"></text></g></g><g  display="none"><g  transform="translate(255, 1795)" id="v-7765"><circle  idx="0" r="10"></circle><path  idx="0" d="M16,5.333c-7.732,0-14,4.701-14,10.5c0,1.982,0.741,3.833,2.016,5.414L2,25.667l5.613-1.441c2.339,1.317,5.237,2.107,8.387,2.107c7.732,0,14-4.701,14-10.5C30,10.034,23.732,5.333,16,5.333z" transform="translate(5, -33)"></path><path  idx="0" transform="scale(.8) translate(9.5, -37)" d="M24.778,21.419 19.276,15.917 24.777,10.415 21.949,7.585 16.447,13.087 10.945,7.585 8.117,10.415 13.618,15.917 8.116,21.419 10.946,24.248 16.447,18.746 21.948,24.248z"><title>Remove vertex.</title></path></g></g><g  id="v-7778" display="none"><g  id="v-7766"><path  end="source" d="M 26 0 L 0 13 L 26 26 z"></path></g><g  id="v-7767"><path  end="target" d="M 26 0 L 0 13 L 26 26 z"></path></g></g><g  id="v-7777" display="none"><g  id="v-7764" transform="translate(255, 1110) "><g  event="remove"><circle r="11"></circle><path transform="scale(.8) translate(-16, -16)" d="M24.778,21.419 19.276,15.917 24.777,10.415 21.949,7.585 16.447,13.087 10.945,7.585 8.117,10.415 13.618,15.917 8.116,21.419 10.946,24.248 16.447,18.746 21.948,24.248z"></path><title>Remove link.</title></g><g  event="link:options"><circle r="11" transform="translate(25)"></circle><path fill="white" transform="scale(.55) translate(29, -16)" d="M31.229,17.736c0.064-0.571,0.104-1.148,0.104-1.736s-0.04-1.166-0.104-1.737l-4.377-1.557c-0.218-0.716-0.504-1.401-0.851-2.05l1.993-4.192c-0.725-0.91-1.549-1.734-2.458-2.459l-4.193,1.994c-0.647-0.347-1.334-0.632-2.049-0.849l-1.558-4.378C17.165,0.708,16.588,0.667,16,0.667s-1.166,0.041-1.737,0.105L12.707,5.15c-0.716,0.217-1.401,0.502-2.05,0.849L6.464,4.005C5.554,4.73,4.73,5.554,4.005,6.464l1.994,4.192c-0.347,0.648-0.632,1.334-0.849,2.05l-4.378,1.557C0.708,14.834,0.667,15.412,0.667,16s0.041,1.165,0.105,1.736l4.378,1.558c0.217,0.715,0.502,1.401,0.849,2.049l-1.994,4.193c0.725,0.909,1.549,1.733,2.459,2.458l4.192-1.993c0.648,0.347,1.334,0.633,2.05,0.851l1.557,4.377c0.571,0.064,1.148,0.104,1.737,0.104c0.588,0,1.165-0.04,1.736-0.104l1.558-4.377c0.715-0.218,1.399-0.504,2.049-0.851l4.193,1.993c0.909-0.725,1.733-1.549,2.458-2.458l-1.993-4.193c0.347-0.647,0.633-1.334,0.851-2.049L31.229,17.736zM16,20.871c-2.69,0-4.872-2.182-4.872-4.871c0-2.69,2.182-4.872,4.872-4.872c2.689,0,4.871,2.182,4.871,4.872C20.871,18.689,18.689,20.871,16,20.871z"></path><title>Link options.</title></g></g></g></g><g   id="j_219" ><path  stroke="#707070" d="M 2495 1820 L 2605 1815 C 2611.6666666666665 1815 2615 1811.6666666666665 2615 1805 L 2607 1100" id="v-7792" stroke-width="2" stroke-dasharray="30 30" fill="none" style="opacity: 1;"></path><path  fill="black" stroke="black" d="M 0 0 0 0" transform="matrix(0.9990552067756653,-0.04345868527889252,0.04345868527889252,0.9990552067756653,2495,1820.219970703125)"></path><path  fill="#707070" stroke="#707070" d="M 20 0 L 0 10 L 20 20 z" id="v-7794" transform="matrix(0.01092247199267149,0.9999403357505798,-0.9999403357505798,0.01092247199267149,2617.189453125,1099.8907470703125)" style="opacity: 1;"></path><path  d="M 2495 1820 L 2605 1815 C 2611.6666666666665 1815 2615 1811.6666666666665 2615 1805 L 2607 1100" id="v-7793" fill="none" style="cursor: default;"></path><g ><g id="v-7786"  label-idx="0" cursor="move" transform="matrix(1,0,0,1,2611.716796875,1515.6680908203125)" style="cursor: default; opacity: 1;"><rect joint-selector="rect" id="v-7789" fill="#ffffff" rx="3" ry="3" pointer-events="none" width="166.34999084472656" height="87.60000228881836" transform="matrix(1,0,0,1,-82,-43.79999923706055)"></rect><text joint-selector="text" id="v-7788" font-size="24px" xml:space="preserve" y="0.8em" fill="#707070" text-anchor="middle" pointer-events="none" font-family="Roboto" font-weight="normal" transform="matrix(1,0,0,1,0,-39)"><tspan  dy="0">notifies the</tspan><tspan dy="1.2em" x="0" >end_user about</tspan><tspan dy="1.2em" x="0" >the data drift</tspan></text></g><g id="v-7787"  label-idx="1" cursor="move" transform="matrix(1,0,0,1,2601.716796875,1572.6680908203125)" style="cursor: default; opacity: 1;"><rect joint-selector="rect" id="v-7791" fill="#ffffff" rx="3" ry="3"  width="0" height="0" transform="matrix(1,0,0,1,0,0)" display="none"></rect><text joint-selector="text" id="v-7790" fill="#000000" font-size="14" text-anchor="middle" pointer-events="none"></text></g></g><g  display="none"><g  transform="translate(2615, 1815)" id="v-7783"><circle  idx="0" r="10"></circle><path  idx="0" d="M16,5.333c-7.732,0-14,4.701-14,10.5c0,1.982,0.741,3.833,2.016,5.414L2,25.667l5.613-1.441c2.339,1.317,5.237,2.107,8.387,2.107c7.732,0,14-4.701,14-10.5C30,10.034,23.732,5.333,16,5.333z" transform="translate(5, -33)"></path><path  idx="0" transform="scale(.8) translate(9.5, -37)" d="M24.778,21.419 19.276,15.917 24.777,10.415 21.949,7.585 16.447,13.087 10.945,7.585 8.117,10.415 13.618,15.917 8.116,21.419 10.946,24.248 16.447,18.746 21.948,24.248z"><title>Remove vertex.</title></path></g></g><g  id="v-7796" display="none"><g  id="v-7784"><path  end="source" d="M 26 0 L 0 13 L 26 26 z"></path></g><g  id="v-7785"><path  end="target" d="M 26 0 L 0 13 L 26 26 z"></path></g></g><g  id="v-7795" display="none"><g  id="v-7782" transform="translate(2534.9587416084123, 1818.1836935632539) "><g  event="remove"><circle r="11"></circle><path transform="scale(.8) translate(-16, -16)" d="M24.778,21.419 19.276,15.917 24.777,10.415 21.949,7.585 16.447,13.087 10.945,7.585 8.117,10.415 13.618,15.917 8.116,21.419 10.946,24.248 16.447,18.746 21.948,24.248z"></path><title>Remove link.</title></g><g  event="link:options"><circle r="11" transform="translate(25)"></circle><path fill="white" transform="scale(.55) translate(29, -16)" d="M31.229,17.736c0.064-0.571,0.104-1.148,0.104-1.736s-0.04-1.166-0.104-1.737l-4.377-1.557c-0.218-0.716-0.504-1.401-0.851-2.05l1.993-4.192c-0.725-0.91-1.549-1.734-2.458-2.459l-4.193,1.994c-0.647-0.347-1.334-0.632-2.049-0.849l-1.558-4.378C17.165,0.708,16.588,0.667,16,0.667s-1.166,0.041-1.737,0.105L12.707,5.15c-0.716,0.217-1.401,0.502-2.05,0.849L6.464,4.005C5.554,4.73,4.73,5.554,4.005,6.464l1.994,4.192c-0.347,0.648-0.632,1.334-0.849,2.05l-4.378,1.557C0.708,14.834,0.667,15.412,0.667,16s0.041,1.165,0.105,1.736l4.378,1.558c0.217,0.715,0.502,1.401,0.849,2.049l-1.994,4.193c0.725,0.909,1.549,1.733,2.459,2.458l4.192-1.993c0.648,0.347,1.334,0.633,2.05,0.851l1.557,4.377c0.571,0.064,1.148,0.104,1.737,0.104c0.588,0,1.165-0.04,1.736-0.104l1.558-4.377c0.715-0.218,1.399-0.504,2.049-0.851l4.193,1.993c0.909-0.725,1.733-1.549,2.458-2.458l-1.993-4.193c0.347-0.647,0.633-1.334,0.851-2.049L31.229,17.736zM16,20.871c-2.69,0-4.872-2.182-4.872-4.871c0-2.69,2.182-4.872,4.872-4.872c2.689,0,4.871,2.182,4.871,4.872C20.871,18.689,18.689,20.871,16,20.871z"></path><title>Link options.</title></g></g></g></g><g   id="j_220" ><path  stroke="#707070" d="M 925 330 L 1335 755" id="v-7809" stroke-width="2" stroke-dasharray="30 30" fill="none" style="opacity: 1;"></path><path  fill="black" stroke="black" d="M 0 0 0 0" transform="matrix(0.6945902705192566,0.7194055914878845,-0.7194055914878845,0.6945902705192566,924.8300170898438,330)"></path><path  fill="#707070" stroke="#707070" d="M 20 0 L 0 10 L 20 20 z" id="v-7811" transform="matrix(-0.6945903301239014,-0.719405472278595,0.719405472278595,-0.6945903301239014,1327.9759521484375,761.9459228515625)" style="opacity: 1;"></path><path  d="M 925 330 L 1335 755" id="v-7810" fill="none" style="cursor: default;"></path><g ><g id="v-7803"  label-idx="0" cursor="move" transform="matrix(1,0,0,1,1130,542.5)" style="cursor: default; opacity: 1;"><rect joint-selector="rect" id="v-7806" fill="#ffffff" rx="3" ry="3" pointer-events="none" width="157.6999969482422" height="58.79999923706055" transform="matrix(1,0,0,1,-78.80000305175781,-29.399999618530273)"></rect><text joint-selector="text" id="v-7805" font-size="24px" xml:space="preserve" y="0.8em" fill="#707070" text-anchor="middle" pointer-events="none" font-family="Roboto" font-weight="normal" transform="matrix(1,0,0,1,0,-24.600000381469727)"><tspan  dy="0">Deploy models</tspan><tspan dy="1.2em" x="0" >on</tspan></text></g><g id="v-7804"  label-idx="1" cursor="move" transform="matrix(1,0,0,1,1120,584.5)" style="cursor: default; opacity: 1;"><rect joint-selector="rect" id="v-7808" fill="#ffffff" rx="3" ry="3"  width="0" height="0" transform="matrix(1,0,0,1,0,0)" display="none"></rect><text joint-selector="text" id="v-7807" fill="#000000" font-size="14" text-anchor="middle" pointer-events="none"></text></g></g><g  display="none"></g><g  id="v-7813" display="none"><g  id="v-7801"><path  end="source" d="M 26 0 L 0 13 L 26 26 z"></path></g><g  id="v-7802"><path  end="target" d="M 26 0 L 0 13 L 26 26 z"></path></g></g><g  id="v-7812" display="none"><g  id="v-7800" transform="translate(952.7716898562844, 358.78772729005095) "><g  event="remove"><circle r="11"></circle><path transform="scale(.8) translate(-16, -16)" d="M24.778,21.419 19.276,15.917 24.777,10.415 21.949,7.585 16.447,13.087 10.945,7.585 8.117,10.415 13.618,15.917 8.116,21.419 10.946,24.248 16.447,18.746 21.948,24.248z"></path><title>Remove link.</title></g><g  event="link:options"><circle r="11" transform="translate(25)"></circle><path fill="white" transform="scale(.55) translate(29, -16)" d="M31.229,17.736c0.064-0.571,0.104-1.148,0.104-1.736s-0.04-1.166-0.104-1.737l-4.377-1.557c-0.218-0.716-0.504-1.401-0.851-2.05l1.993-4.192c-0.725-0.91-1.549-1.734-2.458-2.459l-4.193,1.994c-0.647-0.347-1.334-0.632-2.049-0.849l-1.558-4.378C17.165,0.708,16.588,0.667,16,0.667s-1.166,0.041-1.737,0.105L12.707,5.15c-0.716,0.217-1.401,0.502-2.05,0.849L6.464,4.005C5.554,4.73,4.73,5.554,4.005,6.464l1.994,4.192c-0.347,0.648-0.632,1.334-0.849,2.05l-4.378,1.557C0.708,14.834,0.667,15.412,0.667,16s0.041,1.165,0.105,1.736l4.378,1.558c0.217,0.715,0.502,1.401,0.849,2.049l-1.994,4.193c0.725,0.909,1.549,1.733,2.459,2.458l4.192-1.993c0.648,0.347,1.334,0.633,2.05,0.851l1.557,4.377c0.571,0.064,1.148,0.104,1.737,0.104c0.588,0,1.165-0.04,1.736-0.104l1.558-4.377c0.715-0.218,1.399-0.504,2.049-0.851l4.193,1.993c0.909-0.725,1.733-1.549,2.458-2.458l-1.993-4.193c0.347-0.647,0.633-1.334,0.851-2.049L31.229,17.736zM16,20.871c-2.69,0-4.872-2.182-4.872-4.871c0-2.69,2.182-4.872,4.872-4.872c2.689,0,4.871,2.182,4.871,4.872C20.871,18.689,18.689,20.871,16,20.871z"></path><title>Link options.</title></g></g></g></g></g><g ></g><g ></g><g ></g></g></svg>