<svg xmlns="http://www.w3.org/2000/svg" xmlns:xlink="http://www.w3.org/1999/xlink" version="1.1" viewBox="0 0 2480 1748" style="background: #ffffff"><defs><style>@import url(http://fonts.googleapis.com/css?family=Roboto);</style></defs><defs joint-selector="defs"></defs><g  joint-selector="layers" transform="matrix(1,0,0,1,0,0)"><g ></g><g ><g   id="j_222"  transform="translate(20,1710.5)"><g id="v-7816"><text  id="v-7817" font-size="22px" xml:space="preserve" y="0.8em" font-weight="normal" text-anchor="start" fill="#aaaaaa" pointer-events="none" display="block" font-family="Roboto"><tspan  dy="0" display="block">Wednesday, 5 June 2024 at 08:47 Central European Summer Time</tspan></text></g></g><g   id="j_221"  transform="translate(20,1665.5)"><g id="v-7814"><text  id="v-7815" font-size="36px" xml:space="preserve" y="0.8em" font-weight="normal" text-anchor="start" fill="#000000" pointer-events="none" display="block" font-family="Roboto"><tspan  dy="0" display="block">[Dynamic view] MLOps dynamic view</tspan></text></g></g><g   id="j_223"  transform="translate(15,1125)" style=""><g  id="v-7821" style="opacity: 1;"><rect  x="0" y="160" width="400" height="240" rx="70" id="v-7823" stroke="#00474d" stroke-width="2" pointer-events="visiblePainted" fill="#004f56" style="fill: rgb(0, 79, 86); stroke: rgb(0, 71, 77);"></rect><circle  cx="200" cy="88.88888888888889" r="88.88888888888889" id="v-7822" stroke="#00474d" stroke-width="2" pointer-events="visiblePainted" fill="#004f56" style="fill: rgb(0, 79, 86); stroke: rgb(0, 71, 77);"></circle><line  x1="80" y1="266.6666666666667" x2="80" y2="400" id="v-7829" stroke="#00474d" stroke-width="2" style="stroke: rgb(0, 71, 77);"></line><line  x1="320" y1="266.6666666666667" x2="320" y2="400" id="v-7830" stroke="#00474d" stroke-width="2" style="stroke: rgb(0, 71, 77);"></line><text  id="v-7824" font-size="34" xml:space="preserve" y="0.8em" font-weight="bold" text-anchor="middle" pointer-events="visible" font-family="Roboto" fill="#ffffff" transform="matrix(1,0,0,1,200,198.10000610351562)" style="fill: rgb(255, 255, 255);"><tspan  dy="0">EOSC User</tspan></text><text  id="v-7825" font-size="17" xml:space="preserve" y="0.8em" text-anchor="middle" font-family="Roboto" fill="#ffffff" transform="matrix(1,0,0,1,200,240.60000610351562)" style="fill: rgb(255, 255, 255);"><tspan  dy="0">[Person]</tspan></text><text  id="v-7826" font-size="24" xml:space="preserve" y="0.8em" text-anchor="middle" font-family="Roboto" fill="#ffffff" transform="matrix(1,0,0,1,200,271.8999938964844)" style="fill: rgb(255, 255, 255);"><tspan  dy="0">EOSC user willing to use an AI</tspan><tspan dy="1.2em" x="0" >platform to develop an AI</tspan><tspan dy="1.2em" x="0" >application.</tspan></text><g  id="v-7827" font-weight="normal" text-anchor="middle" color="#ffffff" transform="matrix(1,0,0,1,197.5,371.8999938964844)" style="fill: rgb(255, 255, 255);" display="none"><g ></g><g ></g><g ></g><g ></g></g><image  id="v-7828"></image></g></g><g   id="j_226"  transform="translate(75,10)" style=""><g id="v-7850"><rect  id="v-7851" width="1675" height="1030" rx="0" ry="0" fill="#ffffff" stroke="#e68da0" stroke-width="1" stroke-dasharray="20,20" pointer-events="none"></rect><text  id="v-7852" font-size="24px" xml:space="preserve" y="991" font-weight="normal" fill="#e68da0" text-anchor="start" pointer-events="visible" font-family="Roboto" transform="matrix(1,0,0,1,15,0)"><tspan  dy="0">AI4EOSC Platform</tspan></text><text  id="v-7853" font-size="17px" xml:space="preserve" y="1015" font-weight="normal" fill="#e68da0" text-anchor="start" pointer-events="visible" font-family="Roboto" transform="matrix(1,0,0,1,15,0)"><tspan  dy="0">[Software System]</tspan></text><image  id="v-7854" pointer-events="visible"></image></g></g><g   id="j_225"  transform="translate(95,30)" style=""><g id="v-7845"><rect  id="v-7846" width="1635" height="919" rx="0" ry="0" fill="#ffffff" stroke="#444444" stroke-width="1" stroke-dasharray="5,5" pointer-events="none"></rect><text  id="v-7847" font-size="24px" xml:space="preserve" y="904" font-weight="normal" fill="#444444" text-anchor="start" pointer-events="visible" font-family="Roboto" transform="matrix(1,0,0,1,15,0)"><tspan  dy="0">AI4EOSC Exchange</tspan></text><text  id="v-7848" font-size="17px" xml:space="preserve" display="none" y="904" font-weight="normal" fill="#444444" text-anchor="start" pointer-events="visible" font-family="Roboto" transform="matrix(1,0,0,1,15,0)"><tspan style="fill-opacity: 0; stroke-opacity: 0;"  dy="0">-</tspan></text><image  id="v-7849" pointer-events="visible"></image></g></g><g   id="j_230"  transform="translate(750,580)" style=""><g  id="v-7898" style="opacity: 1;"><rect  id="v-7899" rx="10" ry="10" stroke="#007a83" stroke-width="2" pointer-events="visiblePainted" fill="#007a83" width="450" height="300" style="fill: rgb(0, 122, 131); stroke: rgb(0, 122, 131);"></rect><rect  id="v-7900" rx="10" ry="10" stroke="#007a83" stroke-width="0" pointer-events="visiblePainted" fill="#008792" width="430" height="250" x="10" y="40" style="fill: rgb(0, 135, 146);"></rect><ellipse  id="v-7907" fill="#008792" cx="20" cy="20" rx="10" ry="10" style="fill: rgb(0, 135, 146);"></ellipse><ellipse  id="v-7908" fill="#008792" cx="50" cy="20" rx="10" ry="10" style="fill: rgb(0, 135, 146);"></ellipse><ellipse  id="v-7909" fill="#008792" cx="80" cy="20" rx="10" ry="10" style="fill: rgb(0, 135, 146);"></ellipse><rect  id="v-7901" rx="10" ry="10" stroke="#444444" stroke-width="0" pointer-events="visiblePainted" fill="#008792" width="340" height="20" x="100" y="10" style="fill: rgb(0, 135, 146);"></rect><text  id="v-7902" font-size="34" xml:space="preserve" y="0.8em" font-weight="bold" text-anchor="middle" pointer-events="visible" font-family="Roboto" fill="#ffffff" transform="matrix(1,0,0,1,225,83.0999984741211)" style="fill: rgb(255, 255, 255);"><tspan  dy="0">AI4EOSC dashboard</tspan></text><text  id="v-7903" font-size="17" xml:space="preserve" y="0.8em" text-anchor="middle" font-family="Roboto" fill="#ffffff" transform="matrix(1,0,0,1,225,125.5999984741211)" style="fill: rgb(255, 255, 255);"><tspan  dy="0">[Container: Angular]</tspan></text><text  id="v-7904" font-size="24" xml:space="preserve" y="0.8em" text-anchor="middle" font-family="Roboto" fill="#ffffff" transform="matrix(1,0,0,1,225,156.89999389648438)" style="fill: rgb(255, 255, 255);"><tspan  dy="0">Provides access to existing modules</tspan><tspan dy="1.2em" x="0" >(anonymous), experiment and</tspan><tspan dy="1.2em" x="0" >training definition (logged users).</tspan></text><g  id="v-7905" font-weight="normal" text-anchor="middle" color="#ffffff" transform="matrix(1,0,0,1,222.5,256.8999938964844)" style="fill: rgb(255, 255, 255);" display="none"><g ></g><g ></g><g ></g><g ></g></g><image  id="v-7906"></image></g></g><g   id="j_232"  transform="translate(105,495)" style=""><g id="v-7923"><rect  id="v-7924" width="490" height="394" rx="0" ry="0" fill="#ffffff" stroke="#444444" stroke-width="1" stroke-dasharray="5,5" pointer-events="none"></rect><text  id="v-7925" font-size="24px" xml:space="preserve" y="379" font-weight="normal" fill="#444444" text-anchor="start" pointer-events="visible" font-family="Roboto" transform="matrix(1,0,0,1,15,0)"><tspan  dy="0">AI4EOSC training</tspan></text><text  id="v-7926" font-size="17px" xml:space="preserve" display="none" y="379" font-weight="normal" fill="#444444" text-anchor="start" pointer-events="visible" font-family="Roboto" transform="matrix(1,0,0,1,15,0)"><tspan style="fill-opacity: 0; stroke-opacity: 0;"  dy="0">-</tspan></text><image  id="v-7927" pointer-events="visible"></image></g></g><g   id="j_224"  transform="translate(750,65)" style=""><g  id="v-7837" style="opacity: 1;"><rect  id="v-7838" rx="10" ry="10" stroke="#007a83" stroke-width="2" pointer-events="visiblePainted" fill="#008792" x="10" y="0" width="150" height="75" style="fill: rgb(0, 135, 146); stroke: rgb(0, 122, 131);"></rect><rect  id="v-7839" rx="5" ry="5" stroke="#007a83" stroke-width="2" pointer-events="visiblePainted" fill="#008792" x="0" y="37.5" width="450" height="262.5" style="fill: rgb(0, 135, 146); stroke: rgb(0, 122, 131);"></rect><text  id="v-7840" font-size="34" xml:space="preserve" y="0.8em" font-weight="bold" text-anchor="middle" pointer-events="visible" font-family="Roboto" fill="#ffffff" transform="matrix(1,0,0,1,225,95.5999984741211)" style="fill: rgb(255, 255, 255);"><tspan  dy="0">Model and data</tspan><tspan dy="1.2em" x="0" >repository</tspan></text><text  id="v-7841" font-size="17" xml:space="preserve" y="0.8em" text-anchor="middle" font-family="Roboto" fill="#ffffff" transform="matrix(1,0,0,1,225,180.60000610351562)" style="fill: rgb(255, 255, 255);"><tspan  dy="0">[Container: dvc]</tspan></text><text  id="v-7842" font-size="24" xml:space="preserve" y="0.8em" text-anchor="middle" font-family="Roboto" fill="#ffffff" transform="matrix(1,0,0,1,225,211.89999389648438)" style="fill: rgb(255, 255, 255);"><tspan  dy="0">Track AI models and data sets.</tspan></text><g  id="v-7843" font-weight="normal" text-anchor="middle" color="#ffffff" transform="matrix(1,0,0,1,222.5,251.89999389648438)" style="fill: rgb(255, 255, 255);" display="none"><g ></g><g ></g><g ></g><g ></g></g><image  id="v-7844"></image></g></g><g   id="j_227"  transform="translate(115,50)" style=""><g  id="v-7858" style="opacity: 1;"><rect  id="v-7859" rx="10" ry="10" stroke="#007a83" stroke-width="2" pointer-events="visiblePainted" fill="#008792" x="10" y="0" width="150" height="75" style="fill: rgb(0, 135, 146); stroke: rgb(0, 122, 131);"></rect><rect  id="v-7860" rx="5" ry="5" stroke="#007a83" stroke-width="2" pointer-events="visiblePainted" fill="#008792" x="0" y="37.5" width="450" height="262.5" style="fill: rgb(0, 135, 146); stroke: rgb(0, 122, 131);"></rect><text  id="v-7861" font-size="34" xml:space="preserve" y="0.8em" font-weight="bold" text-anchor="middle" pointer-events="visible" font-family="Roboto" fill="#ffffff" transform="matrix(1,0,0,1,225,116.9000015258789)" style="fill: rgb(255, 255, 255);"><tspan  dy="0">Model code repository</tspan></text><text  id="v-7862" font-size="17" xml:space="preserve" y="0.8em" text-anchor="middle" font-family="Roboto" fill="#ffffff" transform="matrix(1,0,0,1,225,159.39999389648438)" style="fill: rgb(255, 255, 255);"><tspan  dy="0">[Container: Git]</tspan></text><text  id="v-7863" font-size="24" xml:space="preserve" y="0.8em" text-anchor="middle" font-family="Roboto" fill="#ffffff" transform="matrix(1,0,0,1,225,190.60000610351562)" style="fill: rgb(255, 255, 255);"><tspan  dy="0">Track AI model code.</tspan></text><g  id="v-7864" font-weight="normal" text-anchor="middle" color="#ffffff" transform="matrix(1,0,0,1,222.5,230.60000610351562)" style="fill: rgb(255, 255, 255);" display="none"><g ></g><g ></g><g ></g><g ></g></g><image  id="v-7865"></image></g></g><g   id="j_228"  transform="translate(1260,575)" style=""><g  id="v-7872" style="opacity: 1;"><rect  id="v-7873" rx="20" ry="20" stroke="#007a83" stroke-width="2" pointer-events="visiblePainted" fill="#008792" width="450" height="300" style="fill: rgb(0, 135, 146); stroke: rgb(0, 122, 131);"></rect><text  id="v-7874" font-size="34" xml:space="preserve" y="0.8em" font-weight="bold" text-anchor="middle" pointer-events="visible" font-family="Roboto" fill="#ffffff" transform="matrix(1,0,0,1,225,83.0999984741211)" style="fill: rgb(255, 255, 255);"><tspan  dy="0">Continuous Integration</tspan></text><text  id="v-7875" font-size="17" xml:space="preserve" y="0.8em" text-anchor="middle" font-family="Roboto" fill="#ffffff" transform="matrix(1,0,0,1,225,125.5999984741211)" style="fill: rgb(255, 255, 255);"><tspan  dy="0">[Container]</tspan></text><text  id="v-7876" font-size="24" xml:space="preserve" y="0.8em" text-anchor="middle" font-family="Roboto" fill="#ffffff" transform="matrix(1,0,0,1,225,156.89999389648438)" style="fill: rgb(255, 255, 255);"><tspan  dy="0">Ensures quality aspects are fulfilled</tspan><tspan dy="1.2em" x="0" >(code checks, unit checks, etc.).</tspan></text><g  id="v-7877" color="#ffffff" transform="matrix(1,0,0,1,222.5,226.89999389648438)" style="fill: rgb(255, 255, 255);" display="none"><g ></g><g ></g><g ></g><g ></g></g><image  id="v-7878"></image></g></g><g   id="j_229"  transform="translate(1260,125)" style=""><g  id="v-7885" style="opacity: 1;"><rect  id="v-7886" rx="20" ry="20" stroke="#007a83" stroke-width="2" pointer-events="visiblePainted" fill="#008792" width="450" height="300" style="fill: rgb(0, 135, 146); stroke: rgb(0, 122, 131);"></rect><text  id="v-7887" font-size="34" xml:space="preserve" y="0.8em" font-weight="bold" text-anchor="middle" pointer-events="visible" font-family="Roboto" fill="#ffffff" transform="matrix(1,0,0,1,225,61.900001525878906)" style="fill: rgb(255, 255, 255);"><tspan  dy="0">Continuous Delivery &amp;</tspan><tspan dy="1.2em" x="0" >Deployment</tspan></text><text  id="v-7888" font-size="17" xml:space="preserve" y="0.8em" text-anchor="middle" font-family="Roboto" fill="#ffffff" transform="matrix(1,0,0,1,225,146.89999389648438)" style="fill: rgb(255, 255, 255);"><tspan  dy="0">[Container]</tspan></text><text  id="v-7889" font-size="24" xml:space="preserve" y="0.8em" text-anchor="middle" font-family="Roboto" fill="#ffffff" transform="matrix(1,0,0,1,225,178.10000610351562)" style="fill: rgb(255, 255, 255);"><tspan  dy="0">Ensures delivery and deployment of</tspan><tspan dy="1.2em" x="0" >new assets.</tspan></text><g  id="v-7890" color="#ffffff" transform="matrix(1,0,0,1,222.5,248.10000610351562)" style="fill: rgb(255, 255, 255);" display="none"><g ></g><g ></g><g ></g><g ></g></g><image  id="v-7891"></image></g></g><g   id="j_231"  transform="translate(125,515)" style=""><g  id="v-7916" style="opacity: 1;"><rect  id="v-7917" rx="20" ry="20" stroke="#007a83" stroke-width="2" pointer-events="visiblePainted" fill="#008792" width="450" height="300" style="fill: rgb(0, 135, 146); stroke: rgb(0, 122, 131);"></rect><text  id="v-7918" font-size="34" xml:space="preserve" y="0.8em" font-weight="bold" text-anchor="middle" pointer-events="visible" font-family="Roboto" fill="#ffffff" transform="matrix(1,0,0,1,225,68.0999984741211)" style="fill: rgb(255, 255, 255);"><tspan  dy="0">Training API</tspan></text><text  id="v-7919" font-size="17" xml:space="preserve" y="0.8em" text-anchor="middle" font-family="Roboto" fill="#ffffff" transform="matrix(1,0,0,1,225,110.5999984741211)" style="fill: rgb(255, 255, 255);"><tspan  dy="0">[Container: FastAPI + python-nomad]</tspan></text><text  id="v-7920" font-size="24" xml:space="preserve" y="0.8em" text-anchor="middle" font-family="Roboto" fill="#ffffff" transform="matrix(1,0,0,1,225,141.89999389648438)" style="fill: rgb(255, 255, 255);"><tspan  dy="0">Provides training creation and</tspan><tspan dy="1.2em" x="0" >monitoring functionality via a</tspan><tspan dy="1.2em" x="0" >JSON/HTTPS API.</tspan></text><g  id="v-7921" color="#ffffff" transform="matrix(1,0,0,1,222.5,241.89999389648438)" style="fill: rgb(255, 255, 255);" display="none"><g ></g><g ></g><g ></g><g ></g></g><image  id="v-7922"></image></g></g><g   id="j_235"  transform="translate(1905,125)" style=""><g id="v-7940"><rect  id="v-7941" width="530" height="505" rx="0" ry="0" fill="#ffffff" stroke="#e68da0" stroke-width="1" stroke-dasharray="20,20" pointer-events="none"></rect><text  id="v-7942" font-size="24px" xml:space="preserve" y="466" font-weight="normal" fill="#e68da0" text-anchor="start" pointer-events="visible" font-family="Roboto" transform="matrix(1,0,0,1,15,0)"><tspan  dy="0">AI as a Service</tspan></text><text  id="v-7943" font-size="17px" xml:space="preserve" y="490" font-weight="normal" fill="#e68da0" text-anchor="start" pointer-events="visible" font-family="Roboto" transform="matrix(1,0,0,1,15,0)"><tspan  dy="0">[Software System]</tspan></text><image  id="v-7944" pointer-events="visible"></image></g></g><g   id="j_234"  transform="translate(1925,145)" style=""><g id="v-7935"><rect  id="v-7936" width="490" height="394" rx="0" ry="0" fill="#ffffff" stroke="#444444" stroke-width="1" stroke-dasharray="5,5" pointer-events="none"></rect><text  id="v-7937" font-size="24px" xml:space="preserve" y="379" font-weight="normal" fill="#444444" text-anchor="start" pointer-events="visible" font-family="Roboto" transform="matrix(1,0,0,1,15,0)"><tspan  dy="0">OSCAR</tspan></text><text  id="v-7938" font-size="17px" xml:space="preserve" display="none" y="379" font-weight="normal" fill="#444444" text-anchor="start" pointer-events="visible" font-family="Roboto" transform="matrix(1,0,0,1,15,0)"><tspan style="fill-opacity: 0; stroke-opacity: 0;"  dy="0">-</tspan></text><image  id="v-7939" pointer-events="visible"></image></g></g><g   id="j_233"  transform="translate(1945,165)" style=""><g  id="v-7928" style="opacity: 1;"><rect  id="v-7929" rx="20" ry="20" stroke="#007a83" stroke-width="2" pointer-events="visiblePainted" fill="#008792" width="450" height="300" style="fill: rgb(0, 135, 146); stroke: rgb(0, 122, 131);"></rect><text  id="v-7930" font-size="34" xml:space="preserve" y="0.8em" font-weight="bold" text-anchor="middle" pointer-events="visible" font-family="Roboto" fill="#ffffff" transform="matrix(1,0,0,1,225,113.0999984741211)" style="fill: rgb(255, 255, 255);"><tspan  dy="0">OSCAR Manager</tspan></text><text  id="v-7931" font-size="17" xml:space="preserve" y="0.8em" text-anchor="middle" font-family="Roboto" fill="#ffffff" transform="matrix(1,0,0,1,225,155.60000610351562)" style="fill: rgb(255, 255, 255);"><tspan  dy="0">[Container]</tspan></text><text  id="v-7932" font-size="24" xml:space="preserve" display="none" y="0.8em" text-anchor="middle" font-family="Roboto" fill="#ffffff" transform="matrix(1,0,0,1,225,186.89999389648438)" style="fill: rgb(255, 255, 255);"><tspan style="fill-opacity: 0; stroke-opacity: 0;"  dy="0">-</tspan></text><g  id="v-7933" color="#ffffff" transform="matrix(1,0,0,1,222.5,196.89999389648438)" style="fill: rgb(255, 255, 255);" display="none"><g ></g><g ></g><g ></g><g ></g></g><image  id="v-7934"></image></g></g><g   id="j_237"  transform="translate(715,1100)" style=""><g id="v-7955"><rect  id="v-7956" width="1600" height="845" rx="0" ry="0" fill="#ffffff" stroke="#e68da0" stroke-width="1" stroke-dasharray="20,20" pointer-events="none"></rect><text  id="v-7957" font-size="24px" xml:space="preserve" y="806" font-weight="normal" fill="#e68da0" text-anchor="start" pointer-events="visible" font-family="Roboto" transform="matrix(1,0,0,1,15,0)"><tspan  dy="0">MLOps System</tspan></text><text  id="v-7958" font-size="17px" xml:space="preserve" y="830" font-weight="normal" fill="#e68da0" text-anchor="start" pointer-events="visible" font-family="Roboto" transform="matrix(1,0,0,1,15,0)"><tspan  dy="0">[Software System]</tspan></text><image  id="v-7959" pointer-events="visible"></image></g></g><g   id="j_236"  transform="translate(1260,1120)" style=""><g  id="v-7948" style="opacity: 1;"><rect  id="v-7949" rx="20" ry="20" stroke="#007a83" stroke-width="2" pointer-events="visiblePainted" fill="#008792" width="450" height="300" style="fill: rgb(0, 135, 146); stroke: rgb(0, 122, 131);"></rect><text  id="v-7950" font-size="34" xml:space="preserve" y="0.8em" font-weight="bold" text-anchor="middle" pointer-events="visible" font-family="Roboto" fill="#ffffff" transform="matrix(1,0,0,1,225,83.0999984741211)" style="fill: rgb(255, 255, 255);"><tspan  dy="0">MLflow</tspan></text><text  id="v-7951" font-size="17" xml:space="preserve" y="0.8em" text-anchor="middle" font-family="Roboto" fill="#ffffff" transform="matrix(1,0,0,1,225,125.5999984741211)" style="fill: rgb(255, 255, 255);"><tspan  dy="0">[Container]</tspan></text><text  id="v-7952" font-size="24" xml:space="preserve" y="0.8em" text-anchor="middle" font-family="Roboto" fill="#ffffff" transform="matrix(1,0,0,1,225,156.89999389648438)" style="fill: rgb(255, 255, 255);"><tspan  dy="0">Tracks experiments and manages</tspan><tspan dy="1.2em" x="0" >model versions</tspan></text><g  id="v-7953" color="#ffffff" transform="matrix(1,0,0,1,222.5,226.89999389648438)" style="fill: rgb(255, 255, 255);" display="none"><g ></g><g ></g><g ></g><g ></g></g><image  id="v-7954"></image></g></g><g   id="j_239"  transform="translate(735,1430)" style=""><g id="v-7970"><rect  id="v-7971" width="1560" height="424" rx="0" ry="0" fill="#ffffff" stroke="#444444" stroke-width="1" stroke-dasharray="5,5" pointer-events="none"></rect><text  id="v-7972" font-size="24px" xml:space="preserve" y="409" font-weight="normal" fill="#444444" text-anchor="start" pointer-events="visible" font-family="Roboto" transform="matrix(1,0,0,1,15,0)"><tspan  dy="0">Monitoring</tspan></text><text  id="v-7973" font-size="17px" xml:space="preserve" display="none" y="409" font-weight="normal" fill="#444444" text-anchor="start" pointer-events="visible" font-family="Roboto" transform="matrix(1,0,0,1,15,0)"><tspan style="fill-opacity: 0; stroke-opacity: 0;"  dy="0">-</tspan></text><image  id="v-7974" pointer-events="visible"></image></g></g><g   id="j_238"  transform="translate(755,1480)" style=""><g  id="v-7963" style="opacity: 1;"><rect  id="v-7964" rx="20" ry="20" stroke="#007a83" stroke-width="2" pointer-events="visiblePainted" fill="#008792" width="450" height="300" style="fill: rgb(0, 135, 146); stroke: rgb(0, 122, 131);"></rect><text  id="v-7965" font-size="34" xml:space="preserve" y="0.8em" font-weight="bold" text-anchor="middle" pointer-events="visible" font-family="Roboto" fill="#ffffff" transform="matrix(1,0,0,1,225,98.0999984741211)" style="fill: rgb(255, 255, 255);"><tspan  dy="0">Frouros</tspan></text><text  id="v-7966" font-size="17" xml:space="preserve" y="0.8em" text-anchor="middle" font-family="Roboto" fill="#ffffff" transform="matrix(1,0,0,1,225,140.60000610351562)" style="fill: rgb(255, 255, 255);"><tspan  dy="0">[Container: python library]</tspan></text><text  id="v-7967" font-size="24" xml:space="preserve" y="0.8em" text-anchor="middle" font-family="Roboto" fill="#ffffff" transform="matrix(1,0,0,1,225,171.89999389648438)" style="fill: rgb(255, 255, 255);"><tspan  dy="0">Detects data and model drift</tspan></text><g  id="v-7968" color="#ffffff" transform="matrix(1,0,0,1,222.5,211.89999389648438)" style="fill: rgb(255, 255, 255);" display="none"><g ></g><g ></g><g ></g><g ></g></g><image  id="v-7969"></image></g></g><g   id="j_240"  transform="translate(1825,1450)" style=""><g  id="v-7978" style="opacity: 1;"><rect  id="v-7979" rx="20" ry="20" stroke="#007a83" stroke-width="2" pointer-events="visiblePainted" fill="#008792" width="450" height="300" style="fill: rgb(0, 135, 146); stroke: rgb(0, 122, 131);"></rect><text  id="v-7980" font-size="34" xml:space="preserve" y="0.8em" font-weight="bold" text-anchor="middle" pointer-events="visible" font-family="Roboto" fill="#ffffff" transform="matrix(1,0,0,1,225,83.0999984741211)" style="fill: rgb(255, 255, 255);"><tspan  dy="0">DriftWatch</tspan></text><text  id="v-7981" font-size="17" xml:space="preserve" y="0.8em" text-anchor="middle" font-family="Roboto" fill="#ffffff" transform="matrix(1,0,0,1,225,125.5999984741211)" style="fill: rgb(255, 255, 255);"><tspan  dy="0">[Container: python client]</tspan></text><text  id="v-7982" font-size="24" xml:space="preserve" y="0.8em" text-anchor="middle" font-family="Roboto" fill="#ffffff" transform="matrix(1,0,0,1,225,156.89999389648438)" style="fill: rgb(255, 255, 255);"><tspan  dy="0">Monitors drift; alert whenever a</tspan><tspan dy="1.2em" x="0" >drift is detected</tspan></text><g  id="v-7983" color="#ffffff" transform="matrix(1,0,0,1,222.5,226.89999389648438)" style="fill: rgb(255, 255, 255);" display="none"><g ></g><g ></g><g ></g><g ></g></g><image  id="v-7984"></image></g></g><g   id="j_241" ><path  stroke="#707070" d="M 415 1316 L 1260 1280" id="v-7997" stroke-width="2" stroke-dasharray="30 30" fill="none"></path><path  fill="black" stroke="black" d="M 0 0 0 0" transform="matrix(0.9990629553794861,-0.0432729572057724,0.0432729572057724,0.9990629553794861,415,1316.3399658203125)"></path><path  fill="#707070" stroke="#707070" d="M 20 0 L 0 10 L 20 20 z" id="v-7999" transform="matrix(-0.9990633130073547,0.043272972106933594,-0.043272972106933594,-0.9990633130073547,1260.4327392578125,1289.7305908203125)"></path><path  d="M 415 1316 L 1260 1280" id="v-7998" fill="none" style="cursor: default;"></path><g ><g id="v-7991"  label-idx="0" cursor="move" transform="matrix(1,0,0,1,837.5,1298)" style="cursor: default;"><rect joint-selector="rect" id="v-7994" fill="#ffffff" rx="3" ry="3" pointer-events="none" width="174.37693786621094" height="58.79868125915527" transform="matrix(1,0,0,1,-86.80000305175781,-29.399999618530273)"></rect><text joint-selector="text" id="v-7993" font-size="24px" xml:space="preserve" y="0.8em" fill="#707070" text-anchor="middle" pointer-events="none" font-family="Roboto" font-weight="normal" transform="matrix(1,0,0,1,0,-25.5)"><tspan  dy="0">1: creates a new</tspan><tspan dy="1.2em" x="0" >experiment-run</tspan></text></g><g id="v-7992"  label-idx="1" cursor="move" transform="matrix(1,0,0,1,827.5,1340)" style="cursor: default;"><rect joint-selector="rect" id="v-7996" fill="#ffffff" rx="3" ry="3"  width="0" height="0" transform="matrix(1,0,0,1,0,0)" display="none"></rect><text joint-selector="text" id="v-7995" fill="#000000" font-size="14" text-anchor="middle" pointer-events="none"></text></g></g><g  display="none"></g><g  id="v-8001" display="none"><g  id="v-7989"><path  end="source" d="M 26 0 L 0 13 L 26 26 z"></path></g><g  id="v-7990"><path  end="target" d="M 26 0 L 0 13 L 26 26 z"></path></g></g><g  id="v-8000" display="none"><g  id="v-7988" transform="translate(454.9637480921949, 1314.2974024481432) "><g  event="remove"><circle r="11"></circle><path transform="scale(.8) translate(-16, -16)" d="M24.778,21.419 19.276,15.917 24.777,10.415 21.949,7.585 16.447,13.087 10.945,7.585 8.117,10.415 13.618,15.917 8.116,21.419 10.946,24.248 16.447,18.746 21.948,24.248z"></path><title>Remove link.</title></g><g  event="link:options"><circle r="11" transform="translate(25)"></circle><path fill="white" transform="scale(.55) translate(29, -16)" d="M31.229,17.736c0.064-0.571,0.104-1.148,0.104-1.736s-0.04-1.166-0.104-1.737l-4.377-1.557c-0.218-0.716-0.504-1.401-0.851-2.05l1.993-4.192c-0.725-0.91-1.549-1.734-2.458-2.459l-4.193,1.994c-0.647-0.347-1.334-0.632-2.049-0.849l-1.558-4.378C17.165,0.708,16.588,0.667,16,0.667s-1.166,0.041-1.737,0.105L12.707,5.15c-0.716,0.217-1.401,0.502-2.05,0.849L6.464,4.005C5.554,4.73,4.73,5.554,4.005,6.464l1.994,4.192c-0.347,0.648-0.632,1.334-0.849,2.05l-4.378,1.557C0.708,14.834,0.667,15.412,0.667,16s0.041,1.165,0.105,1.736l4.378,1.558c0.217,0.715,0.502,1.401,0.849,2.049l-1.994,4.193c0.725,0.909,1.549,1.733,2.459,2.458l4.192-1.993c0.648,0.347,1.334,0.633,2.05,0.851l1.557,4.377c0.571,0.064,1.148,0.104,1.737,0.104c0.588,0,1.165-0.04,1.736-0.104l1.558-4.377c0.715-0.218,1.399-0.504,2.049-0.851l4.193,1.993c0.909-0.725,1.733-1.549,2.458-2.458l-1.993-4.193c0.347-0.647,0.633-1.334,0.851-2.049L31.229,17.736zM16,20.871c-2.69,0-4.872-2.182-4.872-4.871c0-2.69,2.182-4.872,4.872-4.872c2.689,0,4.871,2.182,4.871,4.872C20.871,18.689,18.689,20.871,16,20.871z"></path><title>Link options.</title></g></g></g></g><g   id="j_242" ><path  stroke="#707070" d="M 350 665 L 396 756 C 398.66666666666663 762 399.99999999999994 768.3333333333333 400 775 L 405 1130 C 405 1136.6666666666665 408.3333333333333 1140 415 1140 L 1325 1120 C 1331.6666666666665 1120 1335 1120 1335 1120 L 1335 1120" id="v-8015" stroke-width="2" stroke-dasharray="30 30" fill="none"></path><path  fill="black" stroke="black" d="M 0 0 0 0" transform="matrix(0.4472135901451111,0.8944271206855774,-0.8944271206855774,0.4472135901451111,350,665)"></path><path  fill="#707070" stroke="#707070" d="M 20 0 L 0 10 L 20 20 z" id="v-8017" transform="matrix(0.9999995827674866,0,0,0.9999995827674866,1315,1110)"></path><path  d="M 350 665 L 396 756 C 398.66666666666663 762 399.99999999999994 768.3333333333333 400 775 L 405 1130 C 405 1136.6666666666665 408.3333333333333 1140 415 1140 L 1325 1120 C 1331.6666666666665 1120 1335 1120 1335 1120 L 1335 1120" id="v-8016" fill="none" style="cursor: default;"></path><g ><g id="v-8009"  label-idx="0" cursor="move" transform="matrix(1,0,0,1,628.6630249023438,1135.3040771484375)" style="cursor: default;"><rect joint-selector="rect" id="v-8012" fill="#ffffff" rx="3" ry="3" pointer-events="none" width="170.45404052734375" height="116.398681640625" transform="matrix(1,0,0,1,-85.19999694824219,-58.20000076293945)"></rect><text joint-selector="text" id="v-8011" font-size="24px" xml:space="preserve" y="0.8em" fill="#707070" text-anchor="middle" pointer-events="none" font-family="Roboto" font-weight="normal" transform="matrix(1,0,0,1,0,-54.29999923706055)"><tspan  dy="0">2: logs</tspan><tspan dy="1.2em" x="0" >parametres,</tspan><tspan dy="1.2em" x="0" >metrics, models</tspan><tspan dy="1.2em" x="0" >to mlflow</tspan></text></g><g id="v-8010"  label-idx="1" cursor="move" transform="matrix(1,0,0,1,618.6630249023438,1207.3040771484375)" style="cursor: default;"><rect joint-selector="rect" id="v-8014" fill="#ffffff" rx="3" ry="3"  width="0" height="0" transform="matrix(1,0,0,1,0,0)" display="none"></rect><text joint-selector="text" id="v-8013" fill="#000000" font-size="14" text-anchor="middle" pointer-events="none"></text></g></g><g  display="none"><g  transform="translate(400, 765)" id="v-10629"><circle  idx="0" r="10"></circle><path  idx="0" d="M16,5.333c-7.732,0-14,4.701-14,10.5c0,1.982,0.741,3.833,2.016,5.414L2,25.667l5.613-1.441c2.339,1.317,5.237,2.107,8.387,2.107c7.732,0,14-4.701,14-10.5C30,10.034,23.732,5.333,16,5.333z" transform="translate(5, -33)"></path><path  idx="0" transform="scale(.8) translate(9.5, -37)" d="M24.778,21.419 19.276,15.917 24.777,10.415 21.949,7.585 16.447,13.087 10.945,7.585 8.117,10.415 13.618,15.917 8.116,21.419 10.946,24.248 16.447,18.746 21.948,24.248z"><title>Remove vertex.</title></path></g><g  transform="translate(405, 1140)" id="v-10630"><circle  idx="1" r="10"></circle><path  idx="1" d="M16,5.333c-7.732,0-14,4.701-14,10.5c0,1.982,0.741,3.833,2.016,5.414L2,25.667l5.613-1.441c2.339,1.317,5.237,2.107,8.387,2.107c7.732,0,14-4.701,14-10.5C30,10.034,23.732,5.333,16,5.333z" transform="translate(5, -33)"></path><path  idx="1" transform="scale(.8) translate(9.5, -37)" d="M24.778,21.419 19.276,15.917 24.777,10.415 21.949,7.585 16.447,13.087 10.945,7.585 8.117,10.415 13.618,15.917 8.116,21.419 10.946,24.248 16.447,18.746 21.948,24.248z"><title>Remove vertex.</title></path></g><g  transform="translate(1335, 1120)" id="v-10631"><circle  idx="2" r="10"></circle><path  idx="2" d="M16,5.333c-7.732,0-14,4.701-14,10.5c0,1.982,0.741,3.833,2.016,5.414L2,25.667l5.613-1.441c2.339,1.317,5.237,2.107,8.387,2.107c7.732,0,14-4.701,14-10.5C30,10.034,23.732,5.333,16,5.333z" transform="translate(5, -33)"></path><path  idx="2" transform="scale(.8) translate(9.5, -37)" d="M24.778,21.419 19.276,15.917 24.777,10.415 21.949,7.585 16.447,13.087 10.945,7.585 8.117,10.415 13.618,15.917 8.116,21.419 10.946,24.248 16.447,18.746 21.948,24.248z"><title>Remove vertex.</title></path></g></g><g  id="v-8019" display="none"><g  id="v-8007"><path  end="source" d="M 26 0 L 0 13 L 26 26 z"></path></g><g  id="v-8008"><path  end="target" d="M 26 0 L 0 13 L 26 26 z"></path></g></g><g  id="v-8018" display="none"><g  id="v-8005" transform="translate(368.04528730610286, 700.6982857577252) "><g  event="remove"><circle r="11"></circle><path transform="scale(.8) translate(-16, -16)" d="M24.778,21.419 19.276,15.917 24.777,10.415 21.949,7.585 16.447,13.087 10.945,7.585 8.117,10.415 13.618,15.917 8.116,21.419 10.946,24.248 16.447,18.746 21.948,24.248z"></path><title>Remove link.</title></g><g  event="link:options"><circle r="11" transform="translate(25)"></circle><path fill="white" transform="scale(.55) translate(29, -16)" d="M31.229,17.736c0.064-0.571,0.104-1.148,0.104-1.736s-0.04-1.166-0.104-1.737l-4.377-1.557c-0.218-0.716-0.504-1.401-0.851-2.05l1.993-4.192c-0.725-0.91-1.549-1.734-2.458-2.459l-4.193,1.994c-0.647-0.347-1.334-0.632-2.049-0.849l-1.558-4.378C17.165,0.708,16.588,0.667,16,0.667s-1.166,0.041-1.737,0.105L12.707,5.15c-0.716,0.217-1.401,0.502-2.05,0.849L6.464,4.005C5.554,4.73,4.73,5.554,4.005,6.464l1.994,4.192c-0.347,0.648-0.632,1.334-0.849,2.05l-4.378,1.557C0.708,14.834,0.667,15.412,0.667,16s0.041,1.165,0.105,1.736l4.378,1.558c0.217,0.715,0.502,1.401,0.849,2.049l-1.994,4.193c0.725,0.909,1.549,1.733,2.459,2.458l4.192-1.993c0.648,0.347,1.334,0.633,2.05,0.851l1.557,4.377c0.571,0.064,1.148,0.104,1.737,0.104c0.588,0,1.165-0.04,1.736-0.104l1.558-4.377c0.715-0.218,1.399-0.504,2.049-0.851l4.193,1.993c0.909-0.725,1.733-1.549,2.458-2.458l-1.993-4.193c0.347-0.647,0.633-1.334,0.851-2.049L31.229,17.736zM16,20.871c-2.69,0-4.872-2.182-4.872-4.871c0-2.69,2.182-4.872,4.872-4.872c2.689,0,4.871,2.182,4.871,4.872C20.871,18.689,18.689,20.871,16,20.871z"></path><title>Link options.</title></g></g></g></g><g   id="j_243" ><path  stroke="#707070" d="M 558 515 L 767 365" id="v-8032" stroke-width="2" stroke-dasharray="30 30" fill="none"></path><path  fill="black" stroke="black" d="M 0 0 0 0" transform="matrix(0.811542809009552,-0.5842921733856201,0.5842921733856201,0.811542809009552,558.3300170898438,515)"></path><path  fill="#707070" stroke="#707070" d="M 20 0 L 0 10 L 20 20 z" id="v-8034" transform="matrix(-0.8115430474281311,0.5842923521995544,-0.5842923521995544,-0.8115430474281311,772.512939453125,373.11541748046875)"></path><path  d="M 558 515 L 767 365" id="v-8033" fill="none" style="cursor: default;"></path><g ><g id="v-8026"  label-idx="0" cursor="move" transform="matrix(1,0,0,1,662.5,440)" style="cursor: default;"><rect joint-selector="rect" id="v-8029" fill="#ffffff" rx="3" ry="3" pointer-events="none" width="171.87704467773438" height="58.79868125915527" transform="matrix(1,0,0,1,-85.19999694824219,-29.399999618530273)"></rect><text joint-selector="text" id="v-8028" font-size="24px" xml:space="preserve" y="0.8em" fill="#707070" text-anchor="middle" pointer-events="none" font-family="Roboto" font-weight="normal" transform="matrix(1,0,0,1,0,-25.5)"><tspan  dy="0">3: retrieves data</tspan><tspan dy="1.2em" x="0" >from repo</tspan></text></g><g id="v-8027"  label-idx="1" cursor="move" transform="matrix(1,0,0,1,652.5,482)" style="cursor: default;"><rect joint-selector="rect" id="v-8031" fill="#ffffff" rx="3" ry="3"  width="0" height="0" transform="matrix(1,0,0,1,0,0)" display="none"></rect><text joint-selector="text" id="v-8030" fill="#000000" font-size="14" text-anchor="middle" pointer-events="none"></text></g></g><g  display="none"></g><g  id="v-8036" display="none"><g  id="v-8024"><path  end="source" d="M 26 0 L 0 13 L 26 26 z"></path></g><g  id="v-8025"><path  end="target" d="M 26 0 L 0 13 L 26 26 z"></path></g></g><g  id="v-8035" display="none"><g  id="v-8023" transform="translate(590.4967264694385, 491.6769905721733) "><g  event="remove"><circle r="11"></circle><path transform="scale(.8) translate(-16, -16)" d="M24.778,21.419 19.276,15.917 24.777,10.415 21.949,7.585 16.447,13.087 10.945,7.585 8.117,10.415 13.618,15.917 8.116,21.419 10.946,24.248 16.447,18.746 21.948,24.248z"></path><title>Remove link.</title></g><g  event="link:options"><circle r="11" transform="translate(25)"></circle><path fill="white" transform="scale(.55) translate(29, -16)" d="M31.229,17.736c0.064-0.571,0.104-1.148,0.104-1.736s-0.04-1.166-0.104-1.737l-4.377-1.557c-0.218-0.716-0.504-1.401-0.851-2.05l1.993-4.192c-0.725-0.91-1.549-1.734-2.458-2.459l-4.193,1.994c-0.647-0.347-1.334-0.632-2.049-0.849l-1.558-4.378C17.165,0.708,16.588,0.667,16,0.667s-1.166,0.041-1.737,0.105L12.707,5.15c-0.716,0.217-1.401,0.502-2.05,0.849L6.464,4.005C5.554,4.73,4.73,5.554,4.005,6.464l1.994,4.192c-0.347,0.648-0.632,1.334-0.849,2.05l-4.378,1.557C0.708,14.834,0.667,15.412,0.667,16s0.041,1.165,0.105,1.736l4.378,1.558c0.217,0.715,0.502,1.401,0.849,2.049l-1.994,4.193c0.725,0.909,1.549,1.733,2.459,2.458l4.192-1.993c0.648,0.347,1.334,0.633,2.05,0.851l1.557,4.377c0.571,0.064,1.148,0.104,1.737,0.104c0.588,0,1.165-0.04,1.736-0.104l1.558-4.377c0.715-0.218,1.399-0.504,2.049-0.851l4.193,1.993c0.909-0.725,1.733-1.549,2.458-2.458l-1.993-4.193c0.347-0.647,0.633-1.334,0.851-2.049L31.229,17.736zM16,20.871c-2.69,0-4.872-2.182-4.872-4.871c0-2.69,2.182-4.872,4.872-4.872c2.689,0,4.871,2.182,4.871,4.872C20.871,18.689,18.689,20.871,16,20.871z"></path><title>Link options.</title></g></g></g></g><g   id="j_244" ><path  stroke="#707070" d="M 347 515 L 343 350" id="v-8049" stroke-width="2" stroke-dasharray="30 30" fill="none"></path><path  fill="black" stroke="black" d="M 0 0 0 0" transform="matrix(-0.021449578925967216,-0.9997696876525879,0.9997696876525879,-0.021449578925967216,346.7699890136719,515)"></path><path  fill="#707070" stroke="#707070" d="M 20 0 L 0 10 L 20 20 z" id="v-8051" transform="matrix(0.021449582651257515,0.9997698068618774,-0.9997698068618774,0.021449582651257515,353.2276916503906,349.7855224609375)"></path><path  d="M 347 515 L 343 350" id="v-8050" fill="none" style="cursor: default;"></path><g ><g id="v-8043"  label-idx="0" cursor="move" transform="matrix(1,0,0,1,345,432.5)" style="cursor: default;"><rect joint-selector="rect" id="v-8046" fill="#ffffff" rx="3" ry="3" pointer-events="none" width="127.3405532836914" height="58.79868125915527" transform="matrix(1,0,0,1,-62.599998474121094,-29.399999618530273)"></rect><text joint-selector="text" id="v-8045" font-size="24px" xml:space="preserve" y="0.8em" fill="#707070" text-anchor="middle" pointer-events="none" font-family="Roboto" font-weight="normal" transform="matrix(1,0,0,1,0,-25.5)"><tspan  dy="0">4: trains the</tspan><tspan dy="1.2em" x="0" >model</tspan></text></g><g id="v-8044"  label-idx="1" cursor="move" transform="matrix(1,0,0,1,335,474.5)" style="cursor: default;"><rect joint-selector="rect" id="v-8048" fill="#ffffff" rx="3" ry="3"  width="0" height="0" transform="matrix(1,0,0,1,0,0)" display="none"></rect><text joint-selector="text" id="v-8047" fill="#000000" font-size="14" text-anchor="middle" pointer-events="none"></text></g></g><g  display="none"></g><g  id="v-8053" display="none"><g  id="v-8041"><path  end="source" d="M 26 0 L 0 13 L 26 26 z"></path></g><g  id="v-8042"><path  end="target" d="M 26 0 L 0 13 L 26 26 z"></path></g></g><g  id="v-8052" display="none"><g  id="v-8040" transform="translate(346.03058784786464, 475.0117487244154) "><g  event="remove"><circle r="11"></circle><path transform="scale(.8) translate(-16, -16)" d="M24.778,21.419 19.276,15.917 24.777,10.415 21.949,7.585 16.447,13.087 10.945,7.585 8.117,10.415 13.618,15.917 8.116,21.419 10.946,24.248 16.447,18.746 21.948,24.248z"></path><title>Remove link.</title></g><g  event="link:options"><circle r="11" transform="translate(25)"></circle><path fill="white" transform="scale(.55) translate(29, -16)" d="M31.229,17.736c0.064-0.571,0.104-1.148,0.104-1.736s-0.04-1.166-0.104-1.737l-4.377-1.557c-0.218-0.716-0.504-1.401-0.851-2.05l1.993-4.192c-0.725-0.91-1.549-1.734-2.458-2.459l-4.193,1.994c-0.647-0.347-1.334-0.632-2.049-0.849l-1.558-4.378C17.165,0.708,16.588,0.667,16,0.667s-1.166,0.041-1.737,0.105L12.707,5.15c-0.716,0.217-1.401,0.502-2.05,0.849L6.464,4.005C5.554,4.73,4.73,5.554,4.005,6.464l1.994,4.192c-0.347,0.648-0.632,1.334-0.849,2.05l-4.378,1.557C0.708,14.834,0.667,15.412,0.667,16s0.041,1.165,0.105,1.736l4.378,1.558c0.217,0.715,0.502,1.401,0.849,2.049l-1.994,4.193c0.725,0.909,1.549,1.733,2.459,2.458l4.192-1.993c0.648,0.347,1.334,0.633,2.05,0.851l1.557,4.377c0.571,0.064,1.148,0.104,1.737,0.104c0.588,0,1.165-0.04,1.736-0.104l1.558-4.377c0.715-0.218,1.399-0.504,2.049-0.851l4.193,1.993c0.909-0.725,1.733-1.549,2.458-2.458l-1.993-4.193c0.347-0.647,0.633-1.334,0.851-2.049L31.229,17.736zM16,20.871c-2.69,0-4.872-2.182-4.872-4.871c0-2.69,2.182-4.872,4.872-4.872c2.689,0,4.871,2.182,4.871,4.872C20.871,18.689,18.689,20.871,16,20.871z"></path><title>Link options.</title></g></g></g></g><g   id="j_245" ><path  stroke="#707070" d="M 351 815 L 355 1235 C 355 1241.6666666666665 358.3333333333333 1245 365 1245 L 1230 1255 C 1236.6666666666665 1255 1243.3333333333333 1255 1250 1255 L 1260 1256" id="v-8067" stroke-width="2" stroke-dasharray="30 30" fill="none"></path><path  fill="black" stroke="black" d="M 0 0 0 0" transform="matrix(0.008627601899206638,0.9999626874923706,-0.9999626874923706,0.008627601899206638,351.2900085449219,815)"></path><path  fill="#707070" stroke="#707070" d="M 20 0 L 0 10 L 20 20 z" id="v-8069" transform="matrix(-0.9981440901756287,-0.06088688597083092,0.06088688597083092,-0.9981440901756287,1259.39111328125,1266.201416015625)"></path><path  d="M 351 815 L 355 1235 C 355 1241.6666666666665 358.3333333333333 1245 365 1245 L 1230 1255 C 1236.6666666666665 1255 1243.3333333333333 1255 1250 1255 L 1260 1256" id="v-8068" fill="none" style="cursor: default;"></path><g ><g id="v-8061"  label-idx="0" cursor="move" transform="matrix(1,0,0,1,594.4136962890625,1247.6522216796875)" style="cursor: default;"><rect joint-selector="rect" id="v-8064" fill="#ffffff" rx="3" ry="3" pointer-events="none" width="176.5306854248047" height="87.59868621826172" transform="matrix(1,0,0,1,-87.69999694824219,-43.79999923706055)"></rect><text joint-selector="text" id="v-8063" font-size="24px" xml:space="preserve" y="0.8em" fill="#707070" text-anchor="middle" pointer-events="none" font-family="Roboto" font-weight="normal" transform="matrix(1,0,0,1,0,-39.900001525878906)"><tspan  dy="0">5: stores the</tspan><tspan dy="1.2em" x="0" >model version in</tspan><tspan dy="1.2em" x="0" >the registry</tspan></text></g><g id="v-8062"  label-idx="1" cursor="move" transform="matrix(1,0,0,1,584.4136962890625,1304.6522216796875)" style="cursor: default;"><rect joint-selector="rect" id="v-8066" fill="#ffffff" rx="3" ry="3"  width="0" height="0" transform="matrix(1,0,0,1,0,0)" display="none"></rect><text joint-selector="text" id="v-8065" fill="#000000" font-size="14" text-anchor="middle" pointer-events="none"></text></g></g><g  display="none"><g  transform="translate(355, 1245)" id="v-9950"><circle  idx="0" r="10"></circle><path  idx="0" d="M16,5.333c-7.732,0-14,4.701-14,10.5c0,1.982,0.741,3.833,2.016,5.414L2,25.667l5.613-1.441c2.339,1.317,5.237,2.107,8.387,2.107c7.732,0,14-4.701,14-10.5C30,10.034,23.732,5.333,16,5.333z" transform="translate(5, -33)"></path><path  idx="0" transform="scale(.8) translate(9.5, -37)" d="M24.778,21.419 19.276,15.917 24.777,10.415 21.949,7.585 16.447,13.087 10.945,7.585 8.117,10.415 13.618,15.917 8.116,21.419 10.946,24.248 16.447,18.746 21.948,24.248z"><title>Remove vertex.</title></path></g><g  transform="translate(1240, 1255)" id="v-9951"><circle  idx="1" r="10"></circle><path  idx="1" d="M16,5.333c-7.732,0-14,4.701-14,10.5c0,1.982,0.741,3.833,2.016,5.414L2,25.667l5.613-1.441c2.339,1.317,5.237,2.107,8.387,2.107c7.732,0,14-4.701,14-10.5C30,10.034,23.732,5.333,16,5.333z" transform="translate(5, -33)"></path><path  idx="1" transform="scale(.8) translate(9.5, -37)" d="M24.778,21.419 19.276,15.917 24.777,10.415 21.949,7.585 16.447,13.087 10.945,7.585 8.117,10.415 13.618,15.917 8.116,21.419 10.946,24.248 16.447,18.746 21.948,24.248z"><title>Remove vertex.</title></path></g></g><g  id="v-8071" display="none"><g  id="v-8059"><path  end="source" d="M 26 0 L 0 13 L 26 26 z"></path></g><g  id="v-8060"><path  end="target" d="M 26 0 L 0 13 L 26 26 z"></path></g></g><g  id="v-8070" display="none"><g  id="v-8057" transform="translate(351.3809351053756, 854.9981860644392) "><g  event="remove"><circle r="11"></circle><path transform="scale(.8) translate(-16, -16)" d="M24.778,21.419 19.276,15.917 24.777,10.415 21.949,7.585 16.447,13.087 10.945,7.585 8.117,10.415 13.618,15.917 8.116,21.419 10.946,24.248 16.447,18.746 21.948,24.248z"></path><title>Remove link.</title></g><g  event="link:options"><circle r="11" transform="translate(25)"></circle><path fill="white" transform="scale(.55) translate(29, -16)" d="M31.229,17.736c0.064-0.571,0.104-1.148,0.104-1.736s-0.04-1.166-0.104-1.737l-4.377-1.557c-0.218-0.716-0.504-1.401-0.851-2.05l1.993-4.192c-0.725-0.91-1.549-1.734-2.458-2.459l-4.193,1.994c-0.647-0.347-1.334-0.632-2.049-0.849l-1.558-4.378C17.165,0.708,16.588,0.667,16,0.667s-1.166,0.041-1.737,0.105L12.707,5.15c-0.716,0.217-1.401,0.502-2.05,0.849L6.464,4.005C5.554,4.73,4.73,5.554,4.005,6.464l1.994,4.192c-0.347,0.648-0.632,1.334-0.849,2.05l-4.378,1.557C0.708,14.834,0.667,15.412,0.667,16s0.041,1.165,0.105,1.736l4.378,1.558c0.217,0.715,0.502,1.401,0.849,2.049l-1.994,4.193c0.725,0.909,1.549,1.733,2.459,2.458l4.192-1.993c0.648,0.347,1.334,0.633,2.05,0.851l1.557,4.377c0.571,0.064,1.148,0.104,1.737,0.104c0.588,0,1.165-0.04,1.736-0.104l1.558-4.377c0.715-0.218,1.399-0.504,2.049-0.851l4.193,1.993c0.909-0.725,1.733-1.549,2.458-2.458l-1.993-4.193c0.347-0.647,0.633-1.334,0.851-2.049L31.229,17.736zM16,20.871c-2.69,0-4.872-2.182-4.872-4.871c0-2.69,2.182-4.872,4.872-4.872c2.689,0,4.871,2.182,4.871,4.872C20.871,18.689,18.689,20.871,16,20.871z"></path><title>Link options.</title></g></g></g></g><g   id="j_246" ><path  stroke="#707070" d="M 1485 1120 L 1485 875" id="v-8084" stroke-width="2" stroke-dasharray="30 30" fill="none"></path><path  fill="black" stroke="black" d="M 0 0 0 0" transform="matrix(-1.8369698818310578e-16,-0.9999998211860657,0.9999998211860657,-1.8369698818310578e-16,1485,1120)"></path><path  fill="#707070" stroke="#707070" d="M 20 0 L 0 10 L 20 20 z" id="v-8086" transform="matrix(6.123232939436859e-17,0.9999998211860657,-0.9999998211860657,6.123232939436859e-17,1495,875)"></path><path  d="M 1485 1120 L 1485 875" id="v-8085" fill="none" style="cursor: default;"></path><g ><g id="v-8078"  label-idx="0" cursor="move" transform="matrix(1,0,0,1,1485,997.5)" style="cursor: default;"><rect joint-selector="rect" id="v-8081" fill="#ffffff" rx="3" ry="3" pointer-events="none" width="155.7623748779297" height="58.79868125915527" transform="matrix(1,0,0,1,-77.5,-29.399999618530273)"></rect><text joint-selector="text" id="v-8080" font-size="24px" xml:space="preserve" y="0.8em" fill="#707070" text-anchor="middle" pointer-events="none" font-family="Roboto" font-weight="normal" transform="matrix(1,0,0,1,0,-25.5)"><tspan  dy="0">6: detects new</tspan><tspan dy="1.2em" x="0" >model version</tspan></text></g><g id="v-8079"  label-idx="1" cursor="move" transform="matrix(1,0,0,1,1475,1039.5)" style="cursor: default;"><rect joint-selector="rect" id="v-8083" fill="#ffffff" rx="3" ry="3"  width="0" height="0" transform="matrix(1,0,0,1,0,0)" display="none"></rect><text joint-selector="text" id="v-8082" fill="#000000" font-size="14" text-anchor="middle" pointer-events="none"></text></g></g><g  display="none"></g><g  id="v-8088" display="none"><g  id="v-8076"><path  end="source" d="M 26 0 L 0 13 L 26 26 z"></path></g><g  id="v-8077"><path  end="target" d="M 26 0 L 0 13 L 26 26 z"></path></g></g><g  id="v-8087" display="none"><g  id="v-8075" transform="translate(1485, 1080) "><g  event="remove"><circle r="11"></circle><path transform="scale(.8) translate(-16, -16)" d="M24.778,21.419 19.276,15.917 24.777,10.415 21.949,7.585 16.447,13.087 10.945,7.585 8.117,10.415 13.618,15.917 8.116,21.419 10.946,24.248 16.447,18.746 21.948,24.248z"></path><title>Remove link.</title></g><g  event="link:options"><circle r="11" transform="translate(25)"></circle><path fill="white" transform="scale(.55) translate(29, -16)" d="M31.229,17.736c0.064-0.571,0.104-1.148,0.104-1.736s-0.04-1.166-0.104-1.737l-4.377-1.557c-0.218-0.716-0.504-1.401-0.851-2.05l1.993-4.192c-0.725-0.91-1.549-1.734-2.458-2.459l-4.193,1.994c-0.647-0.347-1.334-0.632-2.049-0.849l-1.558-4.378C17.165,0.708,16.588,0.667,16,0.667s-1.166,0.041-1.737,0.105L12.707,5.15c-0.716,0.217-1.401,0.502-2.05,0.849L6.464,4.005C5.554,4.73,4.73,5.554,4.005,6.464l1.994,4.192c-0.347,0.648-0.632,1.334-0.849,2.05l-4.378,1.557C0.708,14.834,0.667,15.412,0.667,16s0.041,1.165,0.105,1.736l4.378,1.558c0.217,0.715,0.502,1.401,0.849,2.049l-1.994,4.193c0.725,0.909,1.549,1.733,2.459,2.458l4.192-1.993c0.648,0.347,1.334,0.633,2.05,0.851l1.557,4.377c0.571,0.064,1.148,0.104,1.737,0.104c0.588,0,1.165-0.04,1.736-0.104l1.558-4.377c0.715-0.218,1.399-0.504,2.049-0.851l4.193,1.993c0.909-0.725,1.733-1.549,2.458-2.458l-1.993-4.193c0.347-0.647,0.633-1.334,0.851-2.049L31.229,17.736zM16,20.871c-2.69,0-4.872-2.182-4.872-4.871c0-2.69,2.182-4.872,4.872-4.872c2.689,0,4.871,2.182,4.871,4.872C20.871,18.689,18.689,20.871,16,20.871z"></path><title>Link options.</title></g></g></g></g><g   id="j_247" ><path  stroke="#707070" d="M 1485 575 L 1485 425" id="v-8101" stroke-width="2" stroke-dasharray="30 30" fill="none"></path><path  fill="black" stroke="black" d="M 0 0 0 0" transform="matrix(-1.8369694847843637e-16,-0.9999995827674866,0.9999995827674866,-1.8369694847843637e-16,1485,575)"></path><path  fill="#707070" stroke="#707070" d="M 20 0 L 0 10 L 20 20 z" id="v-8103" transform="matrix(6.123232939436859e-17,0.9999998807907104,-0.9999998807907104,6.123232939436859e-17,1495,425)"></path><path  d="M 1485 575 L 1485 425" id="v-8102" fill="none" style="cursor: default;"></path><g ><g id="v-8095"  label-idx="0" cursor="move" transform="matrix(1,0,0,1,1485,500)" style="cursor: default;"><rect joint-selector="rect" id="v-8098" fill="#ffffff" rx="3" ry="3" pointer-events="none" width="180.64588928222656" height="87.59868621826172" transform="matrix(1,0,0,1,-89.69999694824219,-43.79999923706055)"></rect><text joint-selector="text" id="v-8097" font-size="24px" xml:space="preserve" y="0.8em" fill="#707070" text-anchor="middle" pointer-events="none" font-family="Roboto" font-weight="normal" transform="matrix(1,0,0,1,0,-39.900001525878906)"><tspan  dy="0">7: triggers action</tspan><tspan dy="1.2em" x="0" >to deploy the</tspan><tspan dy="1.2em" x="0" >model</tspan></text></g><g id="v-8096"  label-idx="1" cursor="move" transform="matrix(1,0,0,1,1475,557)" style="cursor: default;"><rect joint-selector="rect" id="v-8100" fill="#ffffff" rx="3" ry="3"  width="0" height="0" transform="matrix(1,0,0,1,0,0)" display="none"></rect><text joint-selector="text" id="v-8099" fill="#000000" font-size="14" text-anchor="middle" pointer-events="none"></text></g></g><g  display="none"></g><g  id="v-8105" display="none"><g  id="v-8093"><path  end="source" d="M 26 0 L 0 13 L 26 26 z"></path></g><g  id="v-8094"><path  end="target" d="M 26 0 L 0 13 L 26 26 z"></path></g></g><g  id="v-8104" display="none"><g  id="v-8092" transform="translate(1485, 535) "><g  event="remove"><circle r="11"></circle><path transform="scale(.8) translate(-16, -16)" d="M24.778,21.419 19.276,15.917 24.777,10.415 21.949,7.585 16.447,13.087 10.945,7.585 8.117,10.415 13.618,15.917 8.116,21.419 10.946,24.248 16.447,18.746 21.948,24.248z"></path><title>Remove link.</title></g><g  event="link:options"><circle r="11" transform="translate(25)"></circle><path fill="white" transform="scale(.55) translate(29, -16)" d="M31.229,17.736c0.064-0.571,0.104-1.148,0.104-1.736s-0.04-1.166-0.104-1.737l-4.377-1.557c-0.218-0.716-0.504-1.401-0.851-2.05l1.993-4.192c-0.725-0.91-1.549-1.734-2.458-2.459l-4.193,1.994c-0.647-0.347-1.334-0.632-2.049-0.849l-1.558-4.378C17.165,0.708,16.588,0.667,16,0.667s-1.166,0.041-1.737,0.105L12.707,5.15c-0.716,0.217-1.401,0.502-2.05,0.849L6.464,4.005C5.554,4.73,4.73,5.554,4.005,6.464l1.994,4.192c-0.347,0.648-0.632,1.334-0.849,2.05l-4.378,1.557C0.708,14.834,0.667,15.412,0.667,16s0.041,1.165,0.105,1.736l4.378,1.558c0.217,0.715,0.502,1.401,0.849,2.049l-1.994,4.193c0.725,0.909,1.549,1.733,2.459,2.458l4.192-1.993c0.648,0.347,1.334,0.633,2.05,0.851l1.557,4.377c0.571,0.064,1.148,0.104,1.737,0.104c0.588,0,1.165-0.04,1.736-0.104l1.558-4.377c0.715-0.218,1.399-0.504,2.049-0.851l4.193,1.993c0.909-0.725,1.733-1.549,2.458-2.458l-1.993-4.193c0.347-0.647,0.633-1.334,0.851-2.049L31.229,17.736zM16,20.871c-2.69,0-4.872-2.182-4.872-4.871c0-2.69,2.182-4.872,4.872-4.872c2.689,0,4.871,2.182,4.871,4.872C20.871,18.689,18.689,20.871,16,20.871z"></path><title>Link options.</title></g></g></g></g><g   id="j_248" ><path  stroke="#707070" d="M 1710 273 L 2025 270 C 2031.6666666666665 270 2037.9999999999998 271 2044 273 L 2170 315" id="v-8118" stroke-width="2" stroke-dasharray="30 30" fill="none"></path><path  fill="black" stroke="black" d="M 0 0 0 0" transform="matrix(0.9999583959579468,-0.009076457470655441,0.009076457470655441,0.9999583959579468,1710,272.95001220703125)"></path><path  fill="#707070" stroke="#707070" d="M 20 0 L 0 10 L 20 20 z" id="v-8120" transform="matrix(-0.9486831426620483,-0.3162277638912201,0.3162277638912201,-0.9486831426620483,2166.837646484375,324.4868469238281)"></path><path  d="M 1710 273 L 2025 270 C 2031.6666666666665 270 2037.9999999999998 271 2044 273 L 2170 315" id="v-8119" fill="none" style="cursor: default;"></path><g ><g id="v-8112"  label-idx="0" cursor="move" transform="matrix(1,0,0,1,1943.5615234375,270.7756042480469)" style="cursor: default;"><rect joint-selector="rect" id="v-8115" fill="#ffffff" rx="3" ry="3" pointer-events="none" width="186.33795166015625" height="87.59868621826172" transform="matrix(1,0,0,1,-92.69999694824219,-43.79999923706055)"></rect><text joint-selector="text" id="v-8114" font-size="24px" xml:space="preserve" y="0.8em" fill="#707070" text-anchor="middle" pointer-events="none" font-family="Roboto" font-weight="normal" transform="matrix(1,0,0,1,0,-39.900001525878906)"><tspan  dy="0">8: deploy the new</tspan><tspan dy="1.2em" x="0" >trained model in</tspan><tspan dy="1.2em" x="0" >production</tspan></text></g><g id="v-8113"  label-idx="1" cursor="move" transform="matrix(1,0,0,1,1933.5615234375,327.7756042480469)" style="cursor: default;"><rect joint-selector="rect" id="v-8117" fill="#ffffff" rx="3" ry="3"  width="0" height="0" transform="matrix(1,0,0,1,0,0)" display="none"></rect><text joint-selector="text" id="v-8116" fill="#000000" font-size="14" text-anchor="middle" pointer-events="none"></text></g></g><g  display="none"><g  transform="translate(2035, 270)" id="v-10645"><circle  idx="0" r="10"></circle><path  idx="0" d="M16,5.333c-7.732,0-14,4.701-14,10.5c0,1.982,0.741,3.833,2.016,5.414L2,25.667l5.613-1.441c2.339,1.317,5.237,2.107,8.387,2.107c7.732,0,14-4.701,14-10.5C30,10.034,23.732,5.333,16,5.333z" transform="translate(5, -33)"></path><path  idx="0" transform="scale(.8) translate(9.5, -37)" d="M24.778,21.419 19.276,15.917 24.777,10.415 21.949,7.585 16.447,13.087 10.945,7.585 8.117,10.415 13.618,15.917 8.116,21.419 10.946,24.248 16.447,18.746 21.948,24.248z"><title>Remove vertex.</title></path></g></g><g  id="v-8122" display="none"><g  id="v-8110"><path  end="source" d="M 26 0 L 0 13 L 26 26 z"></path></g><g  id="v-8111"><path  end="target" d="M 26 0 L 0 13 L 26 26 z"></path></g></g><g  id="v-8121" display="none"><g  id="v-8109" transform="translate(1749.9981860644389, 272.6190648946244) "><g  event="remove"><circle r="11"></circle><path transform="scale(.8) translate(-16, -16)" d="M24.778,21.419 19.276,15.917 24.777,10.415 21.949,7.585 16.447,13.087 10.945,7.585 8.117,10.415 13.618,15.917 8.116,21.419 10.946,24.248 16.447,18.746 21.948,24.248z"></path><title>Remove link.</title></g><g  event="link:options"><circle r="11" transform="translate(25)"></circle><path fill="white" transform="scale(.55) translate(29, -16)" d="M31.229,17.736c0.064-0.571,0.104-1.148,0.104-1.736s-0.04-1.166-0.104-1.737l-4.377-1.557c-0.218-0.716-0.504-1.401-0.851-2.05l1.993-4.192c-0.725-0.91-1.549-1.734-2.458-2.459l-4.193,1.994c-0.647-0.347-1.334-0.632-2.049-0.849l-1.558-4.378C17.165,0.708,16.588,0.667,16,0.667s-1.166,0.041-1.737,0.105L12.707,5.15c-0.716,0.217-1.401,0.502-2.05,0.849L6.464,4.005C5.554,4.73,4.73,5.554,4.005,6.464l1.994,4.192c-0.347,0.648-0.632,1.334-0.849,2.05l-4.378,1.557C0.708,14.834,0.667,15.412,0.667,16s0.041,1.165,0.105,1.736l4.378,1.558c0.217,0.715,0.502,1.401,0.849,2.049l-1.994,4.193c0.725,0.909,1.549,1.733,2.459,2.458l4.192-1.993c0.648,0.347,1.334,0.633,2.05,0.851l1.557,4.377c0.571,0.064,1.148,0.104,1.737,0.104c0.588,0,1.165-0.04,1.736-0.104l1.558-4.377c0.715-0.218,1.399-0.504,2.049-0.851l4.193,1.993c0.909-0.725,1.733-1.549,2.458-2.458l-1.993-4.193c0.347-0.647,0.633-1.334,0.851-2.049L31.229,17.736zM16,20.871c-2.69,0-4.872-2.182-4.872-4.871c0-2.69,2.182-4.872,4.872-4.872c2.689,0,4.871,2.182,4.871,4.872C20.871,18.689,18.689,20.871,16,20.871z"></path><title>Link options.</title></g></g></g></g><g   id="j_249" ><path  stroke="#707070" d="M 1260 1418 L 1255 1422 C 1251.6666666666665 1424 1246.6666666666665 1425 1240 1425 L 995 1425 C 988.3333333333333 1425 985 1428.3333333333333 985 1435 L 984 1480" id="v-8135" stroke-width="2" stroke-dasharray="30 30" fill="none"></path><path  fill="black" stroke="black" d="M 0 0 0 0" transform="matrix(-0.8346094489097595,0.5508421063423157,-0.5508421063423157,-0.8346094489097595,1260,1418.4000244140625)"></path><path  fill="#707070" stroke="#707070" d="M 20 0 L 0 10 L 20 20 z" id="v-8137" transform="matrix(0.024356460198760033,-0.9997033476829529,0.9997033476829529,0.024356460198760033,973.6629638671875,1479.75634765625)"></path><path  d="M 1260 1418 L 1255 1422 C 1251.6666666666665 1424 1246.6666666666665 1425 1240 1425 L 995 1425 C 988.3333333333333 1425 985 1428.3333333333333 985 1435 L 984 1480" id="v-8136" fill="none" style="cursor: default;"></path><g ><g id="v-8129"  label-idx="0" cursor="move" transform="matrix(1,0,0,1,1097.814697265625,1425)" style="cursor: default;"><rect joint-selector="rect" id="v-8132" fill="#ffffff" rx="3" ry="3" pointer-events="none" width="167.10801696777344" height="145.19869232177734" transform="matrix(1,0,0,1,-82.69999694824219,-72.5999984741211)"></rect><text joint-selector="text" id="v-8131" font-size="24px" xml:space="preserve" y="0.8em" fill="#707070" text-anchor="middle" pointer-events="none" font-family="Roboto" font-weight="normal" transform="matrix(1,0,0,1,0,-68.69999694824219)"><tspan  dy="0">9: tracks the</tspan><tspan dy="1.2em" x="0" >model</tspan><tspan dy="1.2em" x="0" >performance of</tspan><tspan dy="1.2em" x="0" >the deployed</tspan><tspan dy="1.2em" x="0" >model</tspan></text></g><g id="v-8130"  label-idx="1" cursor="move" transform="matrix(1,0,0,1,1087.814697265625,1512)" style="cursor: default;"><rect joint-selector="rect" id="v-8134" fill="#ffffff" rx="3" ry="3"  width="0" height="0" transform="matrix(1,0,0,1,0,0)" display="none"></rect><text joint-selector="text" id="v-8133" fill="#000000" font-size="14" text-anchor="middle" pointer-events="none"></text></g></g><g  display="none"><g  transform="translate(1250, 1425)" id="v-10609"><circle  idx="0" r="10"></circle><path  idx="0" d="M16,5.333c-7.732,0-14,4.701-14,10.5c0,1.982,0.741,3.833,2.016,5.414L2,25.667l5.613-1.441c2.339,1.317,5.237,2.107,8.387,2.107c7.732,0,14-4.701,14-10.5C30,10.034,23.732,5.333,16,5.333z" transform="translate(5, -33)"></path><path  idx="0" transform="scale(.8) translate(9.5, -37)" d="M24.778,21.419 19.276,15.917 24.777,10.415 21.949,7.585 16.447,13.087 10.945,7.585 8.117,10.415 13.618,15.917 8.116,21.419 10.946,24.248 16.447,18.746 21.948,24.248z"><title>Remove vertex.</title></path></g><g  transform="translate(985, 1425)" id="v-10610"><circle  idx="1" r="10"></circle><path  idx="1" d="M16,5.333c-7.732,0-14,4.701-14,10.5c0,1.982,0.741,3.833,2.016,5.414L2,25.667l5.613-1.441c2.339,1.317,5.237,2.107,8.387,2.107c7.732,0,14-4.701,14-10.5C30,10.034,23.732,5.333,16,5.333z" transform="translate(5, -33)"></path><path  idx="1" transform="scale(.8) translate(9.5, -37)" d="M24.778,21.419 19.276,15.917 24.777,10.415 21.949,7.585 16.447,13.087 10.945,7.585 8.117,10.415 13.618,15.917 8.116,21.419 10.946,24.248 16.447,18.746 21.948,24.248z"><title>Remove vertex.</title></path></g></g><g  id="v-8139" display="none"><g  id="v-8127"><path  end="source" d="M 26 0 L 0 13 L 26 26 z"></path></g><g  id="v-8128"><path  end="target" d="M 26 0 L 0 13 L 26 26 z"></path></g></g><g  id="v-8138" display="none"><g  id="v-8126" transform="translate(1221.8711223966043, 1425) "><g  event="remove"><circle r="11"></circle><path transform="scale(.8) translate(-16, -16)" d="M24.778,21.419 19.276,15.917 24.777,10.415 21.949,7.585 16.447,13.087 10.945,7.585 8.117,10.415 13.618,15.917 8.116,21.419 10.946,24.248 16.447,18.746 21.948,24.248z"></path><title>Remove link.</title></g><g  event="link:options"><circle r="11" transform="translate(25)"></circle><path fill="white" transform="scale(.55) translate(29, -16)" d="M31.229,17.736c0.064-0.571,0.104-1.148,0.104-1.736s-0.04-1.166-0.104-1.737l-4.377-1.557c-0.218-0.716-0.504-1.401-0.851-2.05l1.993-4.192c-0.725-0.91-1.549-1.734-2.458-2.459l-4.193,1.994c-0.647-0.347-1.334-0.632-2.049-0.849l-1.558-4.378C17.165,0.708,16.588,0.667,16,0.667s-1.166,0.041-1.737,0.105L12.707,5.15c-0.716,0.217-1.401,0.502-2.05,0.849L6.464,4.005C5.554,4.73,4.73,5.554,4.005,6.464l1.994,4.192c-0.347,0.648-0.632,1.334-0.849,2.05l-4.378,1.557C0.708,14.834,0.667,15.412,0.667,16s0.041,1.165,0.105,1.736l4.378,1.558c0.217,0.715,0.502,1.401,0.849,2.049l-1.994,4.193c0.725,0.909,1.549,1.733,2.459,2.458l4.192-1.993c0.648,0.347,1.334,0.633,2.05,0.851l1.557,4.377c0.571,0.064,1.148,0.104,1.737,0.104c0.588,0,1.165-0.04,1.736-0.104l1.558-4.377c0.715-0.218,1.399-0.504,2.049-0.851l4.193,1.993c0.909-0.725,1.733-1.549,2.458-2.458l-1.993-4.193c0.347-0.647,0.633-1.334,0.851-2.049L31.229,17.736zM16,20.871c-2.69,0-4.872-2.182-4.872-4.871c0-2.69,2.182-4.872,4.872-4.872c2.689,0,4.871,2.182,4.871,4.872C20.871,18.689,18.689,20.871,16,20.871z"></path><title>Link options.</title></g></g></g></g><g   id="j_250" ><path  stroke="#707070" d="M 1205 1624 L 1825 1606" id="v-8152" stroke-width="2" stroke-dasharray="30 30" fill="none"></path><path  fill="black" stroke="black" d="M 0 0 0 0" transform="matrix(0.9996070265769958,-0.028021300211548805,0.028021300211548805,0.9996070265769958,1205,1623.68994140625)"></path><path  fill="#707070" stroke="#707070" d="M 20 0 L 0 10 L 20 20 z" id="v-8154" transform="matrix(-0.9996071457862854,0.028021303936839104,-0.028021303936839104,-0.9996071457862854,1825.2801513671875,1616.3060302734375)"></path><path  d="M 1205 1624 L 1825 1606" id="v-8153" fill="none" style="cursor: default;"></path><g ><g id="v-8146"  label-idx="0" cursor="move" transform="matrix(1,0,0,1,1515,1615)" style="cursor: default;"><rect joint-selector="rect" id="v-8149" fill="#ffffff" rx="3" ry="3" pointer-events="none" width="174.87692260742188" height="87.59868621826172" transform="matrix(1,0,0,1,-86.30000305175781,-43.79999923706055)"></rect><text joint-selector="text" id="v-8148" font-size="24px" xml:space="preserve" y="0.8em" fill="#707070" text-anchor="middle" pointer-events="none" font-family="Roboto" font-weight="normal" transform="matrix(1,0,0,1,0,-39.900001525878906)"><tspan  dy="0">10: analyses the</tspan><tspan dy="1.2em" x="0" >performance</tspan><tspan dy="1.2em" x="0" >metrics</tspan></text></g><g id="v-8147"  label-idx="1" cursor="move" transform="matrix(1,0,0,1,1505,1672)" style="cursor: default;"><rect joint-selector="rect" id="v-8151" fill="#ffffff" rx="3" ry="3"  width="0" height="0" transform="matrix(1,0,0,1,0,0)" display="none"></rect><text joint-selector="text" id="v-8150" fill="#000000" font-size="14" text-anchor="middle" pointer-events="none"></text></g></g><g  display="none"></g><g  id="v-8156" display="none"><g  id="v-8144"><path  end="source" d="M 26 0 L 0 13 L 26 26 z"></path></g><g  id="v-8145"><path  end="target" d="M 26 0 L 0 13 L 26 26 z"></path></g></g><g  id="v-8155" display="none"><g  id="v-8143" transform="translate(1244.9831532088524, 1622.8391987778075) "><g  event="remove"><circle r="11"></circle><path transform="scale(.8) translate(-16, -16)" d="M24.778,21.419 19.276,15.917 24.777,10.415 21.949,7.585 16.447,13.087 10.945,7.585 8.117,10.415 13.618,15.917 8.116,21.419 10.946,24.248 16.447,18.746 21.948,24.248z"></path><title>Remove link.</title></g><g  event="link:options"><circle r="11" transform="translate(25)"></circle><path fill="white" transform="scale(.55) translate(29, -16)" d="M31.229,17.736c0.064-0.571,0.104-1.148,0.104-1.736s-0.04-1.166-0.104-1.737l-4.377-1.557c-0.218-0.716-0.504-1.401-0.851-2.05l1.993-4.192c-0.725-0.91-1.549-1.734-2.458-2.459l-4.193,1.994c-0.647-0.347-1.334-0.632-2.049-0.849l-1.558-4.378C17.165,0.708,16.588,0.667,16,0.667s-1.166,0.041-1.737,0.105L12.707,5.15c-0.716,0.217-1.401,0.502-2.05,0.849L6.464,4.005C5.554,4.73,4.73,5.554,4.005,6.464l1.994,4.192c-0.347,0.648-0.632,1.334-0.849,2.05l-4.378,1.557C0.708,14.834,0.667,15.412,0.667,16s0.041,1.165,0.105,1.736l4.378,1.558c0.217,0.715,0.502,1.401,0.849,2.049l-1.994,4.193c0.725,0.909,1.549,1.733,2.459,2.458l4.192-1.993c0.648,0.347,1.334,0.633,2.05,0.851l1.557,4.377c0.571,0.064,1.148,0.104,1.737,0.104c0.588,0,1.165-0.04,1.736-0.104l1.558-4.377c0.715-0.218,1.399-0.504,2.049-0.851l4.193,1.993c0.909-0.725,1.733-1.549,2.458-2.458l-1.993-4.193c0.347-0.647,0.633-1.334,0.851-2.049L31.229,17.736zM16,20.871c-2.69,0-4.872-2.182-4.872-4.871c0-2.69,2.182-4.872,4.872-4.872c2.689,0,4.871,2.182,4.871,4.872C20.871,18.689,18.689,20.871,16,20.871z"></path><title>Link options.</title></g></g></g></g><g   id="j_251" ><path  stroke="#707070" d="M 2051 1450 L 2055 850 C 2055 843.3333333333333 2051.6666666666665 840 2045 840 L 1865 840 C 1858.333333333333 840 1854.9999999999998 836.6666666666666 1855 830 L 1855 325 C 1854.9999999999998 318.3333333333333 1851.6666666666665 314.66666666666663 1845 314 L 1710 299" id="v-8169" stroke-width="2" stroke-dasharray="30 30" fill="none"></path><path  fill="black" stroke="black" d="M 0 0 0 0" transform="matrix(0.00657369801774621,-0.9999781250953674,0.9999781250953674,0.00657369801774621,2050.989990234375,1450)"></path><path  fill="#707070" stroke="#707070" d="M 20 0 L 0 10 L 20 20 z" id="v-8171" transform="matrix(0.9942036271095276,0.10751112550497055,-0.10751112550497055,0.9942036271095276,1711.0750732421875,289.3779602050781)"></path><path  d="M 2051 1450 L 2055 850 C 2055 843.3333333333333 2051.6666666666665 840 2045 840 L 1865 840 C 1858.333333333333 840 1854.9999999999998 836.6666666666666 1855 830 L 1855 325 C 1854.9999999999998 318.3333333333333 1851.6666666666665 314.66666666666663 1845 314 L 1710 299" id="v-8170" fill="none" style="cursor: default;"></path><g ><g id="v-8163"  label-idx="0" cursor="move" transform="matrix(1,0,0,1,1926.2425537109375,840)" style="cursor: default;"><rect joint-selector="rect" id="v-8166" fill="#ffffff" rx="3" ry="3" pointer-events="none" width="162.72361755371094" height="116.398681640625" transform="matrix(1,0,0,1,-80.19999694824219,-58.20000076293945)"></rect><text joint-selector="text" id="v-8165" font-size="24px" xml:space="preserve" y="0.8em" fill="#707070" text-anchor="middle" pointer-events="none" font-family="Roboto" font-weight="normal" transform="matrix(1,0,0,1,0,-54.29999923706055)"><tspan  dy="0">11: triggers the</tspan><tspan dy="1.2em" x="0" >pipeline for</tspan><tspan dy="1.2em" x="0" >potential</tspan><tspan dy="1.2em" x="0" >retraining</tspan></text></g><g id="v-8164"  label-idx="1" cursor="move" transform="matrix(1,0,0,1,1916.2425537109375,912)" style="cursor: default;"><rect joint-selector="rect" id="v-8168" fill="#ffffff" rx="3" ry="3"  width="0" height="0" transform="matrix(1,0,0,1,0,0)" display="none"></rect><text joint-selector="text" id="v-8167" fill="#000000" font-size="14" text-anchor="middle" pointer-events="none"></text></g></g><g  display="none"><g  transform="translate(2055, 840)" id="v-9251"><circle  idx="0" r="10"></circle><path  idx="0" d="M16,5.333c-7.732,0-14,4.701-14,10.5c0,1.982,0.741,3.833,2.016,5.414L2,25.667l5.613-1.441c2.339,1.317,5.237,2.107,8.387,2.107c7.732,0,14-4.701,14-10.5C30,10.034,23.732,5.333,16,5.333z" transform="translate(5, -33)"></path><path  idx="0" transform="scale(.8) translate(9.5, -37)" d="M24.778,21.419 19.276,15.917 24.777,10.415 21.949,7.585 16.447,13.087 10.945,7.585 8.117,10.415 13.618,15.917 8.116,21.419 10.946,24.248 16.447,18.746 21.948,24.248z"><title>Remove vertex.</title></path></g><g  transform="translate(1855, 840)" id="v-9252"><circle  idx="1" r="10"></circle><path  idx="1" d="M16,5.333c-7.732,0-14,4.701-14,10.5c0,1.982,0.741,3.833,2.016,5.414L2,25.667l5.613-1.441c2.339,1.317,5.237,2.107,8.387,2.107c7.732,0,14-4.701,14-10.5C30,10.034,23.732,5.333,16,5.333z" transform="translate(5, -33)"></path><path  idx="1" transform="scale(.8) translate(9.5, -37)" d="M24.778,21.419 19.276,15.917 24.777,10.415 21.949,7.585 16.447,13.087 10.945,7.585 8.117,10.415 13.618,15.917 8.116,21.419 10.946,24.248 16.447,18.746 21.948,24.248z"><title>Remove vertex.</title></path></g><g  transform="translate(1855, 315)" id="v-9253"><circle  idx="2" r="10"></circle><path  idx="2" d="M16,5.333c-7.732,0-14,4.701-14,10.5c0,1.982,0.741,3.833,2.016,5.414L2,25.667l5.613-1.441c2.339,1.317,5.237,2.107,8.387,2.107c7.732,0,14-4.701,14-10.5C30,10.034,23.732,5.333,16,5.333z" transform="translate(5, -33)"></path><path  idx="2" transform="scale(.8) translate(9.5, -37)" d="M24.778,21.419 19.276,15.917 24.777,10.415 21.949,7.585 16.447,13.087 10.945,7.585 8.117,10.415 13.618,15.917 8.116,21.419 10.946,24.248 16.447,18.746 21.948,24.248z"><title>Remove vertex.</title></path></g></g><g  id="v-8173" display="none"><g  id="v-8161"><path  end="source" d="M 26 0 L 0 13 L 26 26 z"></path></g><g  id="v-8162"><path  end="target" d="M 26 0 L 0 13 L 26 26 z"></path></g></g><g  id="v-8172" display="none"><g  id="v-8160" transform="translate(2051.2666607409383, 1410.0008888592602) "><g  event="remove"><circle r="11"></circle><path transform="scale(.8) translate(-16, -16)" d="M24.778,21.419 19.276,15.917 24.777,10.415 21.949,7.585 16.447,13.087 10.945,7.585 8.117,10.415 13.618,15.917 8.116,21.419 10.946,24.248 16.447,18.746 21.948,24.248z"></path><title>Remove link.</title></g><g  event="link:options"><circle r="11" transform="translate(25)"></circle><path fill="white" transform="scale(.55) translate(29, -16)" d="M31.229,17.736c0.064-0.571,0.104-1.148,0.104-1.736s-0.04-1.166-0.104-1.737l-4.377-1.557c-0.218-0.716-0.504-1.401-0.851-2.05l1.993-4.192c-0.725-0.91-1.549-1.734-2.458-2.459l-4.193,1.994c-0.647-0.347-1.334-0.632-2.049-0.849l-1.558-4.378C17.165,0.708,16.588,0.667,16,0.667s-1.166,0.041-1.737,0.105L12.707,5.15c-0.716,0.217-1.401,0.502-2.05,0.849L6.464,4.005C5.554,4.73,4.73,5.554,4.005,6.464l1.994,4.192c-0.347,0.648-0.632,1.334-0.849,2.05l-4.378,1.557C0.708,14.834,0.667,15.412,0.667,16s0.041,1.165,0.105,1.736l4.378,1.558c0.217,0.715,0.502,1.401,0.849,2.049l-1.994,4.193c0.725,0.909,1.549,1.733,2.459,2.458l4.192-1.993c0.648,0.347,1.334,0.633,2.05,0.851l1.557,4.377c0.571,0.064,1.148,0.104,1.737,0.104c0.588,0,1.165-0.04,1.736-0.104l1.558-4.377c0.715-0.218,1.399-0.504,2.049-0.851l4.193,1.993c0.909-0.725,1.733-1.549,2.458-2.458l-1.993-4.193c0.347-0.647,0.633-1.334,0.851-2.049L31.229,17.736zM16,20.871c-2.69,0-4.872-2.182-4.872-4.871c0-2.69,2.182-4.872,4.872-4.872c2.689,0,4.871,2.182,4.871,4.872C20.871,18.689,18.689,20.871,16,20.871z"></path><title>Link options.</title></g></g></g></g><g   id="j_252" ><path  stroke="#707070" d="M 975 880 L 975 1070 C 975 1076.6666666666665 978.3333333333333 1080 985 1080 L 1440 1085 C 1446.6666666666665 1085 1450.6666666666665 1088.3333333333333 1452 1095 L 1457 1120" id="v-8186" stroke-width="2" stroke-dasharray="30 30" fill="none"></path><path  fill="black" stroke="black" d="M 0 0 0 0" transform="matrix(6.123231615947879e-17,0.9999996423721313,-0.9999996423721313,6.123231615947879e-17,975,880)"></path><path  fill="#707070" stroke="#707070" d="M 20 0 L 0 10 L 20 20 z" id="v-8188" transform="matrix(-0.18584787845611572,-0.9825783967971802,0.9825783967971802,-0.18584787845611572,1446.794189453125,1121.8583984375)"></path><path  d="M 975 880 L 975 1070 C 975 1076.6666666666665 978.3333333333333 1080 985 1080 L 1440 1085 C 1446.6666666666665 1085 1450.6666666666665 1088.3333333333333 1452 1095 L 1457 1120" id="v-8187" fill="none" style="cursor: default;"></path><g ><g id="v-8180"  label-idx="0" cursor="move" transform="matrix(1,0,0,1,1130.7474365234375,1081.6015625)" style="cursor: default;"><rect joint-selector="rect" id="v-8183" fill="#ffffff" rx="3" ry="3" pointer-events="none" width="176.79991149902344" height="173.9986801147461" transform="matrix(1,0,0,1,-88.0999984741211,-87)"></rect><text joint-selector="text" id="v-8182" font-size="24px" xml:space="preserve" y="0.8em" fill="#707070" text-anchor="middle" pointer-events="none" font-family="Roboto" font-weight="normal" transform="matrix(1,0,0,1,0,-83.0999984741211)"><tspan  dy="0">12: retrieves and</tspan><tspan dy="1.2em" x="0" >displays</tspan><tspan dy="1.2em" x="0" >experiment</tspan><tspan dy="1.2em" x="0" >results and</tspan><tspan dy="1.2em" x="0" >model</tspan><tspan dy="1.2em" x="0" >performance</tspan></text></g><g id="v-8181"  label-idx="1" cursor="move" transform="matrix(1,0,0,1,1120.7474365234375,1183.6015625)" style="cursor: default;"><rect joint-selector="rect" id="v-8185" fill="#ffffff" rx="3" ry="3"  width="0" height="0" transform="matrix(1,0,0,1,0,0)" display="none"></rect><text joint-selector="text" id="v-8184" fill="#000000" font-size="14" text-anchor="middle" pointer-events="none"></text></g></g><g  display="none"><g  transform="translate(975, 1080)" id="v-10285"><circle  idx="0" r="10"></circle><path  idx="0" d="M16,5.333c-7.732,0-14,4.701-14,10.5c0,1.982,0.741,3.833,2.016,5.414L2,25.667l5.613-1.441c2.339,1.317,5.237,2.107,8.387,2.107c7.732,0,14-4.701,14-10.5C30,10.034,23.732,5.333,16,5.333z" transform="translate(5, -33)"></path><path  idx="0" transform="scale(.8) translate(9.5, -37)" d="M24.778,21.419 19.276,15.917 24.777,10.415 21.949,7.585 16.447,13.087 10.945,7.585 8.117,10.415 13.618,15.917 8.116,21.419 10.946,24.248 16.447,18.746 21.948,24.248z"><title>Remove vertex.</title></path></g><g  transform="translate(1450, 1085)" id="v-10286"><circle  idx="1" r="10"></circle><path  idx="1" d="M16,5.333c-7.732,0-14,4.701-14,10.5c0,1.982,0.741,3.833,2.016,5.414L2,25.667l5.613-1.441c2.339,1.317,5.237,2.107,8.387,2.107c7.732,0,14-4.701,14-10.5C30,10.034,23.732,5.333,16,5.333z" transform="translate(5, -33)"></path><path  idx="1" transform="scale(.8) translate(9.5, -37)" d="M24.778,21.419 19.276,15.917 24.777,10.415 21.949,7.585 16.447,13.087 10.945,7.585 8.117,10.415 13.618,15.917 8.116,21.419 10.946,24.248 16.447,18.746 21.948,24.248z"><title>Remove vertex.</title></path></g></g><g  id="v-8190" display="none"><g  id="v-8178"><path  end="source" d="M 26 0 L 0 13 L 26 26 z"></path></g><g  id="v-8179"><path  end="target" d="M 26 0 L 0 13 L 26 26 z"></path></g></g><g  id="v-8189" display="none"><g  id="v-8177" transform="translate(975, 920) "><g  event="remove"><circle r="11"></circle><path transform="scale(.8) translate(-16, -16)" d="M24.778,21.419 19.276,15.917 24.777,10.415 21.949,7.585 16.447,13.087 10.945,7.585 8.117,10.415 13.618,15.917 8.116,21.419 10.946,24.248 16.447,18.746 21.948,24.248z"></path><title>Remove link.</title></g><g  event="link:options"><circle r="11" transform="translate(25)"></circle><path fill="white" transform="scale(.55) translate(29, -16)" d="M31.229,17.736c0.064-0.571,0.104-1.148,0.104-1.736s-0.04-1.166-0.104-1.737l-4.377-1.557c-0.218-0.716-0.504-1.401-0.851-2.05l1.993-4.192c-0.725-0.91-1.549-1.734-2.458-2.459l-4.193,1.994c-0.647-0.347-1.334-0.632-2.049-0.849l-1.558-4.378C17.165,0.708,16.588,0.667,16,0.667s-1.166,0.041-1.737,0.105L12.707,5.15c-0.716,0.217-1.401,0.502-2.05,0.849L6.464,4.005C5.554,4.73,4.73,5.554,4.005,6.464l1.994,4.192c-0.347,0.648-0.632,1.334-0.849,2.05l-4.378,1.557C0.708,14.834,0.667,15.412,0.667,16s0.041,1.165,0.105,1.736l4.378,1.558c0.217,0.715,0.502,1.401,0.849,2.049l-1.994,4.193c0.725,0.909,1.549,1.733,2.459,2.458l4.192-1.993c0.648,0.347,1.334,0.633,2.05,0.851l1.557,4.377c0.571,0.064,1.148,0.104,1.737,0.104c0.588,0,1.165-0.04,1.736-0.104l1.558-4.377c0.715-0.218,1.399-0.504,2.049-0.851l4.193,1.993c0.909-0.725,1.733-1.549,2.458-2.458l-1.993-4.193c0.347-0.647,0.633-1.334,0.851-2.049L31.229,17.736zM16,20.871c-2.69,0-4.872-2.182-4.872-4.871c0-2.69,2.182-4.872,4.872-4.872c2.689,0,4.871,2.182,4.871,4.872C20.871,18.689,18.689,20.871,16,20.871z"></path><title>Link options.</title></g></g></g></g><g   id="j_253" ><path  stroke="#707070" d="M 1170 880 L 1182 889 C 1187.3333333333333 893 1190 898.3333333333333 1190 905 L 1190 980 C 1190 986.6666666666666 1193.3333333333333 990 1200 990 L 2020 975 C 2026.6666666666665 975 2030 978.3333333333333 2030 985 L 2045 1425 C 2045 1431.6666666666665 2045 1437.6666666666665 2045 1443 L 2045 1450" id="v-8203" stroke-width="2" stroke-dasharray="30 30" fill="none"></path><path  fill="black" stroke="black" d="M 0 0 0 0" transform="matrix(0.7933772802352905,0.608729362487793,-0.608729362487793,0.7933772802352905,1170.449951171875,880)"></path><path  fill="#707070" stroke="#707070" d="M 20 0 L 0 10 L 20 20 z" id="v-8205" transform="matrix(-0.029986416921019554,-0.9995499849319458,0.9995499849319458,-0.029986416921019554,2035.4544677734375,1450.2999267578125)"></path><path  d="M 1170 880 L 1182 889 C 1187.3333333333333 893 1190 898.3333333333333 1190 905 L 1190 980 C 1190 986.6666666666666 1193.3333333333333 990 1200 990 L 2020 975 C 2026.6666666666665 975 2030 978.3333333333333 2030 985 L 2045 1425 C 2045 1431.6666666666665 2045 1437.6666666666665 2045 1443 L 2045 1450" id="v-8204" fill="none" style="cursor: default;"></path><g ><g id="v-8197"  label-idx="0" cursor="move" transform="matrix(1,0,0,1,1788.295166015625,979.238525390625)" style="cursor: default;"><rect joint-selector="rect" id="v-8200" fill="#ffffff" rx="3" ry="3" pointer-events="none" width="176.79991149902344" height="87.59868621826172" transform="matrix(1,0,0,1,-88.0999984741211,-43.79999923706055)"></rect><text joint-selector="text" id="v-8199" font-size="24px" xml:space="preserve" y="0.8em" fill="#707070" text-anchor="middle" pointer-events="none" font-family="Roboto" font-weight="normal" transform="matrix(1,0,0,1,0,-39.900001525878906)"><tspan  dy="0">13: retrieves and</tspan><tspan dy="1.2em" x="0" >displays drift</tspan><tspan dy="1.2em" x="0" >notifications</tspan></text></g><g id="v-8198"  label-idx="1" cursor="move" transform="matrix(1,0,0,1,1778.295166015625,1036.238525390625)" style="cursor: default;"><rect joint-selector="rect" id="v-8202" fill="#ffffff" rx="3" ry="3"  width="0" height="0" transform="matrix(1,0,0,1,0,0)" display="none"></rect><text joint-selector="text" id="v-8201" fill="#000000" font-size="14" text-anchor="middle" pointer-events="none"></text></g></g><g  display="none"><g  transform="translate(1190, 895)" id="v-9672"><circle  idx="0" r="10"></circle><path  idx="0" d="M16,5.333c-7.732,0-14,4.701-14,10.5c0,1.982,0.741,3.833,2.016,5.414L2,25.667l5.613-1.441c2.339,1.317,5.237,2.107,8.387,2.107c7.732,0,14-4.701,14-10.5C30,10.034,23.732,5.333,16,5.333z" transform="translate(5, -33)"></path><path  idx="0" transform="scale(.8) translate(9.5, -37)" d="M24.778,21.419 19.276,15.917 24.777,10.415 21.949,7.585 16.447,13.087 10.945,7.585 8.117,10.415 13.618,15.917 8.116,21.419 10.946,24.248 16.447,18.746 21.948,24.248z"><title>Remove vertex.</title></path></g><g  transform="translate(1190, 990)" id="v-9673"><circle  idx="1" r="10"></circle><path  idx="1" d="M16,5.333c-7.732,0-14,4.701-14,10.5c0,1.982,0.741,3.833,2.016,5.414L2,25.667l5.613-1.441c2.339,1.317,5.237,2.107,8.387,2.107c7.732,0,14-4.701,14-10.5C30,10.034,23.732,5.333,16,5.333z" transform="translate(5, -33)"></path><path  idx="1" transform="scale(.8) translate(9.5, -37)" d="M24.778,21.419 19.276,15.917 24.777,10.415 21.949,7.585 16.447,13.087 10.945,7.585 8.117,10.415 13.618,15.917 8.116,21.419 10.946,24.248 16.447,18.746 21.948,24.248z"><title>Remove vertex.</title></path></g><g  transform="translate(2030, 975)" id="v-9674"><circle  idx="2" r="10"></circle><path  idx="2" d="M16,5.333c-7.732,0-14,4.701-14,10.5c0,1.982,0.741,3.833,2.016,5.414L2,25.667l5.613-1.441c2.339,1.317,5.237,2.107,8.387,2.107c7.732,0,14-4.701,14-10.5C30,10.034,23.732,5.333,16,5.333z" transform="translate(5, -33)"></path><path  idx="2" transform="scale(.8) translate(9.5, -37)" d="M24.778,21.419 19.276,15.917 24.777,10.415 21.949,7.585 16.447,13.087 10.945,7.585 8.117,10.415 13.618,15.917 8.116,21.419 10.946,24.248 16.447,18.746 21.948,24.248z"><title>Remove vertex.</title></path></g><g  transform="translate(2045, 1435)" id="v-9675"><circle  idx="3" r="10"></circle><path  idx="3" d="M16,5.333c-7.732,0-14,4.701-14,10.5c0,1.982,0.741,3.833,2.016,5.414L2,25.667l5.613-1.441c2.339,1.317,5.237,2.107,8.387,2.107c7.732,0,14-4.701,14-10.5C30,10.034,23.732,5.333,16,5.333z" transform="translate(5, -33)"></path><path  idx="3" transform="scale(.8) translate(9.5, -37)" d="M24.778,21.419 19.276,15.917 24.777,10.415 21.949,7.585 16.447,13.087 10.945,7.585 8.117,10.415 13.618,15.917 8.116,21.419 10.946,24.248 16.447,18.746 21.948,24.248z"><title>Remove vertex.</title></path></g></g><g  id="v-8207" display="none"><g  id="v-8195"><path  end="source" d="M 26 0 L 0 13 L 26 26 z"></path></g><g  id="v-8196"><path  end="target" d="M 26 0 L 0 13 L 26 26 z"></path></g></g><g  id="v-8206" display="none"><g  id="v-8194" transform="translate(1189.9999999999998, 911.3944259174235) "><g  event="remove"><circle r="11"></circle><path transform="scale(.8) translate(-16, -16)" d="M24.778,21.419 19.276,15.917 24.777,10.415 21.949,7.585 16.447,13.087 10.945,7.585 8.117,10.415 13.618,15.917 8.116,21.419 10.946,24.248 16.447,18.746 21.948,24.248z"></path><title>Remove link.</title></g><g  event="link:options"><circle r="11" transform="translate(25)"></circle><path fill="white" transform="scale(.55) translate(29, -16)" d="M31.229,17.736c0.064-0.571,0.104-1.148,0.104-1.736s-0.04-1.166-0.104-1.737l-4.377-1.557c-0.218-0.716-0.504-1.401-0.851-2.05l1.993-4.192c-0.725-0.91-1.549-1.734-2.458-2.459l-4.193,1.994c-0.647-0.347-1.334-0.632-2.049-0.849l-1.558-4.378C17.165,0.708,16.588,0.667,16,0.667s-1.166,0.041-1.737,0.105L12.707,5.15c-0.716,0.217-1.401,0.502-2.05,0.849L6.464,4.005C5.554,4.73,4.73,5.554,4.005,6.464l1.994,4.192c-0.347,0.648-0.632,1.334-0.849,2.05l-4.378,1.557C0.708,14.834,0.667,15.412,0.667,16s0.041,1.165,0.105,1.736l4.378,1.558c0.217,0.715,0.502,1.401,0.849,2.049l-1.994,4.193c0.725,0.909,1.549,1.733,2.459,2.458l4.192-1.993c0.648,0.347,1.334,0.633,2.05,0.851l1.557,4.377c0.571,0.064,1.148,0.104,1.737,0.104c0.588,0,1.165-0.04,1.736-0.104l1.558-4.377c0.715-0.218,1.399-0.504,2.049-0.851l4.193,1.993c0.909-0.725,1.733-1.549,2.458-2.458l-1.993-4.193c0.347-0.647,0.633-1.334,0.851-2.049L31.229,17.736zM16,20.871c-2.69,0-4.872-2.182-4.872-4.871c0-2.69,2.182-4.872,4.872-4.872c2.689,0,4.871,2.182,4.871,4.872C20.871,18.689,18.689,20.871,16,20.871z"></path><title>Link options.</title></g></g></g></g></g><g ></g><g ></g><g ></g></g></svg>