<svg xmlns="http://www.w3.org/2000/svg" xmlns:xlink="http://www.w3.org/1999/xlink" version="1.1" viewBox="0 0 2480 1748" style="background: #ffffff"><defs><style>@import url(http://fonts.googleapis.com/css?family=Roboto);</style></defs><defs joint-selector="defs"></defs><g  joint-selector="layers" transform="matrix(1,0,0,1,0,0)"><g ></g><g ><g   id="j_71"  transform="translate(20,1710.5)"><g id="v-863"><text  id="v-864" font-size="22px" xml:space="preserve" y="0.8em" font-weight="normal" text-anchor="start" fill="#aaaaaa" pointer-events="none" display="block" font-family="Roboto"><tspan  dy="0" display="block">Tuesday, 4 June 2024 at 15:33 Central European Summer Time</tspan></text></g></g><g   id="j_70"  transform="translate(20,1665.5)"><g id="v-861"><text  id="v-862" font-size="36px" xml:space="preserve" y="0.8em" font-weight="normal" text-anchor="start" fill="#000000" pointer-events="none" display="block" font-family="Roboto"><tspan  dy="0" display="block">[Dynamic view] Data Drift occurence dynamic view</tspan></text></g></g><g   id="j_74"  transform="translate(105,30)" style=""><g id="v-884"><rect  id="v-885" width="2305" height="945" rx="0" ry="0" fill="#ffffff" stroke="#e68da0" stroke-width="1" stroke-dasharray="20,20" pointer-events="none"></rect><text  id="v-886" font-size="24px" xml:space="preserve" y="906" font-weight="normal" fill="#e68da0" text-anchor="start" pointer-events="visible" font-family="Roboto" transform="matrix(1,0,0,1,15,0)"><tspan  dy="0">AI4EOSC Platform</tspan></text><text  id="v-887" font-size="17px" xml:space="preserve" y="930" font-weight="normal" fill="#e68da0" text-anchor="start" pointer-events="visible" font-family="Roboto" transform="matrix(1,0,0,1,15,0)"><tspan  dy="0">[Software System]</tspan></text><image  id="v-888" pointer-events="visible"></image></g></g><g   id="j_73"  transform="translate(125,50)" style=""><g id="v-879"><rect  id="v-880" width="2265" height="834" rx="0" ry="0" fill="#ffffff" stroke="#444444" stroke-width="1" stroke-dasharray="5,5" pointer-events="none"></rect><text  id="v-881" font-size="24px" xml:space="preserve" y="819" font-weight="normal" fill="#444444" text-anchor="start" pointer-events="visible" font-family="Roboto" transform="matrix(1,0,0,1,15,0)"><tspan  dy="0">AI4EOSC Exchange</tspan></text><text  id="v-882" font-size="17px" xml:space="preserve" display="none" y="819" font-weight="normal" fill="#444444" text-anchor="start" pointer-events="visible" font-family="Roboto" transform="matrix(1,0,0,1,15,0)"><tspan style="fill-opacity: 0; stroke-opacity: 0;"  dy="0">-</tspan></text><image  id="v-883" pointer-events="visible"></image></g></g><g   id="j_79"  transform="translate(1035,50)" style=""><g id="v-939"><rect  id="v-940" width="490" height="394" rx="0" ry="0" fill="#ffffff" stroke="#444444" stroke-width="1" stroke-dasharray="5,5" pointer-events="none"></rect><text  id="v-941" font-size="24px" xml:space="preserve" y="379" font-weight="normal" fill="#444444" text-anchor="start" pointer-events="visible" font-family="Roboto" transform="matrix(1,0,0,1,15,0)"><tspan  dy="0">AI4EOSC training</tspan></text><text  id="v-942" font-size="17px" xml:space="preserve" display="none" y="379" font-weight="normal" fill="#444444" text-anchor="start" pointer-events="visible" font-family="Roboto" transform="matrix(1,0,0,1,15,0)"><tspan style="fill-opacity: 0; stroke-opacity: 0;"  dy="0">-</tspan></text><image  id="v-943" pointer-events="visible"></image></g></g><g   id="j_72"  transform="translate(145,70)" style=""><g  id="v-871" style="opacity: 1;"><rect  id="v-872" rx="10" ry="10" stroke="#007a83" stroke-width="2" pointer-events="visiblePainted" fill="#008792" x="10" y="0" width="150" height="75" style="fill: rgb(0, 135, 146); stroke: rgb(0, 122, 131);"></rect><rect  id="v-873" rx="5" ry="5" stroke="#007a83" stroke-width="2" pointer-events="visiblePainted" fill="#008792" x="0" y="37.5" width="450" height="262.5" style="fill: rgb(0, 135, 146); stroke: rgb(0, 122, 131);"></rect><text  id="v-874" font-size="34" xml:space="preserve" y="0.8em" font-weight="bold" text-anchor="middle" pointer-events="visible" font-family="Roboto" fill="#ffffff" transform="matrix(1,0,0,1,225,95.5999984741211)" style="fill: rgb(255, 255, 255);"><tspan  dy="0">Model and data</tspan><tspan dy="1.2em" x="0" >repository</tspan></text><text  id="v-875" font-size="17" xml:space="preserve" y="0.8em" text-anchor="middle" font-family="Roboto" fill="#ffffff" transform="matrix(1,0,0,1,225,180.60000610351562)" style="fill: rgb(255, 255, 255);"><tspan  dy="0">[Container: dvc]</tspan></text><text  id="v-876" font-size="24" xml:space="preserve" y="0.8em" text-anchor="middle" font-family="Roboto" fill="#ffffff" transform="matrix(1,0,0,1,225,211.89999389648438)" style="fill: rgb(255, 255, 255);"><tspan  dy="0">Track AI models and data sets.</tspan></text><g  id="v-877" font-weight="normal" text-anchor="middle" color="#ffffff" transform="matrix(1,0,0,1,222.5,251.89999389648438)" style="fill: rgb(255, 255, 255);" display="none"><g ></g><g ></g><g ></g><g ></g></g><image  id="v-878"></image></g></g><g   id="j_75"  transform="translate(1920,75)" style=""><g  id="v-892" style="opacity: 1;"><rect  id="v-893" rx="10" ry="10" stroke="#007a83" stroke-width="2" pointer-events="visiblePainted" fill="#008792" x="10" y="0" width="150" height="75" style="fill: rgb(0, 135, 146); stroke: rgb(0, 122, 131);"></rect><rect  id="v-894" rx="5" ry="5" stroke="#007a83" stroke-width="2" pointer-events="visiblePainted" fill="#008792" x="0" y="37.5" width="450" height="262.5" style="fill: rgb(0, 135, 146); stroke: rgb(0, 122, 131);"></rect><text  id="v-895" font-size="34" xml:space="preserve" y="0.8em" font-weight="bold" text-anchor="middle" pointer-events="visible" font-family="Roboto" fill="#ffffff" transform="matrix(1,0,0,1,225,116.9000015258789)" style="fill: rgb(255, 255, 255);"><tspan  dy="0">Model code repository</tspan></text><text  id="v-896" font-size="17" xml:space="preserve" y="0.8em" text-anchor="middle" font-family="Roboto" fill="#ffffff" transform="matrix(1,0,0,1,225,159.39999389648438)" style="fill: rgb(255, 255, 255);"><tspan  dy="0">[Container: Git]</tspan></text><text  id="v-897" font-size="24" xml:space="preserve" y="0.8em" text-anchor="middle" font-family="Roboto" fill="#ffffff" transform="matrix(1,0,0,1,225,190.60000610351562)" style="fill: rgb(255, 255, 255);"><tspan  dy="0">Track AI model code.</tspan></text><g  id="v-898" font-weight="normal" text-anchor="middle" color="#ffffff" transform="matrix(1,0,0,1,222.5,230.60000610351562)" style="fill: rgb(255, 255, 255);" display="none"><g ></g><g ></g><g ></g><g ></g></g><image  id="v-899"></image></g></g><g   id="j_76"  transform="translate(340,510)" style=""><g  id="v-906" style="opacity: 1;"><rect  id="v-907" rx="20" ry="20" stroke="#007a83" stroke-width="2" pointer-events="visiblePainted" fill="#008792" width="450" height="300" style="fill: rgb(0, 135, 146); stroke: rgb(0, 122, 131);"></rect><text  id="v-908" font-size="34" xml:space="preserve" y="0.8em" font-weight="bold" text-anchor="middle" pointer-events="visible" font-family="Roboto" fill="#ffffff" transform="matrix(1,0,0,1,225,83.0999984741211)" style="fill: rgb(255, 255, 255);"><tspan  dy="0">Continuous Integration</tspan></text><text  id="v-909" font-size="17" xml:space="preserve" y="0.8em" text-anchor="middle" font-family="Roboto" fill="#ffffff" transform="matrix(1,0,0,1,225,125.5999984741211)" style="fill: rgb(255, 255, 255);"><tspan  dy="0">[Container]</tspan></text><text  id="v-910" font-size="24" xml:space="preserve" y="0.8em" text-anchor="middle" font-family="Roboto" fill="#ffffff" transform="matrix(1,0,0,1,225,156.89999389648438)" style="fill: rgb(255, 255, 255);"><tspan  dy="0">Ensures quality aspects are fulfilled</tspan><tspan dy="1.2em" x="0" >(code checks, unit checks, etc.).</tspan></text><g  id="v-911" color="#ffffff" transform="matrix(1,0,0,1,222.5,226.89999389648438)" style="fill: rgb(255, 255, 255);" display="none"><g ></g><g ></g><g ></g><g ></g></g><image  id="v-912"></image></g></g><g   id="j_77"  transform="translate(1330,505)" style=""><g  id="v-919" style="opacity: 1;"><rect  id="v-920" rx="20" ry="20" stroke="#007a83" stroke-width="2" pointer-events="visiblePainted" fill="#008792" width="450" height="300" style="fill: rgb(0, 135, 146); stroke: rgb(0, 122, 131);"></rect><text  id="v-921" font-size="34" xml:space="preserve" y="0.8em" font-weight="bold" text-anchor="middle" pointer-events="visible" font-family="Roboto" fill="#ffffff" transform="matrix(1,0,0,1,225,61.900001525878906)" style="fill: rgb(255, 255, 255);"><tspan  dy="0">Continuous Delivery &amp;</tspan><tspan dy="1.2em" x="0" >Deployment</tspan></text><text  id="v-922" font-size="17" xml:space="preserve" y="0.8em" text-anchor="middle" font-family="Roboto" fill="#ffffff" transform="matrix(1,0,0,1,225,146.89999389648438)" style="fill: rgb(255, 255, 255);"><tspan  dy="0">[Container]</tspan></text><text  id="v-923" font-size="24" xml:space="preserve" y="0.8em" text-anchor="middle" font-family="Roboto" fill="#ffffff" transform="matrix(1,0,0,1,225,178.10000610351562)" style="fill: rgb(255, 255, 255);"><tspan  dy="0">Ensures delivery and deployment of</tspan><tspan dy="1.2em" x="0" >new assets.</tspan></text><g  id="v-924" color="#ffffff" transform="matrix(1,0,0,1,222.5,248.10000610351562)" style="fill: rgb(255, 255, 255);" display="none"><g ></g><g ></g><g ></g><g ></g></g><image  id="v-925"></image></g></g><g   id="j_78"  transform="translate(1055,70)" style=""><g  id="v-932" style="opacity: 1;"><rect  id="v-933" rx="20" ry="20" stroke="#007a83" stroke-width="2" pointer-events="visiblePainted" fill="#008792" width="450" height="300" style="fill: rgb(0, 135, 146); stroke: rgb(0, 122, 131);"></rect><text  id="v-934" font-size="34" xml:space="preserve" y="0.8em" font-weight="bold" text-anchor="middle" pointer-events="visible" font-family="Roboto" fill="#ffffff" transform="matrix(1,0,0,1,225,68.0999984741211)" style="fill: rgb(255, 255, 255);"><tspan  dy="0">Training API</tspan></text><text  id="v-935" font-size="17" xml:space="preserve" y="0.8em" text-anchor="middle" font-family="Roboto" fill="#ffffff" transform="matrix(1,0,0,1,225,110.5999984741211)" style="fill: rgb(255, 255, 255);"><tspan  dy="0">[Container: FastAPI + python-nomad]</tspan></text><text  id="v-936" font-size="24" xml:space="preserve" y="0.8em" text-anchor="middle" font-family="Roboto" fill="#ffffff" transform="matrix(1,0,0,1,225,141.89999389648438)" style="fill: rgb(255, 255, 255);"><tspan  dy="0">Provides training creation and</tspan><tspan dy="1.2em" x="0" >monitoring functionality via a</tspan><tspan dy="1.2em" x="0" >JSON/HTTPS API.</tspan></text><g  id="v-937" color="#ffffff" transform="matrix(1,0,0,1,222.5,241.89999389648438)" style="fill: rgb(255, 255, 255);" display="none"><g ></g><g ></g><g ></g><g ></g></g><image  id="v-938"></image></g></g><g   id="j_81"  transform="translate(325,1060)" style=""><g id="v-954"><rect  id="v-955" width="1415" height="541" rx="0" ry="0" fill="#ffffff" stroke="#e68da0" stroke-width="1" stroke-dasharray="20,20" pointer-events="none"></rect><text  id="v-956" font-size="24px" xml:space="preserve" y="502" font-weight="normal" fill="#e68da0" text-anchor="start" pointer-events="visible" font-family="Roboto" transform="matrix(1,0,0,1,15,0)"><tspan  dy="0">MLOps System</tspan></text><text  id="v-957" font-size="17px" xml:space="preserve" y="526" font-weight="normal" fill="#e68da0" text-anchor="start" pointer-events="visible" font-family="Roboto" transform="matrix(1,0,0,1,15,0)"><tspan  dy="0">[Software System]</tspan></text><image  id="v-958" pointer-events="visible"></image></g></g><g   id="j_80"  transform="translate(345,1210)" style=""><g  id="v-947" style="opacity: 1;"><rect  id="v-948" rx="20" ry="20" stroke="#007a83" stroke-width="2" pointer-events="visiblePainted" fill="#008792" width="450" height="300" style="fill: rgb(0, 135, 146); stroke: rgb(0, 122, 131);"></rect><text  id="v-949" font-size="34" xml:space="preserve" y="0.8em" font-weight="bold" text-anchor="middle" pointer-events="visible" font-family="Roboto" fill="#ffffff" transform="matrix(1,0,0,1,225,83.0999984741211)" style="fill: rgb(255, 255, 255);"><tspan  dy="0">MLflow</tspan></text><text  id="v-950" font-size="17" xml:space="preserve" y="0.8em" text-anchor="middle" font-family="Roboto" fill="#ffffff" transform="matrix(1,0,0,1,225,125.5999984741211)" style="fill: rgb(255, 255, 255);"><tspan  dy="0">[Container]</tspan></text><text  id="v-951" font-size="24" xml:space="preserve" y="0.8em" text-anchor="middle" font-family="Roboto" fill="#ffffff" transform="matrix(1,0,0,1,225,156.89999389648438)" style="fill: rgb(255, 255, 255);"><tspan  dy="0">Tracks experiments and manages</tspan><tspan dy="1.2em" x="0" >model versions</tspan></text><g  id="v-952" color="#ffffff" transform="matrix(1,0,0,1,222.5,226.89999389648438)" style="fill: rgb(255, 255, 255);" display="none"><g ></g><g ></g><g ></g><g ></g></g><image  id="v-953"></image></g></g><g   id="j_83"  transform="translate(1230,1080)" style=""><g id="v-972"><rect  id="v-973" width="490" height="394" rx="0" ry="0" fill="#ffffff" stroke="#444444" stroke-width="1" stroke-dasharray="5,5" pointer-events="none"></rect><text  id="v-974" font-size="24px" xml:space="preserve" y="379" font-weight="normal" fill="#444444" text-anchor="start" pointer-events="visible" font-family="Roboto" transform="matrix(1,0,0,1,15,0)"><tspan  dy="0">Monitoring</tspan></text><text  id="v-975" font-size="17px" xml:space="preserve" display="none" y="379" font-weight="normal" fill="#444444" text-anchor="start" pointer-events="visible" font-family="Roboto" transform="matrix(1,0,0,1,15,0)"><tspan style="fill-opacity: 0; stroke-opacity: 0;"  dy="0">-</tspan></text><image  id="v-976" pointer-events="visible"></image></g></g><g   id="j_82"  transform="translate(1250,1100)" style=""><g  id="v-965" style="opacity: 1;"><rect  id="v-966" rx="20" ry="20" stroke="#007a83" stroke-width="2" pointer-events="visiblePainted" fill="#008792" width="450" height="300" style="fill: rgb(0, 135, 146); stroke: rgb(0, 122, 131);"></rect><text  id="v-967" font-size="34" xml:space="preserve" y="0.8em" font-weight="bold" text-anchor="middle" pointer-events="visible" font-family="Roboto" fill="#ffffff" transform="matrix(1,0,0,1,225,98.0999984741211)" style="fill: rgb(255, 255, 255);"><tspan  dy="0">Drift monitoring</tspan></text><text  id="v-968" font-size="17" xml:space="preserve" y="0.8em" text-anchor="middle" font-family="Roboto" fill="#ffffff" transform="matrix(1,0,0,1,225,140.60000610351562)" style="fill: rgb(255, 255, 255);"><tspan  dy="0">[Container]</tspan></text><text  id="v-969" font-size="24" xml:space="preserve" y="0.8em" text-anchor="middle" font-family="Roboto" fill="#ffffff" transform="matrix(1,0,0,1,225,171.89999389648438)" style="fill: rgb(255, 255, 255);"><tspan  dy="0">alert whenever a drift is detected</tspan></text><g  id="v-970" color="#ffffff" transform="matrix(1,0,0,1,222.5,211.89999389648438)" style="fill: rgb(255, 255, 255);" display="none"><g ></g><g ></g><g ></g><g ></g></g><image  id="v-971"></image></g></g><g   id="j_84"  transform="translate(1985,1055)" style=""><g  id="v-980" style="opacity: 1;"><rect  x="0" y="160" width="400" height="240" rx="70" id="v-982" stroke="#00474d" stroke-width="2" pointer-events="visiblePainted" fill="#004f56" style="fill: rgb(0, 79, 86); stroke: rgb(0, 71, 77);"></rect><circle  cx="200" cy="88.88888888888889" r="88.88888888888889" id="v-981" stroke="#00474d" stroke-width="2" pointer-events="visiblePainted" fill="#004f56" style="fill: rgb(0, 79, 86); stroke: rgb(0, 71, 77);"></circle><line  x1="80" y1="266.6666666666667" x2="80" y2="400" id="v-988" stroke="#00474d" stroke-width="2" style="stroke: rgb(0, 71, 77);"></line><line  x1="320" y1="266.6666666666667" x2="320" y2="400" id="v-989" stroke="#00474d" stroke-width="2" style="stroke: rgb(0, 71, 77);"></line><text  id="v-983" font-size="34" xml:space="preserve" y="0.8em" font-weight="bold" text-anchor="middle" pointer-events="visible" font-family="Roboto" fill="#ffffff" transform="matrix(1,0,0,1,200,213.10000610351562)" style="fill: rgb(255, 255, 255);"><tspan  dy="0">User</tspan></text><text  id="v-984" font-size="17" xml:space="preserve" y="0.8em" text-anchor="middle" font-family="Roboto" fill="#ffffff" transform="matrix(1,0,0,1,200,255.60000610351562)" style="fill: rgb(255, 255, 255);"><tspan  dy="0">[Person]</tspan></text><text  id="v-985" font-size="24" xml:space="preserve" y="0.8em" text-anchor="middle" font-family="Roboto" fill="#ffffff" transform="matrix(1,0,0,1,200,286.8999938964844)" style="fill: rgb(255, 255, 255);"><tspan  dy="0">An end-user, willing to exploit</tspan><tspan dy="1.2em" x="0" >existing production models.</tspan></text><g  id="v-986" font-weight="normal" text-anchor="middle" color="#ffffff" transform="matrix(1,0,0,1,197.5,356.8999938964844)" style="fill: rgb(255, 255, 255);" display="none"><g ></g><g ></g><g ></g><g ></g></g><image  id="v-987"></image></g></g><g   id="j_85" ><path  stroke="#707070" d="M 1700 1252 L 1985 1254" id="v-1002" stroke-width="2" stroke-dasharray="30 30" fill="none"></path><path  fill="black" stroke="black" d="M 0 0 0 0" transform="matrix(0.9999751448631287,0.0070524560287594795,-0.0070524560287594795,0.9999751448631287,1700,1251.5799560546875)"></path><path  fill="#707070" stroke="#707070" d="M 20 0 L 0 10 L 20 20 z" id="v-1004" transform="matrix(-0.9999751448631287,-0.007052524946630001,0.007052524946630001,-0.9999751448631287,1984.929443359375,1263.58984375)"></path><path  d="M 1700 1252 L 1985 1254" id="v-1003" fill="none" style="cursor: default;"></path><g ><g id="v-996"  label-idx="0" cursor="move" transform="matrix(1,0,0,1,1842.5,1253)" style="cursor: default;"><rect joint-selector="rect" id="v-999" fill="#ffffff" rx="3" ry="3" pointer-events="none" width="166.8772735595703" height="87.59868621826172" transform="matrix(1,0,0,1,-82.0999984741211,-43.79999923706055)"></rect><text joint-selector="text" id="v-998" font-size="24px" xml:space="preserve" y="0.8em" fill="#707070" text-anchor="middle" pointer-events="none" font-family="Roboto" font-weight="normal" transform="matrix(1,0,0,1,0,-39.900001525878906)"><tspan  dy="0">1: notifies the</tspan><tspan dy="1.2em" x="0" >end_user about</tspan><tspan dy="1.2em" x="0" >the data drift</tspan></text></g><g id="v-997"  label-idx="1" cursor="move" transform="matrix(1,0,0,1,1832.5,1310)" style="cursor: default;"><rect joint-selector="rect" id="v-1001" fill="#ffffff" rx="3" ry="3"  width="0" height="0" transform="matrix(1,0,0,1,0,0)" display="none"></rect><text joint-selector="text" id="v-1000" fill="#000000" font-size="14" text-anchor="middle" pointer-events="none"></text></g></g><g  display="none"></g><g  id="v-1006" display="none"><g  id="v-994"><path  end="source" d="M 26 0 L 0 13 L 26 26 z"></path></g><g  id="v-995"><path  end="target" d="M 26 0 L 0 13 L 26 26 z"></path></g></g><g  id="v-1005" display="none"><g  id="v-993" transform="translate(1739.9990151179395, 1252.280694842933) "><g  event="remove"><circle r="11"></circle><path transform="scale(.8) translate(-16, -16)" d="M24.778,21.419 19.276,15.917 24.777,10.415 21.949,7.585 16.447,13.087 10.945,7.585 8.117,10.415 13.618,15.917 8.116,21.419 10.946,24.248 16.447,18.746 21.948,24.248z"></path><title>Remove link.</title></g><g  event="link:options"><circle r="11" transform="translate(25)"></circle><path fill="white" transform="scale(.55) translate(29, -16)" d="M31.229,17.736c0.064-0.571,0.104-1.148,0.104-1.736s-0.04-1.166-0.104-1.737l-4.377-1.557c-0.218-0.716-0.504-1.401-0.851-2.05l1.993-4.192c-0.725-0.91-1.549-1.734-2.458-2.459l-4.193,1.994c-0.647-0.347-1.334-0.632-2.049-0.849l-1.558-4.378C17.165,0.708,16.588,0.667,16,0.667s-1.166,0.041-1.737,0.105L12.707,5.15c-0.716,0.217-1.401,0.502-2.05,0.849L6.464,4.005C5.554,4.73,4.73,5.554,4.005,6.464l1.994,4.192c-0.347,0.648-0.632,1.334-0.849,2.05l-4.378,1.557C0.708,14.834,0.667,15.412,0.667,16s0.041,1.165,0.105,1.736l4.378,1.558c0.217,0.715,0.502,1.401,0.849,2.049l-1.994,4.193c0.725,0.909,1.549,1.733,2.459,2.458l4.192-1.993c0.648,0.347,1.334,0.633,2.05,0.851l1.557,4.377c0.571,0.064,1.148,0.104,1.737,0.104c0.588,0,1.165-0.04,1.736-0.104l1.558-4.377c0.715-0.218,1.399-0.504,2.049-0.851l4.193,1.993c0.909-0.725,1.733-1.549,2.458-2.458l-1.993-4.193c0.347-0.647,0.633-1.334,0.851-2.049L31.229,17.736zM16,20.871c-2.69,0-4.872-2.182-4.872-4.871c0-2.69,2.182-4.872,4.872-4.872c2.689,0,4.871,2.182,4.871,4.872C20.871,18.689,18.689,20.871,16,20.871z"></path><title>Link options.</title></g></g></g></g><g   id="j_86" ><path  stroke="#707070" d="M 1055 220 L 595 220" id="v-1019" stroke-width="2" stroke-dasharray="30 30" fill="none"></path><path  fill="black" stroke="black" d="M 0 0 0 0" transform="matrix(-0.9999998211860657,1.2246465878873718e-16,-1.2246465878873718e-16,-0.9999998211860657,1055,220)"></path><path  fill="#707070" stroke="#707070" d="M 20 0 L 0 10 L 20 20 z" id="v-1021" transform="matrix(1,0,0,1,595,210)"></path><path  d="M 1055 220 L 595 220" id="v-1020" fill="none" style="cursor: default;"></path><g ><g id="v-1013"  label-idx="0" cursor="move" transform="matrix(1,0,0,1,825,220)" style="cursor: default;"><rect joint-selector="rect" id="v-1016" fill="#ffffff" rx="3" ry="3" pointer-events="none" width="182.5688934326172" height="58.79868125915527" transform="matrix(1,0,0,1,-90.9000015258789,-29.399999618530273)"></rect><text joint-selector="text" id="v-1015" font-size="24px" xml:space="preserve" y="0.8em" fill="#707070" text-anchor="middle" pointer-events="none" font-family="Roboto" font-weight="normal" transform="matrix(1,0,0,1,0,-25.5)"><tspan  dy="0">2: stores the new</tspan><tspan dy="1.2em" x="0" >data</tspan></text></g><g id="v-1014"  label-idx="1" cursor="move" transform="matrix(1,0,0,1,815,262)" style="cursor: default;"><rect joint-selector="rect" id="v-1018" fill="#ffffff" rx="3" ry="3"  width="0" height="0" transform="matrix(1,0,0,1,0,0)" display="none"></rect><text joint-selector="text" id="v-1017" fill="#000000" font-size="14" text-anchor="middle" pointer-events="none"></text></g></g><g  display="none"></g><g  id="v-1023" display="none"><g  id="v-1011"><path  end="source" d="M 26 0 L 0 13 L 26 26 z"></path></g><g  id="v-1012"><path  end="target" d="M 26 0 L 0 13 L 26 26 z"></path></g></g><g  id="v-1022" display="none"><g  id="v-1010" transform="translate(1015.0000000000001, 220) "><g  event="remove"><circle r="11"></circle><path transform="scale(.8) translate(-16, -16)" d="M24.778,21.419 19.276,15.917 24.777,10.415 21.949,7.585 16.447,13.087 10.945,7.585 8.117,10.415 13.618,15.917 8.116,21.419 10.946,24.248 16.447,18.746 21.948,24.248z"></path><title>Remove link.</title></g><g  event="link:options"><circle r="11" transform="translate(25)"></circle><path fill="white" transform="scale(.55) translate(29, -16)" d="M31.229,17.736c0.064-0.571,0.104-1.148,0.104-1.736s-0.04-1.166-0.104-1.737l-4.377-1.557c-0.218-0.716-0.504-1.401-0.851-2.05l1.993-4.192c-0.725-0.91-1.549-1.734-2.458-2.459l-4.193,1.994c-0.647-0.347-1.334-0.632-2.049-0.849l-1.558-4.378C17.165,0.708,16.588,0.667,16,0.667s-1.166,0.041-1.737,0.105L12.707,5.15c-0.716,0.217-1.401,0.502-2.05,0.849L6.464,4.005C5.554,4.73,4.73,5.554,4.005,6.464l1.994,4.192c-0.347,0.648-0.632,1.334-0.849,2.05l-4.378,1.557C0.708,14.834,0.667,15.412,0.667,16s0.041,1.165,0.105,1.736l4.378,1.558c0.217,0.715,0.502,1.401,0.849,2.049l-1.994,4.193c0.725,0.909,1.549,1.733,2.459,2.458l4.192-1.993c0.648,0.347,1.334,0.633,2.05,0.851l1.557,4.377c0.571,0.064,1.148,0.104,1.737,0.104c0.588,0,1.165-0.04,1.736-0.104l1.558-4.377c0.715-0.218,1.399-0.504,2.049-0.851l4.193,1.993c0.909-0.725,1.733-1.549,2.458-2.458l-1.993-4.193c0.347-0.647,0.633-1.334,0.851-2.049L31.229,17.736zM16,20.871c-2.69,0-4.872-2.182-4.872-4.871c0-2.69,2.182-4.872,4.872-4.872c2.689,0,4.871,2.182,4.871,4.872C20.871,18.689,18.689,20.871,16,20.871z"></path><title>Link options.</title></g></g></g></g><g   id="j_87" ><path  stroke="#707070" d="M 1505 221 L 1920 224" id="v-1036" stroke-width="2" stroke-dasharray="30 30" fill="none"></path><path  fill="black" stroke="black" d="M 0 0 0 0" transform="matrix(0.9999830722808838,0.005783034488558769,-0.005783034488558769,0.9999830722808838,1505,221.3000030517578)"></path><path  fill="#707070" stroke="#707070" d="M 20 0 L 0 10 L 20 20 z" id="v-1038" transform="matrix(-0.9999830722808838,-0.005783020984381437,0.005783020984381437,-0.9999830722808838,1919.942138671875,233.6998291015625)"></path><path  d="M 1505 221 L 1920 224" id="v-1037" fill="none" style="cursor: default;"></path><g ><g id="v-1030"  label-idx="0" cursor="move" transform="matrix(1,0,0,1,1712.5,222.5)" style="cursor: default;"><rect joint-selector="rect" id="v-1033" fill="#ffffff" rx="3" ry="3" pointer-events="none" width="168.6079559326172" height="87.59868621826172" transform="matrix(1,0,0,1,-83.9000015258789,-43.79999923706055)"></rect><text joint-selector="text" id="v-1032" font-size="24px" xml:space="preserve" y="0.8em" fill="#707070" text-anchor="middle" pointer-events="none" font-family="Roboto" font-weight="normal" transform="matrix(1,0,0,1,0,-39.900001525878906)"><tspan  dy="0">3: updates the</tspan><tspan dy="1.2em" x="0" >model with new</tspan><tspan dy="1.2em" x="0" >data</tspan></text></g><g id="v-1031"  label-idx="1" cursor="move" transform="matrix(1,0,0,1,1702.5,279.5)" style="cursor: default;"><rect joint-selector="rect" id="v-1035" fill="#ffffff" rx="3" ry="3"  width="0" height="0" transform="matrix(1,0,0,1,0,0)" display="none"></rect><text joint-selector="text" id="v-1034" fill="#000000" font-size="14" text-anchor="middle" pointer-events="none"></text></g></g><g  display="none"></g><g  id="v-1040" display="none"><g  id="v-1028"><path  end="source" d="M 26 0 L 0 13 L 26 26 z"></path></g><g  id="v-1029"><path  end="target" d="M 26 0 L 0 13 L 26 26 z"></path></g></g><g  id="v-1039" display="none"><g  id="v-1027" transform="translate(1544.9989548965273, 221.28914907154117) "><g  event="remove"><circle r="11"></circle><path transform="scale(.8) translate(-16, -16)" d="M24.778,21.419 19.276,15.917 24.777,10.415 21.949,7.585 16.447,13.087 10.945,7.585 8.117,10.415 13.618,15.917 8.116,21.419 10.946,24.248 16.447,18.746 21.948,24.248z"></path><title>Remove link.</title></g><g  event="link:options"><circle r="11" transform="translate(25)"></circle><path fill="white" transform="scale(.55) translate(29, -16)" d="M31.229,17.736c0.064-0.571,0.104-1.148,0.104-1.736s-0.04-1.166-0.104-1.737l-4.377-1.557c-0.218-0.716-0.504-1.401-0.851-2.05l1.993-4.192c-0.725-0.91-1.549-1.734-2.458-2.459l-4.193,1.994c-0.647-0.347-1.334-0.632-2.049-0.849l-1.558-4.378C17.165,0.708,16.588,0.667,16,0.667s-1.166,0.041-1.737,0.105L12.707,5.15c-0.716,0.217-1.401,0.502-2.05,0.849L6.464,4.005C5.554,4.73,4.73,5.554,4.005,6.464l1.994,4.192c-0.347,0.648-0.632,1.334-0.849,2.05l-4.378,1.557C0.708,14.834,0.667,15.412,0.667,16s0.041,1.165,0.105,1.736l4.378,1.558c0.217,0.715,0.502,1.401,0.849,2.049l-1.994,4.193c0.725,0.909,1.549,1.733,2.459,2.458l4.192-1.993c0.648,0.347,1.334,0.633,2.05,0.851l1.557,4.377c0.571,0.064,1.148,0.104,1.737,0.104c0.588,0,1.165-0.04,1.736-0.104l1.558-4.377c0.715-0.218,1.399-0.504,2.049-0.851l4.193,1.993c0.909-0.725,1.733-1.549,2.458-2.458l-1.993-4.193c0.347-0.647,0.633-1.334,0.851-2.049L31.229,17.736zM16,20.871c-2.69,0-4.872-2.182-4.872-4.871c0-2.69,2.182-4.872,4.872-4.872c2.689,0,4.871,2.182,4.871,4.872C20.871,18.689,18.689,20.871,16,20.871z"></path><title>Link options.</title></g></g></g></g><g   id="j_88" ><path  stroke="#707070" d="M 566 810 L 569 1210" id="v-1053" stroke-width="2" stroke-dasharray="30 30" fill="none"></path><path  fill="black" stroke="black" d="M 0 0 0 0" transform="matrix(0.007149859797209501,0.9999743103981018,-0.9999743103981018,0.007149859797209501,566.0700073242188,810)"></path><path  fill="#707070" stroke="#707070" d="M 20 0 L 0 10 L 20 20 z" id="v-1055" transform="matrix(-0.007149992510676384,-0.999974250793457,0.999974250793457,-0.007149992510676384,558.9302978515625,1210.071533203125)"></path><path  d="M 566 810 L 569 1210" id="v-1054" fill="none" style="cursor: default;"></path><g ><g id="v-1047"  label-idx="0" cursor="move" transform="matrix(1,0,0,1,567.5,1010)" style="cursor: default;"><rect joint-selector="rect" id="v-1050" fill="#ffffff" rx="3" ry="3" pointer-events="none" width="159.1660614013672" height="116.398681640625" transform="matrix(1,0,0,1,-79.19999694824219,-58.20000076293945)"></rect><text joint-selector="text" id="v-1049" font-size="24px" xml:space="preserve" y="0.8em" fill="#707070" text-anchor="middle" pointer-events="none" font-family="Roboto" font-weight="normal" transform="matrix(1,0,0,1,0,-54.29999923706055)"><tspan  dy="0">4: picks up the</tspan><tspan dy="1.2em" x="0" >changes in the</tspan><tspan dy="1.2em" x="0" >Model registry</tspan><tspan dy="1.2em" x="0" >and runs tests.</tspan></text></g><g id="v-1048"  label-idx="1" cursor="move" transform="matrix(1,0,0,1,557.5,1082)" style="cursor: default;"><rect joint-selector="rect" id="v-1052" fill="#ffffff" rx="3" ry="3"  width="0" height="0" transform="matrix(1,0,0,1,0,0)" display="none"></rect><text joint-selector="text" id="v-1051" fill="#000000" font-size="14" text-anchor="middle" pointer-events="none"></text></g></g><g  display="none"></g><g  id="v-1057" display="none"><g  id="v-1045"><path  end="source" d="M 26 0 L 0 13 L 26 26 z"></path></g><g  id="v-1046"><path  end="target" d="M 26 0 L 0 13 L 26 26 z"></path></g></g><g  id="v-1056" display="none"><g  id="v-1044" transform="translate(566.299991562856, 849.9988750474588) "><g  event="remove"><circle r="11"></circle><path transform="scale(.8) translate(-16, -16)" d="M24.778,21.419 19.276,15.917 24.777,10.415 21.949,7.585 16.447,13.087 10.945,7.585 8.117,10.415 13.618,15.917 8.116,21.419 10.946,24.248 16.447,18.746 21.948,24.248z"></path><title>Remove link.</title></g><g  event="link:options"><circle r="11" transform="translate(25)"></circle><path fill="white" transform="scale(.55) translate(29, -16)" d="M31.229,17.736c0.064-0.571,0.104-1.148,0.104-1.736s-0.04-1.166-0.104-1.737l-4.377-1.557c-0.218-0.716-0.504-1.401-0.851-2.05l1.993-4.192c-0.725-0.91-1.549-1.734-2.458-2.459l-4.193,1.994c-0.647-0.347-1.334-0.632-2.049-0.849l-1.558-4.378C17.165,0.708,16.588,0.667,16,0.667s-1.166,0.041-1.737,0.105L12.707,5.15c-0.716,0.217-1.401,0.502-2.05,0.849L6.464,4.005C5.554,4.73,4.73,5.554,4.005,6.464l1.994,4.192c-0.347,0.648-0.632,1.334-0.849,2.05l-4.378,1.557C0.708,14.834,0.667,15.412,0.667,16s0.041,1.165,0.105,1.736l4.378,1.558c0.217,0.715,0.502,1.401,0.849,2.049l-1.994,4.193c0.725,0.909,1.549,1.733,2.459,2.458l4.192-1.993c0.648,0.347,1.334,0.633,2.05,0.851l1.557,4.377c0.571,0.064,1.148,0.104,1.737,0.104c0.588,0,1.165-0.04,1.736-0.104l1.558-4.377c0.715-0.218,1.399-0.504,2.049-0.851l4.193,1.993c0.909-0.725,1.733-1.549,2.458-2.458l-1.993-4.193c0.347-0.647,0.633-1.334,0.851-2.049L31.229,17.736zM16,20.871c-2.69,0-4.872-2.182-4.872-4.871c0-2.69,2.182-4.872,4.872-4.872c2.689,0,4.871,2.182,4.871,4.872C20.871,18.689,18.689,20.871,16,20.871z"></path><title>Link options.</title></g></g></g></g><g   id="j_89" ><path  stroke="#707070" d="M 790 659 L 1330 656" id="v-1070" stroke-width="2" stroke-dasharray="30 30" fill="none"></path><path  fill="black" stroke="black" d="M 0 0 0 0" transform="matrix(0.9999871850013733,-0.005037080962210894,0.005037080962210894,0.9999871850013733,790,658.8599853515625)"></path><path  fill="#707070" stroke="#707070" d="M 20 0 L 0 10 L 20 20 z" id="v-1072" transform="matrix(-0.9999871850013733,0.005037080962210894,-0.005037080962210894,-0.9999871850013733,1330.0504150390625,666.139892578125)"></path><path  d="M 790 659 L 1330 656" id="v-1071" fill="none" style="cursor: default;"></path><g ><g id="v-1064"  label-idx="0" cursor="move" transform="matrix(1,0,0,1,1060,657.5)" style="cursor: default;"><rect joint-selector="rect" id="v-1067" fill="#ffffff" rx="3" ry="3" pointer-events="none" width="189.4147491455078" height="116.398681640625" transform="matrix(1,0,0,1,-94.69999694824219,-58.20000076293945)"></rect><text joint-selector="text" id="v-1066" font-size="24px" xml:space="preserve" y="0.8em" fill="#707070" text-anchor="middle" pointer-events="none" font-family="Roboto" font-weight="normal" transform="matrix(1,0,0,1,0,-54.29999923706055)"><tspan  dy="0">5: If tests pass, CI</tspan><tspan dy="1.2em" x="0" >triggers CD to</tspan><tspan dy="1.2em" x="0" >deploy the</tspan><tspan dy="1.2em" x="0" >updated model</tspan></text></g><g id="v-1065"  label-idx="1" cursor="move" transform="matrix(1,0,0,1,1050,729.5)" style="cursor: default;"><rect joint-selector="rect" id="v-1069" fill="#ffffff" rx="3" ry="3"  width="0" height="0" transform="matrix(1,0,0,1,0,0)" display="none"></rect><text joint-selector="text" id="v-1068" fill="#000000" font-size="14" text-anchor="middle" pointer-events="none"></text></g></g><g  display="none"></g><g  id="v-1074" display="none"><g  id="v-1062"><path  end="source" d="M 26 0 L 0 13 L 26 26 z"></path></g><g  id="v-1063"><path  end="target" d="M 26 0 L 0 13 L 26 26 z"></path></g></g><g  id="v-1073" display="none"><g  id="v-1061" transform="translate(829.999382730338, 658.7777812070537) "><g  event="remove"><circle r="11"></circle><path transform="scale(.8) translate(-16, -16)" d="M24.778,21.419 19.276,15.917 24.777,10.415 21.949,7.585 16.447,13.087 10.945,7.585 8.117,10.415 13.618,15.917 8.116,21.419 10.946,24.248 16.447,18.746 21.948,24.248z"></path><title>Remove link.</title></g><g  event="link:options"><circle r="11" transform="translate(25)"></circle><path fill="white" transform="scale(.55) translate(29, -16)" d="M31.229,17.736c0.064-0.571,0.104-1.148,0.104-1.736s-0.04-1.166-0.104-1.737l-4.377-1.557c-0.218-0.716-0.504-1.401-0.851-2.05l1.993-4.192c-0.725-0.91-1.549-1.734-2.458-2.459l-4.193,1.994c-0.647-0.347-1.334-0.632-2.049-0.849l-1.558-4.378C17.165,0.708,16.588,0.667,16,0.667s-1.166,0.041-1.737,0.105L12.707,5.15c-0.716,0.217-1.401,0.502-2.05,0.849L6.464,4.005C5.554,4.73,4.73,5.554,4.005,6.464l1.994,4.192c-0.347,0.648-0.632,1.334-0.849,2.05l-4.378,1.557C0.708,14.834,0.667,15.412,0.667,16s0.041,1.165,0.105,1.736l4.378,1.558c0.217,0.715,0.502,1.401,0.849,2.049l-1.994,4.193c0.725,0.909,1.549,1.733,2.459,2.458l4.192-1.993c0.648,0.347,1.334,0.633,2.05,0.851l1.557,4.377c0.571,0.064,1.148,0.104,1.737,0.104c0.588,0,1.165-0.04,1.736-0.104l1.558-4.377c0.715-0.218,1.399-0.504,2.049-0.851l4.193,1.993c0.909-0.725,1.733-1.549,2.458-2.458l-1.993-4.193c0.347-0.647,0.633-1.334,0.851-2.049L31.229,17.736zM16,20.871c-2.69,0-4.872-2.182-4.872-4.871c0-2.69,2.182-4.872,4.872-4.872c2.689,0,4.871,2.182,4.871,4.872C20.871,18.689,18.689,20.871,16,20.871z"></path><title>Link options.</title></g></g></g></g></g><g ></g><g ></g><g ></g></g></svg>